<svg width="44" height="44" viewBox="0 0 44 44" fill="none" xmlns="http://www.w3.org/2000/svg">
<path d="M32.6704 22.0207C32.8276 22.0207 33.1712 22.0237 33.5356 22.049C33.8195 22.0687 34.0882 22.1003 34.2886 22.1447L34.4644 22.1935C34.8253 22.3215 35.2505 22.6328 35.5864 23.0373C35.9253 23.4454 36.1226 23.886 36.1226 24.2473V29.2355H41.1108C41.1016 29.2355 41.1331 29.2375 41.2231 29.2619C41.3001 29.2828 41.3915 29.312 41.4839 29.3439C41.5757 29.3757 41.6645 29.4091 41.7339 29.4357C41.7685 29.449 41.7984 29.46 41.8208 29.4689C41.8319 29.4733 41.8412 29.4778 41.8481 29.4807C41.8513 29.4819 41.854 29.4828 41.856 29.4836C42.4919 29.7622 42.9595 30.2956 43.3052 31.2619V34.051C43.0042 34.8935 42.6094 35.4063 42.0903 35.7082L41.8599 35.8254C41.8593 35.8256 41.858 35.8259 41.8569 35.8264C41.8549 35.8272 41.8524 35.8289 41.8491 35.8303C41.8422 35.8331 41.8328 35.8366 41.8218 35.841C41.7994 35.8499 41.7695 35.8619 41.7349 35.8752C41.6656 35.9017 41.5774 35.9343 41.4858 35.966C41.3932 35.998 41.3014 36.0281 41.2241 36.049C41.1531 36.0682 41.118 36.0731 41.1108 36.0744H36.1226V41.0637C36.1226 41.0544 36.1205 41.0852 36.0962 41.175C36.0753 41.2522 36.0453 41.344 36.0132 41.4367C35.9814 41.5285 35.949 41.6173 35.9224 41.6867C35.9092 41.721 35.898 41.7504 35.8892 41.7726C35.8848 41.7837 35.8803 41.793 35.8774 41.8L35.8745 41.8088C35.596 42.4435 35.0628 42.9114 34.0981 43.257H31.3081C30.4654 42.9561 29.9518 42.5614 29.6499 42.0422L29.5327 41.8088C29.5322 41.8076 29.5308 41.8049 29.5288 41.8C29.526 41.7932 29.5215 41.7837 29.5171 41.7726C29.5083 41.7506 29.4971 41.7211 29.4839 41.6867C29.4574 41.6176 29.4248 41.5294 29.3931 41.4377C29.361 41.345 29.331 41.2532 29.3101 41.176C29.2911 41.1061 29.2861 41.0714 29.2847 41.0637V36.0744H24.2954C23.9276 36.0743 23.4761 35.8671 23.0601 35.5129C22.6476 35.1617 22.3373 34.7229 22.2202 34.3615C22.1758 34.2239 22.1353 33.9804 22.1079 33.6574C22.0812 33.3425 22.0683 32.9773 22.0708 32.6105C22.0733 32.2436 22.0915 31.8804 22.1226 31.5705C22.1545 31.2517 22.1982 31.0188 22.2427 30.8937C22.3706 30.5328 22.681 30.1076 23.0854 29.7717C23.4935 29.4328 23.9341 29.2356 24.2954 29.2355H29.2847V24.2473C29.2847 23.8793 29.4919 23.4272 29.8462 23.0109C30.1975 22.5982 30.6365 22.2885 30.9976 22.1721L30.9966 22.1711C31.2618 22.086 31.8783 22.0207 32.6704 22.0207ZM32.7046 23.3635C32.4799 23.3635 32.2812 23.3739 32.1255 23.3869L31.8042 23.423C31.4233 23.479 31.1527 23.6132 30.9722 23.8019C30.791 23.9915 30.7434 24.1928 30.7251 24.2824L30.7202 24.3049L30.7183 24.3283C30.6433 25.1963 30.6869 26.1489 30.7261 27.0363C30.7649 27.9011 30.8028 28.762 30.7456 29.551L30.7153 29.8849C30.6821 30.1835 30.5976 30.3493 30.4976 30.4494C30.399 30.548 30.2364 30.6308 29.9468 30.6662L24.2769 30.7033L24.2026 30.7043L24.1333 30.7307C23.8905 30.8249 23.7415 31.0266 23.6509 31.2121C23.5582 31.4019 23.5004 31.627 23.4644 31.8557C23.4101 32.2003 23.3988 32.5989 23.4185 32.9973L23.4478 33.3937C23.5018 33.937 23.699 34.4235 24.2173 34.6057L24.2642 34.6223L24.313 34.6262C24.6675 34.6604 25.0539 34.6769 25.4927 34.6769C26.028 34.6769 26.5854 34.6527 27.1147 34.6291C27.6475 34.6053 28.1888 34.5822 28.7056 34.5822C29.1763 34.5822 29.5771 34.6021 29.9321 34.6418C30.2308 34.675 30.3974 34.7594 30.4976 34.8596C30.5959 34.9581 30.678 35.1204 30.7134 35.4094L30.7505 41.0793L30.7515 41.1545L30.7788 41.2248C30.9073 41.5536 31.2348 41.7197 31.5269 41.8078C31.841 41.9025 32.2404 41.9465 32.6938 41.9465C33.0186 41.9465 33.2988 41.9229 33.4409 41.9084C33.9855 41.8542 34.4693 41.6573 34.6528 41.1408L34.6694 41.0939L34.6743 41.0441C34.7394 40.3695 34.7308 39.6465 34.7056 38.9406L34.6763 38.2424C34.6331 37.2655 34.5915 36.2943 34.689 35.424C34.7222 35.1254 34.8068 34.9595 34.9067 34.8596C35.0063 34.7601 35.1713 34.6759 35.4673 34.6418L41.1274 34.6057H41.2017L41.271 34.5783C41.5138 34.4841 41.6628 34.2824 41.7534 34.0969C41.846 33.9072 41.9039 33.6828 41.9399 33.4543C41.9943 33.1094 42.0056 32.7103 41.9858 32.3117L41.9565 31.9162C41.9024 31.3714 41.7046 30.8878 41.188 30.7043L41.1411 30.6877L41.0913 30.6828L40.8188 30.6603C40.5399 30.6413 40.2398 30.632 39.9116 30.632C39.3763 30.632 38.8189 30.6562 38.2896 30.6799C37.7553 30.7026 37.2152 30.7267 36.6987 30.7267C36.228 30.7267 35.8272 30.7069 35.4722 30.6672C35.1735 30.6339 35.0069 30.5505 34.9067 30.4504C34.8082 30.3518 34.7253 30.1891 34.6899 29.8996L34.6538 24.2297L34.6528 24.1535L34.6245 24.0822C34.4943 23.7546 34.1601 23.5902 33.8706 23.5031C33.5548 23.4082 33.1544 23.3635 32.7046 23.3635Z" fill="#0095DA" stroke="#0095DA" stroke-width="0.81266"/>
<path d="M11.665 21.9415C13.291 21.9415 14.9611 21.9863 16.583 22.0304C18.201 22.0744 19.8811 22.1202 21.5166 22.1202C22.6518 22.1202 23.6673 22.0977 24.6201 22.0529C25.0194 22.0959 25.2222 22.3527 25.2754 22.6017L25.29 22.7081C25.3022 22.9875 25.1408 23.3119 24.6846 23.4005C23.7837 23.4379 22.8219 23.4581 21.7471 23.4581C20.1815 23.4581 18.5751 23.4184 17.0176 23.38C15.4639 23.3416 13.8511 23.3019 12.2783 23.3019C10.8668 23.3019 9.62454 23.3335 8.47949 23.3995C6.50427 23.5131 4.88048 24.1781 3.72363 25.3488C2.56719 26.5192 1.91526 28.1573 1.80957 30.1466C1.71153 31.9925 1.64918 34.656 1.80957 36.0216C1.81818 36.0947 1.82869 36.1518 1.84082 36.1984L1.9209 36.5021H17.6748C17.8327 36.5465 18.0161 36.7384 18.0488 37.0441L18.0537 37.1866C18.0363 37.5504 17.8096 37.7996 17.4404 37.8507H1.06543C0.733712 37.8139 0.453628 37.4858 0.463867 37.1876C0.53655 35.933 0.49436 34.6141 0.455078 33.3605C0.410916 31.9756 0.367046 30.5709 0.467773 29.2511C0.598892 27.5446 1.34435 25.8963 2.58594 24.5773L2.84082 24.3175C4.22913 22.9659 6.00058 22.1634 7.8252 22.049C8.97754 21.9762 10.2334 21.9415 11.665 21.9415Z" fill="#0095DA" stroke="#0095DA" stroke-width="0.81266"/>
<path d="M16.3975 0.406311C19.6305 0.406439 22.5178 2.07081 24.127 4.86139C25.7044 7.59705 25.69 10.8887 24.0791 13.6758C22.5112 16.3878 19.6881 18.0077 16.5205 18.0079C12.9223 18.0079 9.8165 15.9894 8.40332 12.7413C7.27931 10.1591 7.48202 7.13679 8.95312 4.66022C10.3582 2.29509 12.6585 0.784036 15.293 0.470764L15.5488 0.444397C15.8321 0.419434 16.1186 0.406311 16.3975 0.406311ZM16.4482 1.79694C13.9414 1.81008 11.6274 3.08517 10.2588 5.20319C8.89242 7.31684 8.68317 9.94714 9.70215 12.2374L9.80859 12.4786H9.81445C11.0623 15.0429 13.6053 16.624 16.502 16.6241C19.1538 16.6241 21.5373 15.2625 22.8672 12.9815C24.2263 10.652 24.2331 7.85744 22.8877 5.51471C21.5514 3.18924 19.1569 1.79694 16.4873 1.79694H16.4482Z" fill="#0095DA" stroke="#0095DA" stroke-width="0.81266"/>
</svg>
