<svg width="177" height="65" viewBox="0 0 177 65" fill="none" xmlns="http://www.w3.org/2000/svg">
<g clip-path="url(#clip0_110_194)">
<path d="M157.054 29.7124H155.956V30.8102H157.054V29.7124Z" fill="white"/>
<path d="M159.749 29.7109H158.651V30.8087H159.749V29.7109Z" fill="white"/>
<path d="M158.401 29.7109H157.303V30.8087H158.401V29.7109Z" fill="white"/>
<path d="M155.708 29.7109H154.61V30.8087H155.708V29.7109Z" fill="white"/>
<path d="M157.054 31.0505H155.956V32.1483H157.054V31.0505Z" fill="white"/>
<path d="M159.749 31.0498H158.651V32.1476H159.749V31.0498Z" fill="white"/>
<path d="M158.401 31.0498H157.303V32.1476H158.401V31.0498Z" fill="white"/>
<path d="M155.708 31.0498H154.61V32.1476H155.708V31.0498Z" fill="white"/>
<path d="M157.054 32.3872H155.956V33.485H157.054V32.3872Z" fill="white"/>
<path d="M159.748 32.3872H158.651V33.485H159.748V32.3872Z" fill="white"/>
<path d="M158.4 32.3872H157.302V33.485H158.4V32.3872Z" fill="white"/>
<path d="M155.707 32.3855H154.609V33.4833H155.707V32.3855Z" fill="white"/>
<path d="M157.054 33.7129H155.956V34.8106H157.054V33.7129Z" fill="white"/>
<path d="M158.402 33.7129H157.304V34.8106H158.402V33.7129Z" fill="white"/>
<path d="M155.708 33.7129H154.61V34.8106H155.708V33.7129Z" fill="white"/>
<path d="M162.438 29.7109H161.34V30.8087H162.438V29.7109Z" fill="white"/>
<path d="M165.129 29.7109H164.031V30.8087H165.129V29.7109Z" fill="white"/>
<path d="M163.784 29.7102H162.686V30.808H163.784V29.7102Z" fill="white"/>
<path d="M161.092 29.7109H159.994V30.8087H161.092V29.7109Z" fill="white"/>
<path d="M162.44 31.0498H161.342V32.1476H162.44V31.0498Z" fill="white"/>
<path d="M165.129 31.0498H164.031V32.1476H165.129V31.0498Z" fill="white"/>
<path d="M163.785 31.0491H162.687V32.1468H163.785V31.0491Z" fill="white"/>
<path d="M161.092 31.0498H159.994V32.1476H161.092V31.0498Z" fill="white"/>
<path d="M162.439 32.3887H161.341V33.4864H162.439V32.3887Z" fill="white"/>
<path d="M165.127 32.3872H164.03V33.485H165.127V32.3872Z" fill="white"/>
<path d="M163.78 32.3872H162.682V33.485H163.78V32.3872Z" fill="white"/>
<path d="M161.092 32.3887H159.994V33.4864H161.092V32.3887Z" fill="white"/>
<path d="M167.816 29.7117H166.718V30.8094H167.816V29.7117Z" fill="white"/>
<path d="M170.508 29.7109H169.411V30.8087H170.508V29.7109Z" fill="white"/>
<path d="M169.162 29.7109H168.064V30.8087H169.162V29.7109Z" fill="white"/>
<path d="M166.472 29.7109H165.374V30.8087H166.472V29.7109Z" fill="white"/>
<path d="M167.817 31.0476H166.719V32.1454H167.817V31.0476Z" fill="white"/>
<path d="M170.508 31.0498H169.411V32.1476H170.508V31.0498Z" fill="white"/>
<path d="M169.161 31.0498H168.064V32.1476H169.161V31.0498Z" fill="white"/>
<path d="M166.472 31.0498H165.374V32.1476H166.472V31.0498Z" fill="white"/>
<path d="M167.813 32.3894H166.716V33.4872H167.813V32.3894Z" fill="white"/>
<path d="M170.508 32.3872H169.411V33.485H170.508V32.3872Z" fill="white"/>
<path d="M169.161 32.3894H168.064V33.4872H169.161V32.3894Z" fill="white"/>
<path d="M166.475 32.3872H165.377V33.485H166.475V32.3872Z" fill="white"/>
<path d="M171.855 29.7109H170.757V30.8087H171.855V29.7109Z" fill="white"/>
<path d="M173.202 29.7109H172.104V30.8087H173.202V29.7109Z" fill="white"/>
<path d="M171.855 31.0491H170.757V32.1468H171.855V31.0491Z" fill="white"/>
<path d="M174.547 31.0498H173.449V32.1476H174.547V31.0498Z" fill="white"/>
<path d="M173.202 31.0498H172.104V32.1476H173.202V31.0498Z" fill="white"/>
<path d="M171.857 32.3862H170.759V33.484H171.857V32.3862Z" fill="white"/>
<path d="M174.55 32.3862H173.452V33.484H174.55V32.3862Z" fill="white"/>
<path d="M173.204 32.3862H172.106V33.484H173.204V32.3862Z" fill="white"/>
<path d="M171.847 33.7129H170.75V34.8106H171.847V33.7129Z" fill="white"/>
<path d="M174.546 33.7129H173.449V34.8106H174.546V33.7129Z" fill="white"/>
<path d="M173.194 33.7129H172.096V34.8106H173.194V33.7129Z" fill="white"/>
<path d="M159.748 33.7114H158.651V34.8092H159.748V33.7114Z" fill="white"/>
<path d="M162.439 33.7136H161.341V34.8114H162.439V33.7136Z" fill="white"/>
<path d="M165.127 33.7114H164.03V34.8092H165.127V33.7114Z" fill="white"/>
<path d="M163.78 33.7114H162.682V34.8092H163.78V33.7114Z" fill="white"/>
<path d="M161.092 33.7136H159.994V34.8114H161.092V33.7136Z" fill="white"/>
<path d="M167.813 33.7146H166.716V34.8123H167.813V33.7146Z" fill="white"/>
<path d="M170.508 33.7114H169.411V34.8092H170.508V33.7114Z" fill="white"/>
<path d="M169.161 33.7146H168.064V34.8123H169.161V33.7146Z" fill="white"/>
<path d="M166.475 33.7114H165.377V34.8092H166.475V33.7114Z" fill="white"/>
<path d="M157.062 35.0671H155.965V36.1649H157.062V35.0671Z" fill="white"/>
<path d="M158.411 35.0671H157.313V36.1649H158.411V35.0671Z" fill="white"/>
<path d="M155.717 35.0671H154.619V36.1649H155.717V35.0671Z" fill="white"/>
<path d="M171.856 35.0647H170.759V36.1624H171.856V35.0647Z" fill="white"/>
<path d="M174.547 35.0632H173.449V36.161H174.547V35.0632Z" fill="white"/>
<path d="M173.203 35.0647H172.105V36.1624H173.203V35.0647Z" fill="white"/>
<path d="M159.757 35.0632H158.659V36.161H159.757V35.0632Z" fill="white"/>
<path d="M162.447 35.0654H161.35V36.1632H162.447V35.0654Z" fill="white"/>
<path d="M165.128 35.0647H164.03V36.1624H165.128V35.0647Z" fill="white"/>
<path d="M163.788 35.0632H162.691V36.161H163.788V35.0632Z" fill="white"/>
<path d="M161.102 35.0654H160.004V36.1632H161.102V35.0654Z" fill="white"/>
<path d="M167.813 35.0647H166.716V36.1624H167.813V35.0647Z" fill="white"/>
<path d="M170.506 35.0632H169.408V36.161H170.506V35.0632Z" fill="white"/>
<path d="M169.162 35.0647H168.064V36.1624H169.162V35.0647Z" fill="white"/>
<path d="M166.475 35.0618H165.377V36.1595H166.475V35.0618Z" fill="white"/>
<path d="M157.054 36.405H155.956V37.5028H157.054V36.405Z" fill="white"/>
<path d="M158.402 36.405H157.304V37.5028H158.402V36.405Z" fill="white"/>
<path d="M155.708 36.405H154.61V37.5028H155.708V36.405Z" fill="white"/>
<path d="M171.847 36.4021H170.75V37.4999H171.847V36.4021Z" fill="white"/>
<path d="M174.546 36.4021H173.449V37.4999H174.546V36.4021Z" fill="white"/>
<path d="M173.194 36.4021H172.096V37.4999H173.194V36.4021Z" fill="white"/>
<path d="M159.748 36.4014H158.651V37.4991H159.748V36.4014Z" fill="white"/>
<path d="M162.439 36.4036H161.341V37.5013H162.439V36.4036Z" fill="white"/>
<path d="M165.127 36.4014H164.03V37.4991H165.127V36.4014Z" fill="white"/>
<path d="M163.78 36.4014H162.682V37.4991H163.78V36.4014Z" fill="white"/>
<path d="M161.092 36.4036H159.994V37.5013H161.092V36.4036Z" fill="white"/>
<path d="M167.813 36.4043H166.716V37.502H167.813V36.4043Z" fill="white"/>
<path d="M170.508 36.4014H169.411V37.4991H170.508V36.4014Z" fill="white"/>
<path d="M169.161 36.4043H168.064V37.502H169.161V36.4043Z" fill="white"/>
<path d="M166.475 36.4014H165.377V37.4991H166.475V36.4014Z" fill="white"/>
<path d="M157.054 37.7461H155.956V38.8438H157.054V37.7461Z" fill="white"/>
<path d="M158.402 37.7461H157.304V38.8438H158.402V37.7461Z" fill="white"/>
<path d="M155.708 37.7461H154.61V38.8438H155.708V37.7461Z" fill="white"/>
<path d="M171.847 37.7432H170.75V38.8409H171.847V37.7432Z" fill="white"/>
<path d="M174.546 37.7432H173.449V38.8409H174.546V37.7432Z" fill="white"/>
<path d="M173.194 37.7432H172.096V38.8409H173.194V37.7432Z" fill="white"/>
<path d="M159.748 37.7424H158.651V38.8402H159.748V37.7424Z" fill="white"/>
<path d="M162.439 37.7439H161.341V38.8416H162.439V37.7439Z" fill="white"/>
<path d="M165.127 37.7424H164.03V38.8402H165.127V37.7424Z" fill="white"/>
<path d="M163.78 37.7424H162.682V38.8402H163.78V37.7424Z" fill="white"/>
<path d="M161.092 37.7439H159.994V38.8416H161.092V37.7439Z" fill="white"/>
<path d="M167.813 37.7454H166.716V38.8431H167.813V37.7454Z" fill="white"/>
<path d="M170.508 37.7424H169.411V38.8402H170.508V37.7424Z" fill="white"/>
<path d="M169.161 37.7454H168.064V38.8431H169.161V37.7454Z" fill="white"/>
<path d="M166.475 37.7424H165.377V38.8402H166.475V37.7424Z" fill="white"/>
<path d="M157.056 39.0767H155.958V40.1744H157.056V39.0767Z" fill="white"/>
<path d="M158.404 39.0767H157.306V40.1744H158.404V39.0767Z" fill="white"/>
<path d="M155.71 39.0767H154.612V40.1744H155.71V39.0767Z" fill="white"/>
<path d="M171.85 39.0742H170.753V40.172H171.85V39.0742Z" fill="white"/>
<path d="M174.549 39.0742H173.451V40.172H174.549V39.0742Z" fill="white"/>
<path d="M173.196 39.0742H172.098V40.172H173.196V39.0742Z" fill="white"/>
<path d="M159.751 39.0735H158.653V40.1712H159.751V39.0735Z" fill="white"/>
<path d="M162.441 39.075H161.344V40.1727H162.441V39.075Z" fill="white"/>
<path d="M165.13 39.0735H164.032V40.1712H165.13V39.0735Z" fill="white"/>
<path d="M163.782 39.0735H162.685V40.1712H163.782V39.0735Z" fill="white"/>
<path d="M161.095 39.075H159.997V40.1727H161.095V39.075Z" fill="white"/>
<path d="M167.816 39.0759H166.718V40.1737H167.816V39.0759Z" fill="white"/>
<path d="M170.512 39.0735H169.414V40.1712H170.512V39.0735Z" fill="white"/>
<path d="M169.164 39.0759H168.066V40.1737H169.164V39.0759Z" fill="white"/>
<path d="M166.477 39.0735H165.379V40.1712H166.477V39.0735Z" fill="white"/>
<path d="M157.054 41.7771H155.956V42.8749H157.054V41.7771Z" fill="white"/>
<path d="M158.4 41.7771H157.303V42.8749H158.4V41.7771Z" fill="white"/>
<path d="M155.708 41.7764H154.61V42.8741H155.708V41.7764Z" fill="white"/>
<path d="M171.849 41.7771H170.751V42.8749H171.849V41.7771Z" fill="white"/>
<path d="M174.548 41.7771H173.45V42.8749H174.548V41.7771Z" fill="white"/>
<path d="M173.195 41.7771H172.098V42.8749H173.195V41.7771Z" fill="white"/>
<path d="M159.75 41.7764H158.652V42.8741H159.75V41.7764Z" fill="white"/>
<path d="M162.438 41.7764H161.34V42.8741H162.438V41.7764Z" fill="white"/>
<path d="M165.128 41.7764H164.03V42.8741H165.128V41.7764Z" fill="white"/>
<path d="M163.785 41.7764H162.687V42.8741H163.785V41.7764Z" fill="white"/>
<path d="M161.092 41.7771H159.994V42.8749H161.092V41.7771Z" fill="white"/>
<path d="M167.815 41.7793H166.717V42.877H167.815V41.7793Z" fill="white"/>
<path d="M170.51 41.7764H169.412V42.8741H170.51V41.7764Z" fill="white"/>
<path d="M169.163 41.7793H168.065V42.877H169.163V41.7793Z" fill="white"/>
<path d="M166.476 41.7764H165.378V42.8741H166.476V41.7764Z" fill="white"/>
<path d="M157.053 40.4338H155.955V41.5316H157.053V40.4338Z" fill="white"/>
<path d="M158.402 40.4338H157.304V41.5316H158.402V40.4338Z" fill="white"/>
<path d="M155.707 40.4338H154.609V41.5316H155.707V40.4338Z" fill="white"/>
<path d="M171.847 40.4307H170.75V41.5284H171.847V40.4307Z" fill="white"/>
<path d="M174.546 40.4307H173.448V41.5284H174.546V40.4307Z" fill="white"/>
<path d="M173.194 40.4307H172.096V41.5284H173.194V40.4307Z" fill="white"/>
<path d="M159.748 40.4299H158.65V41.5277H159.748V40.4299Z" fill="white"/>
<path d="M162.438 40.4314H161.34V41.5291H162.438V40.4314Z" fill="white"/>
<path d="M165.127 40.4299H164.029V41.5277H165.127V40.4299Z" fill="white"/>
<path d="M163.779 40.4299H162.682V41.5277H163.779V40.4299Z" fill="white"/>
<path d="M161.092 40.4314H159.994V41.5291H161.092V40.4314Z" fill="white"/>
<path d="M167.813 40.4329H166.715V41.5306H167.813V40.4329Z" fill="white"/>
<path d="M170.508 40.4299H169.411V41.5277H170.508V40.4299Z" fill="white"/>
<path d="M169.161 40.4329H168.064V41.5306H169.161V40.4329Z" fill="white"/>
<path d="M166.474 40.4299H165.376V41.5277H166.474V40.4299Z" fill="white"/>
<path d="M157.053 43.1167H155.955V44.2145H157.053V43.1167Z" fill="white"/>
<path d="M158.401 43.1167H157.303V44.2145H158.401V43.1167Z" fill="white"/>
<path d="M155.707 43.1167H154.609V44.2145H155.707V43.1167Z" fill="white"/>
<path d="M171.847 43.1135H170.749V44.2113H171.847V43.1135Z" fill="white"/>
<path d="M174.546 43.1135H173.448V44.2113H174.546V43.1135Z" fill="white"/>
<path d="M173.193 43.1135H172.095V44.2113H173.193V43.1135Z" fill="white"/>
<path d="M159.748 43.1128H158.65V44.2105H159.748V43.1128Z" fill="white"/>
<path d="M162.438 43.1145H161.34V44.2123H162.438V43.1145Z" fill="white"/>
<path d="M165.127 43.1128H164.029V44.2105H165.127V43.1128Z" fill="white"/>
<path d="M163.779 43.1128H162.682V44.2105H163.779V43.1128Z" fill="white"/>
<path d="M161.092 43.1145H159.994V44.2123H161.092V43.1145Z" fill="white"/>
<path d="M167.813 43.116H166.715V44.2137H167.813V43.116Z" fill="white"/>
<path d="M170.508 43.1128H169.41V44.2105H170.508V43.1128Z" fill="white"/>
<path d="M169.16 43.116H168.063V44.2137H169.16V43.116Z" fill="white"/>
<path d="M166.474 43.1128H165.376V44.2105H166.474V43.1128Z" fill="white"/>
<path d="M157.052 44.4585H155.955V45.5562H157.052V44.4585Z" fill="white"/>
<path d="M158.399 44.4585H157.301V45.5562H158.399V44.4585Z" fill="white"/>
<path d="M155.706 44.4578H154.608V45.5555H155.706V44.4578Z" fill="white"/>
<path d="M171.855 44.4578H170.757V45.5555H171.855V44.4578Z" fill="white"/>
<path d="M159.748 44.4578H158.651V45.5555H159.748V44.4578Z" fill="white"/>
<path d="M162.437 44.4578H161.339V45.5555H162.437V44.4578Z" fill="white"/>
<path d="M165.126 44.4578H164.028V45.5555H165.126V44.4578Z" fill="white"/>
<path d="M163.783 44.4578H162.685V45.5555H163.783V44.4578Z" fill="white"/>
<path d="M161.09 44.4585H159.992V45.5562H161.09V44.4585Z" fill="white"/>
<path d="M167.813 44.4609H166.716V45.5587H167.813V44.4609Z" fill="white"/>
<path d="M170.508 44.4578H169.411V45.5555H170.508V44.4578Z" fill="white"/>
<path d="M169.161 44.4609H168.064V45.5587H169.161V44.4609Z" fill="white"/>
<path d="M166.475 44.4578H165.377V45.5555H166.475V44.4578Z" fill="white"/>
<path d="M154.361 31.0498H153.263V32.1476H154.361V31.0498Z" fill="white"/>
<path d="M153.015 31.0498H151.917V32.1476H153.015V31.0498Z" fill="white"/>
<path d="M151.667 31.0498H150.57V32.1476H151.667V31.0498Z" fill="white"/>
<path d="M150.32 31.0498H149.222V32.1476H150.32V31.0498Z" fill="white"/>
<path d="M148.974 31.0498H147.876V32.1476H148.974V31.0498Z" fill="white"/>
<path d="M147.626 31.0498H146.528V32.1476H147.626V31.0498Z" fill="white"/>
<path d="M146.279 31.0498H145.182V32.1476H146.279V31.0498Z" fill="white"/>
<path d="M144.932 31.0498H143.834V32.1476H144.932V31.0498Z" fill="white"/>
<path d="M143.585 31.0498H142.487V32.1476H143.585V31.0498Z" fill="white"/>
<path d="M151.66 32.3894H150.562V33.4872H151.66V32.3894Z" fill="white"/>
<path d="M154.358 32.3894H153.26V33.4872H154.358V32.3894Z" fill="white"/>
<path d="M153.006 32.3894H151.909V33.4872H153.006V32.3894Z" fill="white"/>
<path d="M142.238 32.3879H141.14V33.4857H142.238V32.3879Z" fill="white"/>
<path d="M144.932 32.3879H143.834V33.4857H144.932V32.3879Z" fill="white"/>
<path d="M143.585 32.3879H142.487V33.4857H143.585V32.3879Z" fill="white"/>
<path d="M140.902 32.3887H139.804V33.4864H140.902V32.3887Z" fill="white"/>
<path d="M147.625 32.3909H146.527V33.4886H147.625V32.3909Z" fill="white"/>
<path d="M150.321 32.3879H149.223V33.4857H150.321V32.3879Z" fill="white"/>
<path d="M148.974 32.3909H147.876V33.4886H148.974V32.3909Z" fill="white"/>
<path d="M146.28 32.3879H145.182V33.4857H146.28V32.3879Z" fill="white"/>
<path d="M151.661 33.7122H150.563V34.8099H151.661V33.7122Z" fill="white"/>
<path d="M154.359 33.7122H153.261V34.8099H154.359V33.7122Z" fill="white"/>
<path d="M153.007 33.7122H151.909V34.8099H153.007V33.7122Z" fill="white"/>
<path d="M139.561 33.7107H138.463V34.8084H139.561V33.7107Z" fill="white"/>
<path d="M142.239 33.71H141.142V34.8077H142.239V33.71Z" fill="white"/>
<path d="M144.934 33.7107H143.836V34.8084H144.934V33.7107Z" fill="white"/>
<path d="M143.586 33.71H142.489V34.8077H143.586V33.71Z" fill="white"/>
<path d="M147.626 33.7146H146.528V34.8123H147.626V33.7146Z" fill="white"/>
<path d="M150.322 33.7107H149.224V34.8084H150.322V33.7107Z" fill="white"/>
<path d="M148.975 33.7146H147.877V34.8123H148.975V33.7146Z" fill="white"/>
<path d="M146.282 33.7107H145.184V34.8084H146.282V33.7107Z" fill="white"/>
<path d="M151.66 35.0625H150.562V36.1603H151.66V35.0625Z" fill="white"/>
<path d="M154.358 35.0625H153.26V36.1603H154.358V35.0625Z" fill="white"/>
<path d="M153.006 35.0625H151.909V36.1603H153.006V35.0625Z" fill="white"/>
<path d="M139.56 35.0618H138.462V36.1595H139.56V35.0618Z" fill="white"/>
<path d="M142.238 35.0618H141.14V36.1595H142.238V35.0618Z" fill="white"/>
<path d="M144.932 35.0618H143.834V36.1595H144.932V35.0618Z" fill="white"/>
<path d="M143.585 35.0618H142.487V36.1595H143.585V35.0618Z" fill="white"/>
<path d="M140.902 35.0625H139.804V36.1603H140.902V35.0625Z" fill="white"/>
<path d="M147.625 35.0647H146.527V36.1624H147.625V35.0647Z" fill="white"/>
<path d="M150.321 35.0625H149.223V36.1603H150.321V35.0625Z" fill="white"/>
<path d="M148.974 35.0647H147.876V36.1624H148.974V35.0647Z" fill="white"/>
<path d="M146.28 35.0618H145.182V36.1595H146.28V35.0618Z" fill="white"/>
<path d="M151.66 36.3975H150.562V37.4952H151.66V36.3975Z" fill="white"/>
<path d="M154.358 36.3975H153.26V37.4952H154.358V36.3975Z" fill="white"/>
<path d="M153.006 36.3975H151.909V37.4952H153.006V36.3975Z" fill="white"/>
<path d="M142.238 36.396H141.14V37.4937H142.238V36.396Z" fill="white"/>
<path d="M144.932 36.396H143.834V37.4937H144.932V36.396Z" fill="white"/>
<path d="M143.585 36.396H142.487V37.4937H143.585V36.396Z" fill="white"/>
<path d="M147.625 36.3997H146.527V37.4974H147.625V36.3997Z" fill="white"/>
<path d="M150.321 36.3967H149.223V37.4945H150.321V36.3967Z" fill="white"/>
<path d="M148.974 36.3997H147.876V37.4974H148.974V36.3997Z" fill="white"/>
<path d="M146.28 36.3967H145.182V37.4945H146.28V36.3967Z" fill="white"/>
<path d="M143.587 39.0789H142.49V40.1766H143.587V39.0789Z" fill="white"/>
<path d="M146.283 39.0842H145.185V40.182H146.283V39.0842Z" fill="white"/>
<path d="M148.973 39.0828H147.875V40.1805H148.973V39.0828Z" fill="white"/>
<path d="M147.63 39.0842H146.533V40.182H147.63V39.0842Z" fill="white"/>
<path d="M144.933 39.0789H143.835V40.1766H144.933V39.0789Z" fill="white"/>
<path d="M151.666 39.0864H150.568V40.1842H151.666V39.0864Z" fill="white"/>
<path d="M154.362 39.082H153.264V40.1798H154.362V39.082Z" fill="white"/>
<path d="M153.015 39.0803H151.918V40.1781H153.015V39.0803Z" fill="white"/>
<path d="M150.322 39.0835H149.224V40.1812H150.322V39.0835Z" fill="white"/>
<path d="M151.669 37.7424H150.571V38.8402H151.669V37.7424Z" fill="white"/>
<path d="M154.367 37.7424H153.269V38.8402H154.367V37.7424Z" fill="white"/>
<path d="M153.015 37.7424H151.918V38.8402H153.015V37.7424Z" fill="white"/>
<path d="M142.24 37.7439H141.142V38.8416H142.24V37.7439Z" fill="white"/>
<path d="M144.942 37.74H143.844V38.8377H144.942V37.74Z" fill="white"/>
<path d="M143.581 37.7378H142.483V38.8355H143.581V37.7378Z" fill="white"/>
<path d="M147.634 37.7439H146.536V38.8416H147.634V37.7439Z" fill="white"/>
<path d="M150.33 37.7407H149.232V38.8385H150.33V37.7407Z" fill="white"/>
<path d="M148.983 37.7439H147.885V38.8416H148.983V37.7439Z" fill="white"/>
<path d="M146.289 37.7407H145.192V38.8385H146.289V37.7407Z" fill="white"/>
<path d="M142.236 39.0789H141.138V40.1766H142.236V39.0789Z" fill="white"/>
<path d="M143.585 40.4397H142.487V41.5374H143.585V40.4397Z" fill="white"/>
<path d="M146.279 40.439H145.182V41.5367H146.279V40.439Z" fill="white"/>
<path d="M148.969 40.436H147.871V41.5338H148.969V40.436Z" fill="white"/>
<path d="M147.626 40.4368H146.528V41.5345H147.626V40.4368Z" fill="white"/>
<path d="M144.932 40.4397H143.834V41.5374H144.932V40.4397Z" fill="white"/>
<path d="M151.662 40.4397H150.564V41.5374H151.662V40.4397Z" fill="white"/>
<path d="M154.358 40.4346H153.26V41.5323H154.358V40.4346Z" fill="white"/>
<path d="M153.012 40.4338H151.914V41.5316H153.012V40.4338Z" fill="white"/>
<path d="M150.317 40.4368H149.219V41.5345H150.317V40.4368Z" fill="white"/>
<path d="M142.238 40.4397H141.14V41.5374H142.238V40.4397Z" fill="white"/>
<path d="M143.585 41.7764H142.487V42.8741H143.585V41.7764Z" fill="white"/>
<path d="M146.279 41.7803H145.181V42.878H146.279V41.7803Z" fill="white"/>
<path d="M148.969 41.7786H147.871V42.8763H148.969V41.7786Z" fill="white"/>
<path d="M147.626 41.7803H146.528V42.878H147.626V41.7803Z" fill="white"/>
<path d="M144.943 41.781H143.845V42.8788H144.943V41.781Z" fill="white"/>
<path d="M151.662 41.7825H150.564V42.8802H151.662V41.7825Z" fill="white"/>
<path d="M154.358 41.7771H153.26V42.8749H154.358V41.7771Z" fill="white"/>
<path d="M153.012 41.7764H151.914V42.8741H153.012V41.7764Z" fill="white"/>
<path d="M150.317 41.7793H149.219V42.877H150.317V41.7793Z" fill="white"/>
<path d="M142.237 41.7771H141.139V42.8749H142.237V41.7771Z" fill="white"/>
<path d="M143.583 43.1128H142.486V44.2105H143.583V43.1128Z" fill="white"/>
<path d="M146.279 43.1135H145.181V44.2113H146.279V43.1135Z" fill="white"/>
<path d="M148.973 43.1152H147.875V44.213H148.973V43.1152Z" fill="white"/>
<path d="M147.626 43.1145H146.528V44.2123H147.626V43.1145Z" fill="white"/>
<path d="M144.932 43.1145H143.834V44.2123H144.932V43.1145Z" fill="white"/>
<path d="M151.667 43.1152H150.57V44.213H151.667V43.1152Z" fill="white"/>
<path d="M154.361 43.1152H153.263V44.213H154.361V43.1152Z" fill="white"/>
<path d="M153.014 43.1152H151.916V44.213H153.014V43.1152Z" fill="white"/>
<path d="M150.321 43.1145H149.223V44.2123H150.321V43.1145Z" fill="white"/>
<path d="M142.232 43.1128H141.134V44.2105H142.232V43.1128Z" fill="white"/>
<path d="M143.585 44.4578H142.487V45.5555H143.585V44.4578Z" fill="white"/>
<path d="M146.279 44.4578H145.181V45.5555H146.279V44.4578Z" fill="white"/>
<path d="M148.973 44.4609H147.875V45.5587H148.973V44.4609Z" fill="white"/>
<path d="M147.63 44.4617H146.533V45.5594H147.63V44.4617Z" fill="white"/>
<path d="M144.931 44.4578H143.834V45.5555H144.931V44.4578Z" fill="white"/>
<path d="M151.666 44.4646H150.568V45.5624H151.666V44.4646Z" fill="white"/>
<path d="M154.362 44.4592H153.264V45.557H154.362V44.4592Z" fill="white"/>
<path d="M153.015 44.4585H151.918V45.5562H153.015V44.4585Z" fill="white"/>
<path d="M150.322 44.4609H149.224V45.5587H150.322V44.4609Z" fill="white"/>
<path d="M142.236 44.4563H141.138V45.5541H142.236V44.4563Z" fill="white"/>
<path d="M157.052 45.7952H155.955V46.8929H157.052V45.7952Z" fill="white"/>
<path d="M158.399 45.7952H157.301V46.8929H158.399V45.7952Z" fill="white"/>
<path d="M155.706 45.7942H154.608V46.8919H155.706V45.7942Z" fill="white"/>
<path d="M159.748 45.7942H158.651V46.8919H159.748V45.7942Z" fill="white"/>
<path d="M162.437 45.7952H161.339V46.8929H162.437V45.7952Z" fill="white"/>
<path d="M165.126 45.7952H164.028V46.8929H165.126V45.7952Z" fill="white"/>
<path d="M163.783 45.7952H162.685V46.8929H163.783V45.7952Z" fill="white"/>
<path d="M161.09 45.7952H159.992V46.8929H161.09V45.7952Z" fill="white"/>
<path d="M167.813 45.7974H166.716V46.8951H167.813V45.7974Z" fill="white"/>
<path d="M169.161 45.7974H168.064V46.8951H169.161V45.7974Z" fill="white"/>
<path d="M166.475 45.7942H165.377V46.8919H166.475V45.7942Z" fill="white"/>
<path d="M150.323 47.1323H149.225V48.2301H150.323V47.1323Z" fill="white"/>
<path d="M151.669 47.1323H150.571V48.2301H151.669V47.1323Z" fill="white"/>
<path d="M148.977 47.1316H147.879V48.2293H148.977V47.1316Z" fill="white"/>
<path d="M165.128 47.1323H164.03V48.2301H165.128V47.1323Z" fill="white"/>
<path d="M167.816 47.1323H166.719V48.2301H167.816V47.1323Z" fill="white"/>
<path d="M166.475 47.1323H165.377V48.2301H166.475V47.1323Z" fill="white"/>
<path d="M153.018 47.1316H151.921V48.2293H153.018V47.1316Z" fill="white"/>
<path d="M155.707 47.1316H154.609V48.2293H155.707V47.1316Z" fill="white"/>
<path d="M158.397 47.1316H157.299V48.2293H158.397V47.1316Z" fill="white"/>
<path d="M157.054 47.1316H155.956V48.2293H157.054V47.1316Z" fill="white"/>
<path d="M154.36 47.1323H153.263V48.2301H154.36V47.1323Z" fill="white"/>
<path d="M161.092 47.1331H159.994V48.2308H161.092V47.1331Z" fill="white"/>
<path d="M163.785 47.1301H162.688V48.2279H163.785V47.1301Z" fill="white"/>
<path d="M162.438 47.1331H161.34V48.2308H162.438V47.1331Z" fill="white"/>
<path d="M159.745 47.1316H158.647V48.2293H159.745V47.1316Z" fill="white"/>
<path d="M147.631 48.4697H146.533V49.5675H147.631V48.4697Z" fill="white"/>
<path d="M148.978 48.4697H147.88V49.5675H148.978V48.4697Z" fill="white"/>
<path d="M146.285 48.469H145.187V49.5667H146.285V48.469Z" fill="white"/>
<path d="M162.438 48.4705H161.34V49.5682H162.438V48.4705Z" fill="white"/>
<path d="M165.125 48.4705H164.027V49.5682H165.125V48.4705Z" fill="white"/>
<path d="M163.784 48.4697H162.686V49.5675H163.784V48.4697Z" fill="white"/>
<path d="M150.327 48.469H149.229V49.5667H150.327V48.469Z" fill="white"/>
<path d="M153.015 48.469H151.918V49.5667H153.015V48.469Z" fill="white"/>
<path d="M155.708 48.4697H154.61V49.5675H155.708V48.4697Z" fill="white"/>
<path d="M154.363 48.4697H153.265V49.5675H154.363V48.4697Z" fill="white"/>
<path d="M151.669 48.4697H150.571V49.5675H151.669V48.4697Z" fill="white"/>
<path d="M158.4 48.4697H157.303V49.5675H158.4V48.4697Z" fill="white"/>
<path d="M161.087 48.469H159.989V49.5667H161.087V48.469Z" fill="white"/>
<path d="M159.74 48.4719H158.642V49.5697H159.74V48.4719Z" fill="white"/>
<path d="M157.054 48.4697H155.956V49.5675H157.054V48.4697Z" fill="white"/>
<path d="M144.932 49.8047H143.834V50.9024H144.932V49.8047Z" fill="white"/>
<path d="M146.279 49.8047H145.182V50.9024H146.279V49.8047Z" fill="white"/>
<path d="M143.583 49.8054H142.485V50.9032H143.583V49.8054Z" fill="white"/>
<path d="M159.74 49.8054H158.642V50.9032H159.74V49.8054Z" fill="white"/>
<path d="M162.439 49.8054H161.341V50.9032H162.439V49.8054Z" fill="white"/>
<path d="M161.086 49.8054H159.989V50.9032H161.086V49.8054Z" fill="white"/>
<path d="M147.626 49.8047H146.528V50.9024H147.626V49.8047Z" fill="white"/>
<path d="M150.32 49.8047H149.222V50.9024H150.32V49.8047Z" fill="white"/>
<path d="M153.014 49.8047H151.916V50.9024H153.014V49.8047Z" fill="white"/>
<path d="M151.667 49.8047H150.57V50.9024H151.667V49.8047Z" fill="white"/>
<path d="M148.973 49.8047H147.875V50.9024H148.973V49.8047Z" fill="white"/>
<path d="M155.69 49.8076H154.592V50.9054H155.69V49.8076Z" fill="white"/>
<path d="M158.385 49.8054H157.287V50.9032H158.385V49.8054Z" fill="white"/>
<path d="M157.038 49.8076H155.94V50.9054H157.038V49.8076Z" fill="white"/>
<path d="M154.362 49.8047H153.264V50.9024H154.362V49.8047Z" fill="white"/>
<path d="M144.931 51.1411H143.834V52.2389H144.931V51.1411Z" fill="white"/>
<path d="M146.279 51.1418H145.182V52.2396H146.279V51.1418Z" fill="white"/>
<path d="M143.584 51.1404H142.486V52.2381H143.584V51.1404Z" fill="white"/>
<path d="M159.748 51.1418H158.651V52.2396H159.748V51.1418Z" fill="white"/>
<path d="M162.447 51.1418H161.349V52.2396H162.447V51.1418Z" fill="white"/>
<path d="M161.094 51.1418H159.996V52.2396H161.094V51.1418Z" fill="white"/>
<path d="M147.626 51.1418H146.528V52.2396H147.626V51.1418Z" fill="white"/>
<path d="M150.321 51.1418H149.223V52.2396H150.321V51.1418Z" fill="white"/>
<path d="M153.014 51.1418H151.916V52.2396H153.014V51.1418Z" fill="white"/>
<path d="M151.667 51.1418H150.57V52.2396H151.667V51.1418Z" fill="white"/>
<path d="M148.973 51.1418H147.875V52.2396H148.973V51.1418Z" fill="white"/>
<path d="M155.714 51.1443H154.616V52.242H155.714V51.1443Z" fill="white"/>
<path d="M158.399 51.1396H157.301V52.2374H158.399V51.1396Z" fill="white"/>
<path d="M157.062 51.1443H155.964V52.242H157.062V51.1443Z" fill="white"/>
<path d="M154.361 51.1418H153.263V52.2396H154.361V51.1418Z" fill="white"/>
<path d="M144.931 52.4792H143.834V53.577H144.931V52.4792Z" fill="white"/>
<path d="M146.279 52.4807H145.182V53.5785H146.279V52.4807Z" fill="white"/>
<path d="M143.584 52.4792H142.486V53.577H143.584V52.4792Z" fill="white"/>
<path d="M159.748 52.4814H158.651V53.5792H159.748V52.4814Z" fill="white"/>
<path d="M161.094 52.4814H159.996V53.5792H161.094V52.4814Z" fill="white"/>
<path d="M147.631 52.48H146.533V53.5777H147.631V52.48Z" fill="white"/>
<path d="M150.321 52.4792H149.223V53.577H150.321V52.4792Z" fill="white"/>
<path d="M153.015 52.4792H151.917V53.577H153.015V52.4792Z" fill="white"/>
<path d="M151.667 52.4792H150.57V53.577H151.667V52.4792Z" fill="white"/>
<path d="M148.973 52.4807H147.875V53.5785H148.973V52.4807Z" fill="white"/>
<path d="M155.705 52.48H154.608V53.5777H155.705V52.48Z" fill="white"/>
<path d="M158.399 52.4785H157.301V53.5763H158.399V52.4785Z" fill="white"/>
<path d="M157.054 52.48H155.956V53.5777H157.054V52.48Z" fill="white"/>
<path d="M154.361 52.4792H153.263V53.577H154.361V52.4792Z" fill="white"/>
<path d="M143.586 53.821H142.489V54.9188H143.586V53.821Z" fill="white"/>
<path d="M157.049 53.8181H155.951V54.9159H157.049V53.8181Z" fill="white"/>
<path d="M159.748 53.8181H158.65V54.9159H159.748V53.8181Z" fill="white"/>
<path d="M158.395 53.8181H157.297V54.9159H158.395V53.8181Z" fill="white"/>
<path d="M144.941 53.8203H143.844V54.9181H144.941V53.8203Z" fill="white"/>
<path d="M147.63 53.8203H146.532V54.9181H147.63V53.8203Z" fill="white"/>
<path d="M150.319 53.8203H149.221V54.9181H150.319V53.8203Z" fill="white"/>
<path d="M148.976 53.8203H147.878V54.9181H148.976V53.8203Z" fill="white"/>
<path d="M146.283 53.821H145.185V54.9188H146.283V53.821Z" fill="white"/>
<path d="M153.015 53.8174H151.917V54.9151H153.015V53.8174Z" fill="white"/>
<path d="M155.711 53.8174H154.613V54.9151H155.711V53.8174Z" fill="white"/>
<path d="M154.363 53.8203H153.265V54.9181H154.363V53.8203Z" fill="white"/>
<path d="M151.667 53.8174H150.57V54.9151H151.667V53.8174Z" fill="white"/>
<path d="M151.665 45.7959H150.567V46.8937H151.665V45.7959Z" fill="white"/>
<path d="M154.364 45.7959H153.266V46.8937H154.364V45.7959Z" fill="white"/>
<path d="M153.012 45.7959H151.914V46.8937H153.012V45.7959Z" fill="white"/>
<path d="M142.241 45.7959H141.143V46.8937H142.241V45.7959Z" fill="white"/>
<path d="M144.932 45.7935H143.834V46.8912H144.932V45.7935Z" fill="white"/>
<path d="M143.585 45.7959H142.487V46.8937H143.585V45.7959Z" fill="white"/>
<path d="M140.892 45.7942H139.794V46.8919H140.892V45.7942Z" fill="white"/>
<path d="M147.631 45.7974H146.533V46.8951H147.631V45.7974Z" fill="white"/>
<path d="M150.327 45.7952H149.229V46.8929H150.327V45.7952Z" fill="white"/>
<path d="M148.979 45.7974H147.881V46.8951H148.979V45.7974Z" fill="white"/>
<path d="M146.276 45.7927H145.179V46.8905H146.276V45.7927Z" fill="white"/>
<path d="M144.927 47.1323H143.829V48.2301H144.927V47.1323Z" fill="white"/>
<path d="M147.626 47.1323H146.528V48.2301H147.626V47.1323Z" fill="white"/>
<path d="M146.279 47.1323H145.182V48.2301H146.279V47.1323Z" fill="white"/>
<path d="M140.893 47.1348H139.795V48.2325H140.893V47.1348Z" fill="white"/>
<path d="M143.585 47.1331H142.487V48.2308H143.585V47.1331Z" fill="white"/>
<path d="M142.241 47.1348H141.143V48.2325H142.241V47.1348Z" fill="white"/>
<path d="M142.236 48.4705H141.138V49.5682H142.236V48.4705Z" fill="white"/>
<path d="M144.934 48.4705H143.836V49.5682H144.934V48.4705Z" fill="white"/>
<path d="M143.581 48.4705H142.483V49.5682H143.581V48.4705Z" fill="white"/>
<path d="M151.664 29.7109H150.566V30.8087H151.664V29.7109Z" fill="white"/>
<path d="M154.362 29.7109H153.264V30.8087H154.362V29.7109Z" fill="white"/>
<path d="M153.009 29.7109H151.912V30.8087H153.009V29.7109Z" fill="white"/>
<path d="M139.55 29.7095H138.452V30.8072H139.55V29.7095Z" fill="white"/>
<path d="M142.239 29.7102H141.141V30.808H142.239V29.7102Z" fill="white"/>
<path d="M144.928 29.7102H143.831V30.808H144.928V29.7102Z" fill="white"/>
<path d="M143.585 29.7102H142.487V30.808H143.585V29.7102Z" fill="white"/>
<path d="M140.892 29.7102H139.794V30.808H140.892V29.7102Z" fill="white"/>
<path d="M147.629 29.7124H146.531V30.8102H147.629V29.7124Z" fill="white"/>
<path d="M150.325 29.7102H149.227V30.808H150.325V29.7102Z" fill="white"/>
<path d="M148.977 29.7124H147.879V30.8102H148.977V29.7124Z" fill="white"/>
<path d="M146.29 29.7095H145.192V30.8072H146.29V29.7095Z" fill="white"/>
<path d="M157.056 28.3767H155.958V29.4745H157.056V28.3767Z" fill="white"/>
<path d="M158.404 28.3767H157.306V29.4745H158.404V28.3767Z" fill="white"/>
<path d="M155.71 28.3767H154.612V29.4745H155.71V28.3767Z" fill="white"/>
<path d="M171.854 28.3745H170.756V29.4723H171.854V28.3745Z" fill="white"/>
<path d="M159.751 28.373H158.653V29.4708H159.751V28.373Z" fill="white"/>
<path d="M162.441 28.3752H161.344V29.473H162.441V28.3752Z" fill="white"/>
<path d="M165.13 28.373H164.032V29.4708H165.13V28.373Z" fill="white"/>
<path d="M163.782 28.373H162.685V29.4708H163.782V28.373Z" fill="white"/>
<path d="M161.095 28.3752H159.997V29.473H161.095V28.3752Z" fill="white"/>
<path d="M167.816 28.376H166.718V29.4737H167.816V28.376Z" fill="white"/>
<path d="M170.512 28.373H169.414V29.4708H170.512V28.373Z" fill="white"/>
<path d="M169.164 28.376H168.066V29.4737H169.164V28.376Z" fill="white"/>
<path d="M166.477 28.373H165.379V29.4708H166.477V28.373Z" fill="white"/>
<path d="M157.055 25.6975H155.958V26.7953H157.055V25.6975Z" fill="white"/>
<path d="M158.402 25.6975H157.304V26.7953H158.402V25.6975Z" fill="white"/>
<path d="M155.709 25.6968H154.611V26.7945H155.709V25.6968Z" fill="white"/>
<path d="M171.85 25.6985H170.753V26.7962H171.85V25.6985Z" fill="white"/>
<path d="M174.549 25.6985H173.451V26.7962H174.549V25.6985Z" fill="white"/>
<path d="M173.197 25.6985H172.099V26.7962H173.197V25.6985Z" fill="white"/>
<path d="M159.751 25.6968H158.653V26.7945H159.751V25.6968Z" fill="white"/>
<path d="M162.439 25.6975H161.341V26.7953H162.439V25.6975Z" fill="white"/>
<path d="M165.13 25.6975H164.032V26.7953H165.13V25.6975Z" fill="white"/>
<path d="M163.786 25.6975H162.688V26.7953H163.786V25.6975Z" fill="white"/>
<path d="M161.093 25.6975H159.995V26.7953H161.093V25.6975Z" fill="white"/>
<path d="M167.816 25.7007H166.718V26.7984H167.816V25.7007Z" fill="white"/>
<path d="M170.512 25.6968H169.414V26.7945H170.512V25.6968Z" fill="white"/>
<path d="M169.164 25.7007H168.067V26.7984H169.164V25.7007Z" fill="white"/>
<path d="M166.477 25.6968H165.379V26.7945H166.477V25.6968Z" fill="white"/>
<path d="M157.054 27.0378H155.956V28.1356H157.054V27.0378Z" fill="white"/>
<path d="M158.402 27.0378H157.304V28.1356H158.402V27.0378Z" fill="white"/>
<path d="M155.708 27.0378H154.61V28.1356H155.708V27.0378Z" fill="white"/>
<path d="M171.847 27.0349H170.75V28.1327H171.847V27.0349Z" fill="white"/>
<path d="M159.748 27.0334H158.651V28.1312H159.748V27.0334Z" fill="white"/>
<path d="M162.439 27.0356H161.341V28.1334H162.439V27.0356Z" fill="white"/>
<path d="M165.127 27.0334H164.03V28.1312H165.127V27.0334Z" fill="white"/>
<path d="M163.78 27.0334H162.682V28.1312H163.78V27.0334Z" fill="white"/>
<path d="M161.093 27.0356H159.995V28.1334H161.093V27.0356Z" fill="white"/>
<path d="M167.813 27.0371H166.716V28.1349H167.813V27.0371Z" fill="white"/>
<path d="M170.509 27.0334H169.411V28.1312H170.509V27.0334Z" fill="white"/>
<path d="M169.161 27.0371H168.064V28.1349H169.161V27.0371Z" fill="white"/>
<path d="M166.475 27.0334H165.377V28.1312H166.475V27.0334Z" fill="white"/>
<path d="M157.052 23.0193H155.955V24.117H157.052V23.0193Z" fill="white"/>
<path d="M158.399 23.0193H157.301V24.117H158.399V23.0193Z" fill="white"/>
<path d="M155.706 23.0186H154.608V24.1163H155.706V23.0186Z" fill="white"/>
<path d="M171.847 23.0193H170.75V24.117H171.847V23.0193Z" fill="white"/>
<path d="M174.546 23.0193H173.449V24.117H174.546V23.0193Z" fill="white"/>
<path d="M173.194 23.0193H172.096V24.117H173.194V23.0193Z" fill="white"/>
<path d="M159.748 23.0186H158.651V24.1163H159.748V23.0186Z" fill="white"/>
<path d="M162.437 23.0186H161.339V24.1163H162.437V23.0186Z" fill="white"/>
<path d="M165.127 23.0186H164.029V24.1163H165.127V23.0186Z" fill="white"/>
<path d="M163.783 23.0186H162.685V24.1163H163.783V23.0186Z" fill="white"/>
<path d="M161.09 23.0186H159.992V24.1163H161.09V23.0186Z" fill="white"/>
<path d="M167.813 23.0215H166.716V24.1192H167.813V23.0215Z" fill="white"/>
<path d="M170.508 23.0186H169.411V24.1163H170.508V23.0186Z" fill="white"/>
<path d="M169.161 23.0215H168.064V24.1192H169.161V23.0215Z" fill="white"/>
<path d="M166.475 23.0186H165.377V24.1163H166.475V23.0186Z" fill="white"/>
<path d="M157.054 24.3625H155.956V25.4603H157.054V24.3625Z" fill="white"/>
<path d="M158.402 24.3625H157.304V25.4603H158.402V24.3625Z" fill="white"/>
<path d="M155.708 24.3625H154.61V25.4603H155.708V24.3625Z" fill="white"/>
<path d="M171.847 24.3596H170.75V25.4574H171.847V24.3596Z" fill="white"/>
<path d="M174.546 24.3596H173.449V25.4574H174.546V24.3596Z" fill="white"/>
<path d="M173.194 24.3596H172.096V25.4574H173.194V24.3596Z" fill="white"/>
<path d="M159.748 24.3589H158.651V25.4566H159.748V24.3589Z" fill="white"/>
<path d="M162.439 24.3611H161.341V25.4588H162.439V24.3611Z" fill="white"/>
<path d="M165.127 24.3589H164.03V25.4566H165.127V24.3589Z" fill="white"/>
<path d="M163.78 24.3589H162.682V25.4566H163.78V24.3589Z" fill="white"/>
<path d="M161.093 24.3611H159.995V25.4588H161.093V24.3611Z" fill="white"/>
<path d="M167.813 24.3618H166.716V25.4596H167.813V24.3618Z" fill="white"/>
<path d="M170.509 24.3589H169.411V25.4566H170.509V24.3589Z" fill="white"/>
<path d="M169.161 24.3618H168.064V25.4596H169.161V24.3618Z" fill="white"/>
<path d="M166.475 24.3589H165.377V25.4566H166.475V24.3589Z" fill="white"/>
<path d="M157.052 21.679H155.955V22.7767H157.052V21.679Z" fill="white"/>
<path d="M158.399 21.679H157.301V22.7767H158.399V21.679Z" fill="white"/>
<path d="M155.706 21.6782H154.608V22.776H155.706V21.6782Z" fill="white"/>
<path d="M171.847 21.679H170.75V22.7767H171.847V21.679Z" fill="white"/>
<path d="M174.546 21.679H173.449V22.7767H174.546V21.679Z" fill="white"/>
<path d="M173.194 21.679H172.096V22.7767H173.194V21.679Z" fill="white"/>
<path d="M159.748 21.6782H158.651V22.776H159.748V21.6782Z" fill="white"/>
<path d="M162.437 21.6804H161.34V22.7782H162.437V21.6804Z" fill="white"/>
<path d="M165.127 21.6782H164.029V22.776H165.127V21.6782Z" fill="white"/>
<path d="M163.783 21.6782H162.685V22.776H163.783V21.6782Z" fill="white"/>
<path d="M161.092 21.6804H159.994V22.7782H161.092V21.6804Z" fill="white"/>
<path d="M167.813 21.6812H166.716V22.7789H167.813V21.6812Z" fill="white"/>
<path d="M170.508 21.6782H169.411V22.776H170.508V21.6782Z" fill="white"/>
<path d="M169.161 21.6812H168.064V22.7789H169.161V21.6812Z" fill="white"/>
<path d="M166.475 21.6782H165.377V22.776H166.475V21.6782Z" fill="white"/>
<path d="M157.052 19.0012H155.955V20.099H157.052V19.0012Z" fill="white"/>
<path d="M158.399 19.002H157.301V20.0997H158.399V19.002Z" fill="white"/>
<path d="M155.707 19.0012H154.609V20.099H155.707V19.0012Z" fill="white"/>
<path d="M159.748 19.0012H158.651V20.099H159.748V19.0012Z" fill="white"/>
<path d="M162.437 19.0012H161.339V20.099H162.437V19.0012Z" fill="white"/>
<path d="M165.127 19.0012H164.029V20.099H165.127V19.0012Z" fill="white"/>
<path d="M163.783 19.0012H162.685V20.099H163.783V19.0012Z" fill="white"/>
<path d="M161.09 19.0012H159.992V20.099H161.09V19.0012Z" fill="white"/>
<path d="M167.816 19.002H166.719V20.0997H167.816V19.002Z" fill="white"/>
<path d="M169.161 19.0044H168.064V20.1021H169.161V19.0044Z" fill="white"/>
<path d="M166.475 19.0012H165.377V20.099H166.475V19.0012Z" fill="white"/>
<path d="M157.054 20.343H155.956V21.4408H157.054V20.343Z" fill="white"/>
<path d="M158.402 20.343H157.304V21.4408H158.402V20.343Z" fill="white"/>
<path d="M155.707 20.3394H154.609V21.4371H155.707V20.3394Z" fill="white"/>
<path d="M171.847 20.3401H170.75V21.4378H171.847V20.3401Z" fill="white"/>
<path d="M159.748 20.3394H158.651V21.4371H159.748V20.3394Z" fill="white"/>
<path d="M162.439 20.3408H161.341V21.4386H162.439V20.3408Z" fill="white"/>
<path d="M165.127 20.3394H164.03V21.4371H165.127V20.3394Z" fill="white"/>
<path d="M163.78 20.3394H162.682V21.4371H163.78V20.3394Z" fill="white"/>
<path d="M161.093 20.3408H159.995V21.4386H161.093V20.3408Z" fill="white"/>
<path d="M167.813 20.3423H166.716V21.44H167.813V20.3423Z" fill="white"/>
<path d="M170.509 20.3394H169.411V21.4371H170.509V20.3394Z" fill="white"/>
<path d="M169.161 20.3423H168.064V21.44H169.161V20.3423Z" fill="white"/>
<path d="M166.475 20.3394H165.377V21.4371H166.475V20.3394Z" fill="white"/>
<path d="M150.328 17.6655H149.23V18.7633H150.328V17.6655Z" fill="#BDBEC1"/>
<path d="M151.674 17.6655H150.577V18.7633H151.674V17.6655Z" fill="white"/>
<path d="M148.981 17.6655H147.884V18.7633H148.981V17.6655Z" fill="#BDBEC1"/>
<path d="M165.128 17.6655H164.03V18.7633H165.128V17.6655Z" fill="white"/>
<path d="M167.817 17.6648H166.719V18.7625H167.817V17.6648Z" fill="white"/>
<path d="M166.474 17.6655H165.376V18.7633H166.474V17.6655Z" fill="white"/>
<path d="M153.024 17.6655H151.926V18.7633H153.024V17.6655Z" fill="white"/>
<path d="M155.712 17.6655H154.614V18.7633H155.712V17.6655Z" fill="white"/>
<path d="M158.402 17.6655H157.304V18.7633H158.402V17.6655Z" fill="white"/>
<path d="M157.059 17.6655H155.961V18.7633H157.059V17.6655Z" fill="white"/>
<path d="M154.36 17.6624H153.263V18.7601H154.36V17.6624Z" fill="white"/>
<path d="M161.093 17.6655H159.996V18.7633H161.093V17.6655Z" fill="white"/>
<path d="M163.784 17.6655H162.686V18.7633H163.784V17.6655Z" fill="white"/>
<path d="M162.437 17.6677H161.339V18.7655H162.437V17.6677Z" fill="white"/>
<path d="M159.75 17.6655H158.652V18.7633H159.75V17.6655Z" fill="white"/>
<path d="M150.319 14.9773H149.222V16.075H150.319V14.9773Z" fill="#BDBEC1"/>
<path d="M151.668 14.981H150.57V16.0787H151.668V14.981Z" fill="#BDBEC1"/>
<path d="M148.974 14.9802H147.876V16.078H148.974V14.9802Z" fill="#BDBEC1"/>
<path d="M165.129 14.981H164.031V16.0787H165.129V14.981Z" fill="white"/>
<path d="M166.474 14.981H165.376V16.0787H166.474V14.981Z" fill="white"/>
<path d="M153.012 14.9824H151.915V16.0802H153.012V14.9824Z" fill="#B7BCBE"/>
<path d="M155.707 14.9834H154.609V16.0811H155.707V14.9834Z" fill="white"/>
<path d="M158.4 14.9824H157.302V16.0802H158.4V14.9824Z" fill="white"/>
<path d="M157.053 14.9834H155.955V16.0811H157.053V14.9834Z" fill="white"/>
<path d="M154.361 14.9817H153.263V16.0794H154.361V14.9817Z" fill="white"/>
<path d="M161.093 14.9802H159.995V16.078H161.093V14.9802Z" fill="white"/>
<path d="M163.784 14.9795H162.686V16.0772H163.784V14.9795Z" fill="white"/>
<path d="M162.437 14.9802H161.34V16.078H162.437V14.9802Z" fill="white"/>
<path d="M159.747 14.9795H158.649V16.0772H159.747V14.9795Z" fill="white"/>
<path d="M150.319 16.3313H149.222V17.4291H150.319V16.3313Z" fill="#BDBEC1"/>
<path d="M151.677 16.3298H150.579V17.4276H151.677V16.3298Z" fill="#B7BCBE"/>
<path d="M148.972 16.3252H147.874V17.4229H148.972V16.3252Z" fill="#BDBEC1"/>
<path d="M165.127 16.3259H164.029V17.4237H165.127V16.3259Z" fill="white"/>
<path d="M166.473 16.3259H165.375V17.4237H166.473V16.3259Z" fill="white"/>
<path d="M153.022 16.3252H151.925V17.4229H153.022V16.3252Z" fill="white"/>
<path d="M155.713 16.3274H154.615V17.4251H155.713V16.3274Z" fill="white"/>
<path d="M158.402 16.3252H157.304V17.4229H158.402V16.3252Z" fill="white"/>
<path d="M157.054 16.3252H155.956V17.4229H157.054V16.3252Z" fill="white"/>
<path d="M154.367 16.3274H153.269V17.4251H154.367V16.3274Z" fill="white"/>
<path d="M161.093 16.3245H159.995V17.4222H161.093V16.3245Z" fill="white"/>
<path d="M163.783 16.3259H162.685V17.4237H163.783V16.3259Z" fill="white"/>
<path d="M162.437 16.3267H161.34V17.4244H162.437V16.3267Z" fill="white"/>
<path d="M159.749 16.3252H158.651V17.4229H159.749V16.3252Z" fill="white"/>
<path d="M151.664 28.3745H150.566V29.4723H151.664V28.3745Z" fill="white"/>
<path d="M154.362 28.3745H153.264V29.4723H154.362V28.3745Z" fill="white"/>
<path d="M153.009 28.3745H151.912V29.4723H153.009V28.3745Z" fill="white"/>
<path d="M142.239 28.3752H141.141V29.473H142.239V28.3752Z" fill="white"/>
<path d="M144.931 28.3752H143.834V29.473H144.931V28.3752Z" fill="white"/>
<path d="M143.585 28.376H142.487V29.4737H143.585V28.376Z" fill="white"/>
<path d="M147.625 28.3782H146.527V29.4759H147.625V28.3782Z" fill="white"/>
<path d="M150.322 28.376H149.224V29.4737H150.322V28.376Z" fill="white"/>
<path d="M148.973 28.376H147.875V29.4737H148.973V28.376Z" fill="white"/>
<path d="M146.279 28.376H145.181V29.4737H146.279V28.376Z" fill="white"/>
<path d="M151.667 27.0378H150.57V28.1356H151.667V27.0378Z" fill="white"/>
<path d="M154.366 27.0378H153.269V28.1356H154.366V27.0378Z" fill="white"/>
<path d="M153.014 27.0378H151.916V28.1356H153.014V27.0378Z" fill="white"/>
<path d="M139.546 27.0378H138.448V28.1356H139.546V27.0378Z" fill="#BDBEC1"/>
<path d="M142.239 27.0378H141.141V28.1356H142.239V27.0378Z" fill="white"/>
<path d="M144.932 27.0378H143.834V28.1356H144.932V27.0378Z" fill="white"/>
<path d="M143.585 27.0378H142.487V28.1356H143.585V27.0378Z" fill="white"/>
<path d="M140.892 27.0378H139.794V28.1356H140.892V27.0378Z" fill="white"/>
<path d="M147.626 27.0378H146.528V28.1356H147.626V27.0378Z" fill="white"/>
<path d="M150.32 27.0378H149.222V28.1356H150.32V27.0378Z" fill="white"/>
<path d="M148.973 27.0378H147.875V28.1356H148.973V27.0378Z" fill="white"/>
<path d="M146.279 27.0378H145.182V28.1356H146.279V27.0378Z" fill="white"/>
<path d="M151.667 25.7007H150.57V26.7984H151.667V25.7007Z" fill="white"/>
<path d="M154.35 25.7014H153.253V26.7992H154.35V25.7014Z" fill="white"/>
<path d="M153.013 25.7007H151.915V26.7984H153.013V25.7007Z" fill="white"/>
<path d="M139.546 25.7007H138.448V26.7984H139.546V25.7007Z" fill="#BDBEC1"/>
<path d="M142.238 25.7007H141.14V26.7984H142.238V25.7007Z" fill="white"/>
<path d="M144.932 25.7007H143.834V26.7984H144.932V25.7007Z" fill="white"/>
<path d="M143.585 25.7007H142.487V26.7984H143.585V25.7007Z" fill="white"/>
<path d="M140.892 25.6992H139.794V26.797H140.892V25.6992Z" fill="#BDBEC1"/>
<path d="M147.626 25.7H146.528V26.7977H147.626V25.7Z" fill="white"/>
<path d="M150.321 25.7007H149.223V26.7984H150.321V25.7007Z" fill="white"/>
<path d="M148.965 25.7036H147.868V26.8014H148.965V25.7036Z" fill="white"/>
<path d="M146.279 25.7007H145.181V26.7984H146.279V25.7007Z" fill="white"/>
<path d="M151.664 24.3604H150.567V25.4581H151.664V24.3604Z" fill="white"/>
<path d="M154.361 24.364H153.263V25.4618H154.361V24.364Z" fill="white"/>
<path d="M153.015 24.3625H151.918V25.4603H153.015V24.3625Z" fill="white"/>
<path d="M139.547 24.3611H138.449V25.4588H139.547V24.3611Z" fill="#BDBEC1"/>
<path d="M142.238 24.3633H141.14V25.461H142.238V24.3633Z" fill="#BDBEC1"/>
<path d="M144.932 24.3633H143.834V25.461H144.932V24.3633Z" fill="white"/>
<path d="M143.585 24.3633H142.487V25.461H143.585V24.3633Z" fill="#BDBEC1"/>
<path d="M140.892 24.3604H139.794V25.4581H140.892V24.3604Z" fill="#BDBEC1"/>
<path d="M147.626 24.3633H146.528V25.461H147.626V24.3633Z" fill="white"/>
<path d="M150.321 24.3633H149.223V25.461H150.321V24.3633Z" fill="white"/>
<path d="M148.974 24.3633H147.876V25.461H148.974V24.3633Z" fill="white"/>
<path d="M146.279 24.3625H145.182V25.4603H146.279V24.3625Z" fill="white"/>
<path d="M151.669 23.0186H150.571V24.1163H151.669V23.0186Z" fill="white"/>
<path d="M154.36 23.0193H153.263V24.117H154.36V23.0193Z" fill="white"/>
<path d="M153.014 23.02H151.916V24.1178H153.014V23.02Z" fill="white"/>
<path d="M139.546 23.0186H138.449V24.1163H139.546V23.0186Z" fill="#BDBEC1"/>
<path d="M142.239 23.0186H141.141V24.1163H142.239V23.0186Z" fill="#BDBEC1"/>
<path d="M144.932 23.0193H143.834V24.117H144.932V23.0193Z" fill="#BDBEC1"/>
<path d="M143.585 23.0208H142.487V24.1185H143.585V23.0208Z" fill="#BDBEC1"/>
<path d="M140.893 23.0215H139.795V24.1192H140.893V23.0215Z" fill="#BDBEC1"/>
<path d="M147.615 23.0237H146.517V24.1214H147.615V23.0237Z" fill="white"/>
<path d="M150.322 23.0208H149.224V24.1185H150.322V23.0208Z" fill="white"/>
<path d="M148.964 23.0237H147.866V24.1214H148.964V23.0237Z" fill="white"/>
<path d="M146.276 23.0208H145.179V24.1185H146.276V23.0208Z" fill="white"/>
<path d="M151.664 21.6819H150.566V22.7796H151.664V21.6819Z" fill="white"/>
<path d="M154.361 21.6782H153.263V22.776H154.361V21.6782Z" fill="white"/>
<path d="M153.014 21.6804H151.916V22.7782H153.014V21.6804Z" fill="white"/>
<path d="M139.546 21.6782H138.449V22.776H139.546V21.6782Z" fill="#BDBEC1"/>
<path d="M142.239 21.6782H141.141V22.776H142.239V21.6782Z" fill="#BDBEC1"/>
<path d="M144.932 21.6782H143.834V22.776H144.932V21.6782Z" fill="#BDBEC1"/>
<path d="M143.585 21.6782H142.487V22.776H143.585V21.6782Z" fill="#BDBEC1"/>
<path d="M140.892 21.6826H139.794V22.7804H140.892V21.6826Z" fill="#BDBEC1"/>
<path d="M147.629 21.6833H146.531V22.7811H147.629V21.6833Z" fill="white"/>
<path d="M150.325 21.6804H149.227V22.7782H150.325V21.6804Z" fill="white"/>
<path d="M148.977 21.6833H147.879V22.7811H148.977V21.6833Z" fill="white"/>
<path d="M146.29 21.6804H145.192V22.7782H146.29V21.6804Z" fill="#BDBEC1"/>
<path d="M151.658 20.3408H150.56V21.4386H151.658V20.3408Z" fill="white"/>
<path d="M154.361 20.3408H153.263V21.4386H154.361V20.3408Z" fill="white"/>
<path d="M153.014 20.3408H151.916V21.4386H153.014V20.3408Z" fill="white"/>
<path d="M139.546 20.3394H138.449V21.4371H139.546V20.3394Z" fill="#BDBEC1"/>
<path d="M142.242 20.3386H141.144V21.4364H142.242V20.3386Z" fill="#BDBEC1"/>
<path d="M144.937 20.3401H143.839V21.4378H144.937V20.3401Z" fill="#BDBEC1"/>
<path d="M143.589 20.3416H142.491V21.4393H143.589V20.3416Z" fill="#BDBEC1"/>
<path d="M140.892 20.3394H139.794V21.4371H140.892V20.3394Z" fill="#BDBEC1"/>
<path d="M147.623 20.3423H146.525V21.44H147.623V20.3423Z" fill="#BDBEC1"/>
<path d="M150.319 20.3401H149.221V21.4378H150.319V20.3401Z" fill="white"/>
<path d="M148.971 20.3423H147.873V21.44H148.971V20.3423Z" fill="white"/>
<path d="M146.284 20.3401H145.186V21.4378H146.284V20.3401Z" fill="#BDBEC1"/>
<path d="M151.649 18.9983H150.551V20.096H151.649V18.9983Z" fill="white"/>
<path d="M154.363 19.0027H153.265V20.1004H154.363V19.0027Z" fill="white"/>
<path d="M153.015 19.0027H151.917V20.1004H153.015V19.0027Z" fill="white"/>
<path d="M139.546 19.0012H138.449V20.099H139.546V19.0012Z" fill="#BDBEC1"/>
<path d="M142.243 19.002H141.145V20.0997H142.243V19.002Z" fill="#BDBEC1"/>
<path d="M144.94 18.9973H143.842V20.0951H144.94V18.9973Z" fill="#BDBEC1"/>
<path d="M143.591 19.002H142.493V20.0997H143.591V19.002Z" fill="#BDBEC1"/>
<path d="M140.894 19.002H139.797V20.0997H140.894V19.002Z" fill="#BDBEC1"/>
<path d="M147.627 19.0005H146.529V20.0982H147.627V19.0005Z" fill="#BDBEC1"/>
<path d="M150.321 19.0012H149.223V20.099H150.321V19.0012Z" fill="white"/>
<path d="M148.973 19.0012H147.875V20.099H148.973V19.0012Z" fill="white"/>
<path d="M146.288 18.9983H145.19V20.096H146.288V18.9983Z" fill="#BDBEC1"/>
<path d="M144.931 17.6648H143.834V18.7625H144.931V17.6648Z" fill="#BDBEC1"/>
<path d="M147.624 17.6648H146.526V18.7625H147.624V17.6648Z" fill="#BDBEC1"/>
<path d="M146.278 17.667H145.18V18.7647H146.278V17.667Z" fill="#BDBEC1"/>
<path d="M140.894 17.6663H139.796V18.764H140.894V17.6663Z" fill="#BDBEC1"/>
<path d="M143.586 17.6641H142.488V18.7618H143.586V17.6641Z" fill="#BDBEC1"/>
<path d="M142.239 17.667H141.142V18.7647H142.239V17.667Z" fill="#BDBEC1"/>
<path d="M139.547 17.667H138.449V18.7647H139.547V17.667Z" fill="#BDBEC1"/>
<path d="M144.932 16.3259H143.834V17.4237H144.932V16.3259Z" fill="#BDBEC1"/>
<path d="M147.626 16.322H146.528V17.4198H147.626V16.322Z" fill="#BDBEC1"/>
<path d="M146.279 16.3281H145.182V17.4259H146.279V16.3281Z" fill="#BDBEC1"/>
<path d="M140.894 16.3281H139.796V17.4259H140.894V16.3281Z" fill="#BDBEC1"/>
<path d="M143.586 16.3252H142.489V17.4229H143.586V16.3252Z" fill="#BDBEC1"/>
<path d="M142.24 16.3281H141.142V17.4259H142.24V16.3281Z" fill="#BDBEC1"/>
<path d="M139.547 16.3281H138.449V17.4259H139.547V16.3281Z" fill="#BDBEC1"/>
<path d="M140.889 31.0491H139.791V32.1468H140.889V31.0491Z" fill="white"/>
<path d="M142.236 31.0491H141.138V32.1468H142.236V31.0491Z" fill="white"/>
<path d="M139.543 31.0483H138.446V32.1461H139.543V31.0483Z" fill="white"/>
<path d="M140.892 49.8047H139.794V50.9024H140.892V49.8047Z" fill="white"/>
<path d="M142.238 49.8047H141.14V50.9024H142.238V49.8047Z" fill="white"/>
<path d="M140.892 51.1418H139.794V52.2396H140.892V51.1418Z" fill="white"/>
<path d="M142.238 51.1418H141.14V52.2396H142.238V51.1418Z" fill="white"/>
<path d="M146.282 55.1577H145.185V56.2555H146.282V55.1577Z" fill="white"/>
<path d="M147.632 55.1567H146.534V56.2545H147.632V55.1567Z" fill="white"/>
<path d="M150.32 55.1567H149.222V56.2545H150.32V55.1567Z" fill="white"/>
<path d="M153.014 55.1577H151.916V56.2555H153.014V55.1577Z" fill="white"/>
<path d="M151.667 55.1567H150.569V56.2545H151.667V55.1567Z" fill="white"/>
<path d="M148.974 55.1577H147.876V56.2555H148.974V55.1577Z" fill="white"/>
<path d="M155.708 55.1567H154.61V56.2545H155.708V55.1567Z" fill="white"/>
<path d="M158.402 55.1577H157.304V56.2555H158.402V55.1577Z" fill="white"/>
<path d="M157.054 55.1567H155.956V56.2545H157.054V55.1567Z" fill="white"/>
<path d="M154.358 55.1567H153.26V56.2545H154.358V55.1567Z" fill="white"/>
<path d="M146.282 56.4956H145.185V57.5934H146.282V56.4956Z" fill="white"/>
<path d="M147.632 56.4949H146.534V57.5926H147.632V56.4949Z" fill="white"/>
<path d="M150.32 56.4949H149.222V57.5926H150.32V56.4949Z" fill="white"/>
<path d="M153.014 56.4949H151.916V57.5926H153.014V56.4949Z" fill="white"/>
<path d="M151.667 56.4949H150.57V57.5926H151.667V56.4949Z" fill="white"/>
<path d="M148.974 56.4949H147.876V57.5926H148.974V56.4949Z" fill="white"/>
<path d="M155.708 56.4941H154.61V57.5919H155.708V56.4941Z" fill="white"/>
<path d="M157.054 56.4941H155.956V57.5919H157.054V56.4941Z" fill="white"/>
<path d="M154.363 56.4949H153.265V57.5926H154.363V56.4949Z" fill="white"/>
<path d="M147.634 57.833H146.536V58.9308H147.634V57.833Z" fill="white"/>
<path d="M150.323 57.833H149.225V58.9308H150.323V57.833Z" fill="white"/>
<path d="M153.014 57.8337H151.916V58.9315H153.014V57.8337Z" fill="white"/>
<path d="M151.667 57.8337H150.569V58.9315H151.667V57.8337Z" fill="white"/>
<path d="M148.976 57.8337H147.878V58.9315H148.976V57.8337Z" fill="white"/>
<path d="M155.708 57.8323H154.61V58.93H155.708V57.8323Z" fill="white"/>
<path d="M157.054 57.8323H155.956V58.93H157.054V57.8323Z" fill="white"/>
<path d="M154.361 57.8323H153.263V58.93H154.361V57.8323Z" fill="white"/>
<path d="M151.667 59.1733H150.57V60.2711H151.667V59.1733Z" fill="white"/>
<path d="M154.36 59.1741H153.262V60.2718H154.36V59.1741Z" fill="white"/>
<path d="M153.014 59.1726H151.916V60.2704H153.014V59.1726Z" fill="white"/>
<path d="M150.323 59.1741H149.225V60.2718H150.323V59.1741Z" fill="white"/>
<path d="M155.706 59.1733H154.608V60.2711H155.706V59.1733Z" fill="white"/>
<path d="M151.667 60.5105H150.57V61.6082H151.667V60.5105Z" fill="white"/>
<path d="M154.361 60.5115H153.263V61.6092H154.361V60.5115Z" fill="white"/>
<path d="M153.014 60.5105H151.916V61.6082H153.014V60.5105Z" fill="white"/>
<path d="M150.324 60.5122H149.226V61.61H150.324V60.5122Z" fill="white"/>
<path d="M153.014 61.8494H151.916V62.9471H153.014V61.8494Z" fill="white"/>
<path d="M146.279 14.9824H145.182V16.0802H146.279V14.9824Z" fill="#BDBEC1"/>
<path d="M147.627 14.9834H146.53V16.0811H147.627V14.9834Z" fill="#BDBEC1"/>
<path d="M144.933 14.9824H143.835V16.0802H144.933V14.9824Z" fill="#BDBEC1"/>
<path d="M150.319 13.6399H149.222V14.7369H150.319V13.6399Z" fill="#B7BCBE"/>
<path d="M151.668 13.6438H150.57V14.7416H151.668V13.6438Z" fill="#B7BCBE"/>
<path d="M148.974 13.6428H147.876V14.7406H148.974V13.6428Z" fill="#B7BCBE"/>
<path d="M165.129 13.6438H164.031V14.7416H165.129V13.6438Z" fill="white"/>
<path d="M166.474 13.6438H165.376V14.7416H166.474V13.6438Z" fill="white"/>
<path d="M153.012 13.6453H151.915V14.743H153.012V13.6453Z" fill="#B7BCBE"/>
<path d="M155.707 13.646H154.609V14.7437H155.707V13.646Z" fill="#B7BCBE"/>
<path d="M158.4 13.6453H157.302V14.743H158.4V13.6453Z" fill="white"/>
<path d="M157.053 13.646H155.955V14.7437H157.053V13.646Z" fill="#BDBEC1"/>
<path d="M154.361 13.6438H153.263V14.7416H154.361V13.6438Z" fill="#B7BCBE"/>
<path d="M161.093 13.6421H159.995V14.7398H161.093V13.6421Z" fill="white"/>
<path d="M163.784 13.6421H162.686V14.7398H163.784V13.6421Z" fill="white"/>
<path d="M162.437 13.6421H161.34V14.7398H162.437V13.6421Z" fill="white"/>
<path d="M159.747 13.6421H158.649V14.7398H159.747V13.6421Z" fill="white"/>
<path d="M146.279 13.6453H145.182V14.743H146.279V13.6453Z" fill="#B7BCBE"/>
<path d="M147.627 13.646H146.53V14.7437H147.627V13.646Z" fill="#B7BCBE"/>
<path d="M144.933 13.6453H143.835V14.743H144.933V13.6453Z" fill="#BDBEC1"/>
<path d="M150.319 12.3035H149.222V13.4012H150.319V12.3035Z" fill="#BDBEC1"/>
<path d="M151.668 12.3064H150.57V13.4041H151.668V12.3064Z" fill="#BDBEC1"/>
<path d="M148.974 12.3057H147.876V13.4034H148.974V12.3057Z" fill="#BDBEC1"/>
<path d="M165.129 12.3064H164.031V13.4041H165.129V12.3064Z" fill="white"/>
<path d="M153.012 12.3086H151.915V13.4063H153.012V12.3086Z" fill="#BDBEC1"/>
<path d="M155.707 12.3086H154.609V13.4063H155.707V12.3086Z" fill="#BDBEC1"/>
<path d="M158.402 12.3049H157.304V13.4027H158.402V12.3049Z" fill="#BDBEC1"/>
<path d="M157.053 12.3096H155.955V13.4073H157.053V12.3096Z" fill="#BDBEC1"/>
<path d="M154.361 12.3071H153.263V13.4049H154.361V12.3071Z" fill="#BDBEC1"/>
<path d="M161.093 12.3057H159.995V13.4034H161.093V12.3057Z" fill="white"/>
<path d="M163.784 12.3057H162.686V13.4034H163.784V12.3057Z" fill="white"/>
<path d="M162.437 12.3057H161.34V13.4034H162.437V12.3057Z" fill="white"/>
<path d="M159.747 12.3049H158.649V13.4027H159.747V12.3049Z" fill="white"/>
<path d="M146.279 12.3086H145.182V13.4063H146.279V12.3086Z" fill="#BDBEC1"/>
<path d="M147.627 12.3096H146.53V13.4073H147.627V12.3096Z" fill="#BDBEC1"/>
<path d="M144.933 12.3086H143.835V13.4063H144.933V12.3086Z" fill="#BDBEC1"/>
<path d="M151.667 10.9683H150.57V12.066H151.667V10.9683Z" fill="#BDBEC1"/>
<path d="M165.129 10.97H164.031V12.0677H165.129V10.97Z" fill="white"/>
<path d="M153.015 10.9683H151.917V12.066H153.015V10.9683Z" fill="#BDBEC1"/>
<path d="M155.707 10.9692H154.609V12.067H155.707V10.9692Z" fill="#BDBEC1"/>
<path d="M158.402 10.9683H157.304V12.066H158.402V10.9683Z" fill="#BDBEC1"/>
<path d="M157.053 10.9675H155.955V12.0653H157.053V10.9675Z" fill="#BDBEC1"/>
<path d="M154.362 10.9675H153.264V12.0653H154.362V10.9675Z" fill="#BDBEC1"/>
<path d="M161.093 10.9692H159.995V12.067H161.093V10.9692Z" fill="white"/>
<path d="M163.784 10.9692H162.686V12.067H163.784V10.9692Z" fill="white"/>
<path d="M162.437 10.9692H161.34V12.067H162.437V10.9692Z" fill="white"/>
<path d="M159.749 10.9675H158.651V12.0653H159.749V10.9675Z" fill="#BDBEC1"/>
<path d="M151.667 9.63184H150.57V10.7296H151.667V9.63184Z" fill="#BDBEC1"/>
<path d="M153.015 9.6311H151.917V10.7289H153.015V9.6311Z" fill="#BDBEC1"/>
<path d="M155.707 9.63184H154.609V10.7296H155.707V9.63184Z" fill="#BDBEC1"/>
<path d="M158.402 9.63184H157.304V10.7296H158.402V9.63184Z" fill="#BDBEC1"/>
<path d="M157.053 9.63037H155.955V10.7281H157.053V9.63037Z" fill="#BDBEC1"/>
<path d="M154.362 9.6311H153.264V10.7289H154.362V9.6311Z" fill="#BDBEC1"/>
<path d="M161.093 9.63257H159.995V10.7303H161.093V9.63257Z" fill="#BDBEC1"/>
<path d="M163.784 9.63184H162.686V10.7296H163.784V9.63184Z" fill="white"/>
<path d="M162.437 9.63184H161.34V10.7296H162.437V9.63184Z" fill="#BDBEC1"/>
<path d="M159.749 9.63037H158.651V10.7281H159.749V9.63037Z" fill="#BDBEC1"/>
<path d="M151.667 8.29297H150.57V9.39072H151.667V8.29297Z" fill="#BDBEC1"/>
<path d="M153.015 8.29224H151.917V9.38999H153.015V8.29224Z" fill="#BDBEC1"/>
<path d="M155.707 8.29297H154.609V9.39072H155.707V8.29297Z" fill="#BDBEC1"/>
<path d="M158.402 8.29224H157.304V9.38999H158.402V8.29224Z" fill="#BDBEC1"/>
<path d="M157.053 8.2915H155.955V9.38926H157.053V8.2915Z" fill="#BDBEC1"/>
<path d="M154.362 8.29224H153.264V9.38999H154.362V8.29224Z" fill="#BDBEC1"/>
<path d="M161.093 8.2937H159.995V9.39145H161.093V8.2937Z" fill="#BDBEC1"/>
<path d="M163.784 8.29297H162.686V9.39072H163.784V8.29297Z" fill="white"/>
<path d="M162.437 8.2937H161.34V9.39145H162.437V8.2937Z" fill="#BDBEC1"/>
<path d="M159.749 8.2915H158.651V9.38926H159.749V8.2915Z" fill="#BDBEC1"/>
<path d="M155.707 6.95654H154.609V8.05429H155.707V6.95654Z" fill="#BDBEC1"/>
<path d="M158.402 6.95581H157.304V8.05356H158.402V6.95581Z" fill="#BDBEC1"/>
<path d="M157.053 6.95508H155.955V8.05283H157.053V6.95508Z" fill="#BDBEC1"/>
<path d="M161.093 6.95654H159.995V8.05429H161.093V6.95654Z" fill="#BDBEC1"/>
<path d="M162.437 6.95654H161.34V8.05429H162.437V6.95654Z" fill="#BDBEC1"/>
<path d="M159.749 6.9541H158.651V8.05185H159.749V6.9541Z" fill="#BDBEC1"/>
<path d="M157.058 5.61694H155.96V6.71469H157.058V5.61694Z" fill="#BDBEC1"/>
<path d="M159.748 5.61841H158.651V6.71616H159.748V5.61841Z" fill="#BDBEC1"/>
<path d="M158.405 5.61621H157.307V6.71396H158.405V5.61621Z" fill="#BDBEC1"/>
<path d="M161.093 5.61841H159.996V6.71616H161.093V5.61841Z" fill="#BDBEC1"/>
<path d="M143.585 12.3049H142.487V13.4027H143.585V12.3049Z" fill="#BDBEC1"/>
<path d="M140.892 41.7778H139.794V42.8756H140.892V41.7778Z" fill="white"/>
<path d="M139.544 41.7786H138.446V42.8763H139.544V41.7786Z" fill="white"/>
<path d="M140.89 43.1145H139.792V44.2123H140.89V43.1145Z" fill="white"/>
<path d="M139.546 43.1145H138.448V44.2123H139.546V43.1145Z" fill="white"/>
<path d="M140.891 44.4563H139.794V45.5541H140.891V44.4563Z" fill="white"/>
<path d="M173.201 27.0403H172.103V28.138H173.201V27.0403Z" fill="white"/>
<path d="M173.201 28.373H172.103V29.4708H173.201V28.373Z" fill="white"/>
<path d="M174.55 29.7141H173.452V30.8119H174.55V29.7141Z" fill="white"/>
<path d="M175.898 40.4277H174.8V41.5255H175.898V40.4277Z" fill="white"/>
<path d="M175.898 41.7678H174.8V42.8656H175.898V41.7678Z" fill="white"/>
<path d="M173.202 44.4539H172.104V45.5516H173.202V44.4539Z" fill="white"/>
<path d="M170.508 45.8013H169.411V46.899H170.508V45.8013Z" fill="white"/>
<path d="M163.772 49.8054H162.674V50.9032H163.772V49.8054Z" fill="white"/>
<path d="M154.357 61.8494H153.26V62.9471H154.357V61.8494Z" fill="white"/>
<path d="M158.417 56.4934H157.319V57.5912H158.417V56.4934Z" fill="white"/>
<path d="M175.901 35.0601H174.803V36.1578H175.901V35.0601Z" fill="white"/>
<path d="M173.204 20.3416H172.106V21.4393H173.204V20.3416Z" fill="white"/>
<path d="M170.509 19.0044H169.411V20.1021H170.509V19.0044Z" fill="white"/>
<path d="M166.474 12.3064H165.376V13.4041H166.474V12.3064Z" fill="white"/>
<path d="M165.129 9.63184H164.031V10.7296H165.129V9.63184Z" fill="white"/>
<path d="M175.898 39.0742H174.8V40.172H175.898V39.0742Z" fill="white"/>
<path fill-rule="evenodd" clip-rule="evenodd" d="M174.8 33.6702H175.539L175.898 34.7672H174.8V33.6702Z" fill="white"/>
<path d="M175.93 23.0193H174.832V24.117H175.93V23.0193Z" fill="white"/>
<path fill-rule="evenodd" clip-rule="evenodd" d="M174.832 24.3604H175.93L175.563 25.4573H174.832V24.3604Z" fill="white"/>
<path d="M167.817 16.3259H166.719V17.4237H167.817V16.3259Z" fill="white"/>
<path fill-rule="evenodd" clip-rule="evenodd" d="M174.812 30.885H175.909L175.65 32.1468H174.812V30.885Z" fill="white"/>
<path fill-rule="evenodd" clip-rule="evenodd" d="M168.064 17.6648H168.818L169.161 18.7625H168.064V17.6648Z" fill="white"/>
<path fill-rule="evenodd" clip-rule="evenodd" d="M137.638 4.1988C137.638 4.1988 138.844 3.59004 138.928 3.55113C139.011 3.51222 140.212 3.01484 140.269 2.99348C141.099 2.69139 142.084 2.38548 143.108 2.15129C145.016 1.71417 147.203 1.59745 148.675 1.70502C150.475 1.83623 152.705 2.28936 154.981 3.19411C156.026 3.60987 157.64 4.41468 158.495 5.01658C159.253 5.55058 160.044 6.12501 160.372 6.3737C160.76 6.66893 161.655 7.4684 162.207 8.07487C162.8 8.72559 163.291 9.35113 163.476 9.59525C163.768 9.98201 164.569 11.1698 164.926 11.941C165.047 12.2027 165.172 12.4796 165.258 12.6635C165.429 13.0312 165.723 13.6903 165.931 14.325C166.302 15.4631 166.51 16.7028 166.575 17.0766C166.615 17.3009 166.632 17.5526 166.694 17.7113C166.835 18.0614 167.262 18.3719 167.594 18.5588L169.419 19.5902L172.643 21.3974C172.643 21.3974 174.049 22.3716 174.275 22.7911C174.502 23.21 174.655 23.374 174.677 23.7829C174.697 24.1918 174.439 24.6342 174.395 24.7151C174.351 24.7959 173.95 25.4985 173.668 25.8037C173.406 26.0882 172.875 26.5932 172.696 26.7534C172.518 26.9129 172.354 27.086 172.23 27.2729C172.107 27.4598 172.017 27.6414 171.933 27.7924C171.85 27.9435 171.822 28.0488 171.822 28.0488C171.822 28.0488 171.76 28.2387 171.77 28.3341C171.78 28.4294 171.774 28.5156 171.835 28.6728C171.896 28.8292 171.932 28.9024 172.07 29.045C172.103 29.0786 172.167 29.1518 172.278 29.2434C172.334 29.2907 172.391 29.3334 172.488 29.4005C172.56 29.4509 172.631 29.4936 172.701 29.5356C172.766 29.5745 172.83 29.6141 172.892 29.6653C173.046 29.7919 173.173 29.9178 173.325 30.0589C173.546 30.2641 173.748 30.4251 173.818 30.483C174.066 30.6882 174.392 30.9652 174.392 30.9652C174.392 30.9652 174.456 31.03 174.484 31.062C174.511 31.0941 174.533 31.1566 174.533 31.1566C174.533 31.1566 174.54 31.2116 174.533 31.2535C174.52 31.3268 174.507 31.403 174.48 31.4725C174.392 31.7036 174.27 31.8913 174.115 32.1247L174.005 32.3017L173.909 32.4665L173.812 32.6465L173.712 32.8754C173.712 32.8754 173.657 33.0295 173.648 33.0653C173.64 33.1019 173.601 33.3087 173.601 33.3468C173.601 33.3849 173.6 33.4521 173.6 33.4803C173.6 33.5093 173.606 33.5535 173.606 33.5535L173.611 33.5985L173.619 33.6443L173.629 33.6901L173.637 33.7206L173.647 33.7534L173.658 33.787L173.667 33.8129L173.692 33.8747L173.704 33.9014L173.72 33.9334L173.747 33.9838L173.772 34.0257L173.848 34.1333C173.848 34.1333 173.918 34.2134 173.925 34.2203C173.932 34.2271 174.001 34.2973 174.01 34.3027C174.018 34.3072 174.074 34.3591 174.081 34.3629C174.088 34.3667 174.171 34.4308 174.171 34.4308L174.276 34.501L174.461 34.6086L174.619 34.694L174.755 34.7634L174.846 34.81L175.015 34.9068L174.868 35.0281L174.751 35.1319L174.604 35.2738C174.604 35.2738 174.508 35.3813 174.498 35.3913C174.488 35.4012 174.372 35.5545 174.372 35.5545L174.275 35.704L174.187 35.8703C174.187 35.8703 174.13 36.0023 174.124 36.0267C174.118 36.0511 174.103 36.0961 174.103 36.0961L174.086 36.1587L174.069 36.2296C174.069 36.2296 174.039 36.3944 174.038 36.4036C174.038 36.4127 174.033 36.4448 174.033 36.4448L174.025 36.5012L174.008 36.6881L173.999 36.8323L173.992 36.9917L173.989 37.0665L173.988 37.1336L173.986 37.2008L173.985 37.2687V37.2976L173.981 37.4456L173.98 37.4952V37.5356V37.5669L173.979 37.6234V37.6859V37.721V37.747L173.98 37.7828V37.8454L173.982 37.8827V37.9178L173.986 37.9857L173.99 38.0536L174 38.1696L174.011 38.2695L174.031 38.4015L174.066 38.5731L174.084 38.6387L174.128 38.7791C174.128 38.7791 174.187 38.9271 174.199 38.9477C174.211 38.9683 174.291 39.1132 174.307 39.1369C174.323 39.1605 174.542 39.5198 174.542 39.5198L174.745 39.9066C174.745 39.9066 174.792 40.0004 174.823 40.079C174.854 40.1568 174.955 40.4093 174.974 40.4665C174.994 40.5238 175.06 40.7877 175.064 40.8403C175.08 41.0623 175.092 41.1875 175.082 41.4094L175.013 41.7764C175.013 41.7764 174.944 42.0678 174.879 42.2005C174.813 42.3333 174.805 42.3531 174.805 42.3531L174.762 42.4271L174.71 42.5125L174.677 42.5644L174.628 42.6346L174.582 42.6979L174.492 42.8116L174.376 42.9474L174.275 43.0564L174.15 43.1838L174.041 43.2861L173.913 43.402L173.822 43.4798L173.664 43.6095L173.493 43.7415L173.318 43.8719L173.118 44.0138L172.963 44.1191L172.685 44.3014L172.372 44.496L171.989 44.7225C171.989 44.7225 171.403 45.0574 171.348 45.0818C171.293 45.107 170.985 45.2695 170.907 45.3084C170.829 45.3473 170.428 45.5502 170.428 45.5502L169.884 45.821L169.269 46.1323L168.662 46.442L167.922 46.8326L166.329 47.7213C166.329 47.7213 165.435 48.2553 165.363 48.3049C165.291 48.3545 165.097 48.4758 165.097 48.4758L164.81 48.6634L164.336 48.9861L163.847 49.3378C163.847 49.3378 163.506 49.5918 163.46 49.6285C163.415 49.6651 163.061 49.9511 163.061 49.9511L162.738 50.2281L162.419 50.5248C162.419 50.5248 162.216 50.7216 162.141 50.7987C162.067 50.875 161.719 51.2579 161.719 51.2579L161.409 51.6073L161.08 51.9872L160.748 52.3793L160.323 52.8988L159.952 53.352L159.622 53.7647L159.107 54.4131L158.655 54.986L156.334 58.0115L155.456 59.1939C155.456 59.1939 154.518 60.4015 154.382 60.6052C154.247 60.8081 153.565 61.735 153.565 61.735L152.304 63.4438L153.653 64.4233L158.757 57.5546C158.757 57.5546 161.756 53.7631 163.048 52.2634C164.34 50.7636 167.86 48.7634 167.86 48.7634L173.026 46.0766C173.026 46.0766 175.765 44.5249 176.328 43.0145C176.89 41.504 176.729 41.2973 176.755 41.0654C176.781 40.8335 176.641 39.9165 176.266 39.2086C175.89 38.5007 175.697 38.2207 175.697 38.2207C175.697 38.2207 175.676 38.1375 175.674 38.1223C175.672 38.1063 175.662 38.0399 175.662 38.0399L175.654 37.9407C175.654 37.9407 175.649 37.8622 175.649 37.8538C175.649 37.8446 175.648 37.7744 175.648 37.7676C175.648 37.7607 175.647 37.6882 175.647 37.6882V37.5807L175.651 37.4372L175.653 37.3358L175.656 37.1992L175.658 37.0879L175.662 37.0093L175.667 36.8933L175.674 36.7858C175.674 36.7858 175.685 36.6545 175.691 36.6378C175.695 36.621 175.7 36.5767 175.705 36.563C175.71 36.5493 175.79 36.4432 175.818 36.4181C175.846 36.3929 175.919 36.3219 175.938 36.3067C175.959 36.2914 176.095 36.1747 176.125 36.1556C176.155 36.1366 176.284 36.0084 176.284 36.0084C176.284 36.0084 176.381 35.9008 176.393 35.8841C176.405 35.8673 176.49 35.7574 176.501 35.7345C176.513 35.7117 176.575 35.614 176.587 35.5888C176.598 35.5637 176.675 35.4111 176.685 35.3707C176.694 35.331 176.726 35.2562 176.733 35.2189C176.739 35.1807 176.752 35.1388 176.755 35.1159C176.759 35.093 176.772 35.0129 176.772 34.9953C176.772 34.9785 176.78 34.9244 176.779 34.9091C176.778 34.8931 176.781 34.8336 176.779 34.8145C176.777 34.7955 176.776 34.7444 176.774 34.7268C176.771 34.7093 176.767 34.6566 176.761 34.6254C176.755 34.5933 176.746 34.5468 176.736 34.5094C176.725 34.472 176.718 34.4461 176.713 34.4308C176.707 34.4163 176.636 34.218 176.556 34.1005C176.475 33.9838 176.409 33.9106 176.328 33.8236C176.246 33.7359 176.052 33.5924 176.052 33.5924L175.887 33.4826L175.396 33.2186L175.619 32.8631L175.726 32.6991L175.804 32.5717L175.885 32.4215L175.952 32.2803L176.02 32.1163L176.077 31.9554L176.124 31.7936L176.171 31.5747L176.193 31.4221L176.205 31.284V31.1208C176.205 31.1208 176.202 31.0399 176.197 31.0033C176.192 30.9667 176.183 30.895 176.18 30.8828C176.177 30.8706 176.164 30.8011 176.164 30.8011C176.164 30.8011 176.144 30.7218 176.141 30.7104C176.138 30.6989 176.112 30.6142 176.109 30.6066C176.106 30.5982 176.093 30.5555 176.07 30.5029C176.047 30.451 176.023 30.3961 176.023 30.3961L175.97 30.2946C175.97 30.2946 175.917 30.2015 175.908 30.1916C175.899 30.1825 175.864 30.1253 175.848 30.1016C175.832 30.0787 175.79 30.0253 175.784 30.0169C175.777 30.0085 175.677 29.885 175.65 29.8621C175.623 29.8384 175.511 29.7187 175.443 29.6614C175.374 29.6042 175.248 29.4944 175.248 29.4944L175.015 29.3037L174.835 29.1587L174.542 28.9123L174.377 28.7643L174.198 28.5934L174.047 28.4546L173.911 28.3432L173.644 28.1548C173.644 28.1548 173.928 27.871 174.021 27.7932C174.115 27.7154 174.397 27.4347 174.397 27.4347L174.668 27.1654L174.927 26.89L175.192 26.581L175.393 26.3102L175.539 26.0714L175.666 25.8563L175.848 25.5245L175.97 25.2834C175.97 25.2834 176.101 25.0057 176.111 24.9722C176.121 24.9394 176.187 24.7685 176.187 24.7685C176.187 24.7685 176.253 24.5572 176.26 24.5152C176.266 24.4732 176.321 24.2299 176.325 24.175C176.329 24.1193 176.345 23.9545 176.345 23.9545L176.347 23.7295L176.332 23.5021L176.301 23.2923C176.301 23.2923 176.253 23.0795 176.243 23.0414C176.233 23.004 176.179 22.8392 176.179 22.8392L176.085 22.6012L175.987 22.3967L175.858 22.1641L175.671 21.8757C175.671 21.8757 175.507 21.6499 175.49 21.6286C175.472 21.608 175.37 21.4775 175.352 21.4584C175.334 21.4394 175.202 21.2967 175.202 21.2967L174.973 21.077L174.707 20.8497L174.381 20.5812C174.381 20.5812 174.059 20.3378 174.015 20.3111C173.972 20.2852 173.732 20.1234 173.732 20.1234L173.366 19.8953L173.016 19.6871L172.67 19.4895L172.454 19.3667L172.156 19.2004L171.87 19.0425L171.59 18.8891L171.299 18.7266L171.009 18.5657L170.729 18.4085L170.47 18.2621L170.154 18.0843L169.846 17.9111L169.471 17.7021L168.838 17.3474L168.549 17.1819L168.247 16.9942L168.092 16.1245L167.988 15.6622L167.971 15.5898L167.957 15.528L167.947 15.4868L167.938 15.4509L167.932 15.4212L167.925 15.396L167.919 15.3693L167.912 15.3418L167.906 15.3167L167.899 15.29L167.887 15.2442L167.872 15.1839L167.845 15.0764L167.836 15.0436L167.828 15.0131L167.821 14.9856L167.813 14.9566L167.803 14.9192L167.795 14.8872L167.787 14.8567L167.78 14.8315L167.772 14.801L167.764 14.7735L167.756 14.7415L167.748 14.7148L167.737 14.6759L167.727 14.6393L167.714 14.5935L167.705 14.5607L167.697 14.5325L167.685 14.492L167.674 14.4508L167.663 14.415L167.655 14.3875L167.645 14.3539L167.634 14.3173L167.623 14.2807L167.614 14.2479L167.603 14.2098L167.593 14.1754L167.58 14.1335L167.57 14.0999L167.562 14.074L167.554 14.0488L167.544 14.0168L167.535 13.9855L167.526 13.9596L167.518 13.9313L167.507 13.8993L167.495 13.8604L167.484 13.8276L167.474 13.7932L167.462 13.7574L167.449 13.7185L167.435 13.6758L167.422 13.6361L167.41 13.6018L167.394 13.5552L167.381 13.5156L167.366 13.4736L167.352 13.4332L167.336 13.3897L167.325 13.3577L167.31 13.3134L167.251 13.1494L167.237 13.1135L167.222 13.0723L167.209 13.038L167.192 12.99L167.178 12.9541L167.167 12.9244L167.153 12.8885L167.137 12.8473L167.119 12.8008L166.91 12.2851L166.682 11.7633L166.514 11.4047L166.349 11.0599L166.159 10.7006L165.953 10.323L165.666 9.83555L165.351 9.35418L165.119 9.01853L164.776 8.55013L164.428 8.09776L164.097 7.69115L163.808 7.3555L163.437 6.95195L163.013 6.50491L162.571 6.0739L162.173 5.70696L161.929 5.49565L161.634 5.24315L161.295 4.97233L160.877 4.65117L160.237 4.18888L159.54 3.71362L158.582 3.11325L157.882 2.71351L157.31 2.41524C157.31 2.41524 156.719 2.12611 156.605 2.07805C156.492 2.02999 156.157 1.8759 156.157 1.8759L155.438 1.58067L154.489 1.22899L153.792 1.00471L152.815 0.719404L152.005 0.517247L151.099 0.324244L150.209 0.182353C150.209 0.182353 149.299 0.0686869 149.09 0.0587698C148.882 0.0480898 148.33 0.00918406 148.119 0.00536978C147.909 0.00155549 147.398 -0.00683594 147.398 -0.00683594L146.623 0.00994692L145.863 0.0557183C145.863 0.0557183 145.047 0.131241 144.988 0.140395C144.929 0.14955 144.45 0.21363 144.45 0.21363C144.45 0.21363 143.835 0.307461 143.781 0.317378C143.726 0.328058 143.075 0.449353 142.987 0.468424C142.9 0.488258 142.29 0.627098 142.29 0.627098L141.55 0.818575L140.869 1.0215L140.209 1.23738C140.209 1.23738 139.469 1.49904 139.31 1.56541C139.151 1.63178 138.481 1.91175 138.481 1.91175C138.481 1.91175 137.866 2.18638 137.777 2.23291C137.689 2.27945 137.241 2.50373 137.241 2.50373L136.772 2.76768L137.64 4.1904L137.638 4.1988Z" fill="white"/>
<path d="M53.3046 49.5339C52.7981 47.5687 51.9651 45.6334 49.1661 45.6334C46.844 45.6334 46.0399 47.3307 46.0399 48.8786C46.0399 50.9329 47.3498 51.975 49.8214 53.2551C53.3939 55.1012 54.9417 56.4705 54.9417 59.2984C54.9417 62.4246 52.2321 64.8063 48.3918 64.8063C46.606 64.8063 45.0574 64.2997 43.8368 63.8237C43.5988 62.9907 43.2418 60.966 43.0335 59.3579L43.9566 59.1199C44.5516 61.1148 45.8622 63.7047 48.9586 63.7047C51.1023 63.7047 52.4113 62.2164 52.4113 60.281C52.4113 57.9886 51.1908 57.0655 48.5711 55.6367C45.4449 53.9394 43.6881 52.5105 43.6881 49.7421C43.6881 46.9737 45.8912 44.5913 49.8214 44.5913C51.4883 44.5913 53.1261 45.0383 53.7509 45.1566C53.8699 46.2292 53.9897 47.4192 54.2277 49.3546L53.3046 49.5331V49.5339Z" fill="white"/>
<path d="M45.5456 19.3384C45.5456 16.1695 46.342 13.2432 47.9364 10.561C49.53 7.87954 51.6477 5.75498 54.2903 4.18731C56.932 2.61964 59.731 1.83618 62.687 1.83618C64.7017 1.83618 66.6913 2.25423 68.6571 3.08956C70.6223 3.92565 72.3806 5.0974 73.9331 6.60328C75.4847 8.10992 76.7236 9.95146 77.6489 12.1286C78.5735 14.3058 79.0358 16.6738 79.0358 19.2339C79.0358 22.3509 78.3012 25.2635 76.8312 27.9717C75.3611 30.6798 73.3174 32.8349 70.7008 34.4369C68.0827 36.0389 65.1228 36.8399 61.8204 36.8399C59.2938 36.8399 57.0152 36.3173 54.9837 35.273C52.9522 34.2279 51.222 32.8173 49.794 31.0414C48.3651 29.2655 47.3002 27.3629 46.5984 25.3337C45.8965 23.3053 45.5456 21.3066 45.5456 19.3392M49.2363 17.3527C49.2363 20.4003 49.913 23.2824 51.2678 25.9989C52.6211 28.7154 54.4382 30.8881 56.7169 32.5168C58.9956 34.1447 61.4069 34.9587 63.9496 34.9587C65.8323 34.9587 67.6364 34.4666 69.362 33.4825C71.0868 32.4992 72.5035 30.9796 73.6104 28.9245C74.7165 26.8701 75.2696 24.3359 75.2696 21.3226C75.2696 18.9188 74.9019 16.6379 74.1673 14.479C73.4326 12.3194 72.4081 10.426 71.096 8.79725C69.7831 7.16932 68.2681 5.90679 66.5501 5.00967C64.8322 4.11255 63.0242 3.66399 61.1255 3.66399C59.0451 3.66399 57.096 4.20867 55.2797 5.2965C53.4626 6.3851 52.0009 7.97413 50.8955 10.0636C49.7886 12.1531 49.2356 14.5828 49.2356 17.3519L49.2363 17.3527Z" fill="white"/>
<path d="M21.9199 54.7953C21.9199 52.9477 22.3845 51.2412 23.3137 49.6781C24.2428 48.115 25.4779 46.8761 27.0181 45.9614C28.5583 45.0475 30.1908 44.5906 31.9141 44.5906C33.0889 44.5906 34.2485 44.8347 35.395 45.3214C36.5409 45.8089 37.5661 46.4916 38.4716 47.3704C39.3764 48.2492 40.0988 49.3226 40.6382 50.592C41.1775 51.8614 41.4468 53.2421 41.4468 54.735C41.4468 56.5529 41.0181 58.2511 40.1614 59.8302C39.3047 61.4093 38.1131 62.6657 36.5866 63.5994C35.0609 64.5339 33.3346 65.0008 31.4091 65.0008C29.936 65.0008 28.6071 64.6957 27.4232 64.0869C26.2385 63.4774 25.23 62.655 24.3969 61.6191C23.5639 60.5831 22.9429 59.4739 22.534 58.2915C22.1244 57.1091 21.9199 55.9434 21.9199 54.7961M24.072 53.6381C24.072 55.4148 24.4671 57.0953 25.2567 58.6798C26.0462 60.2635 27.1051 61.5306 28.434 62.4796C29.7629 63.4293 31.1681 63.9038 32.651 63.9038C33.7488 63.9038 34.8008 63.617 35.807 63.0433C36.8132 62.4697 37.6386 61.584 38.284 60.3855C38.9286 59.1878 39.2513 57.7102 39.2513 55.9533C39.2513 54.552 39.0369 53.2223 38.6082 51.9628C38.1802 50.7041 37.5829 49.5995 36.8178 48.6505C36.0526 47.7007 35.1692 46.9653 34.1676 46.442C33.166 45.9195 32.1117 45.6578 31.0048 45.6578C29.7919 45.6578 28.6552 45.9752 27.5964 46.6099C26.5375 47.2446 25.6846 48.1707 25.04 49.3897C24.3946 50.608 24.0727 52.0246 24.0727 53.6388L24.072 53.6381Z" fill="white"/>
<path d="M110.621 58.1779H103.301L102.018 61.1546C101.701 61.8777 101.544 62.4255 101.544 62.7962C101.544 62.9442 101.569 63.0808 101.62 63.2066C101.671 63.3317 101.776 63.4477 101.934 63.5545C102.092 63.6613 102.315 63.749 102.603 63.8185C102.892 63.8879 103.269 63.942 103.733 63.9787V64.4936H97.7792V63.9787C98.5604 63.8398 99.0715 63.659 99.3133 63.4363C99.5551 63.2143 99.8038 62.8779 100.059 62.4278C100.315 61.9784 100.591 61.4101 100.889 60.7235L107.54 45.2009H108.028L114.609 60.8906C114.879 61.5398 115.127 62.0608 115.355 62.4552C115.584 62.8496 115.818 63.1555 116.06 63.3729C116.302 63.5911 116.564 63.7414 116.848 63.8246C117.131 63.9077 117.469 63.9588 117.859 63.9771V64.4921H110.399V63.9771C110.771 63.9588 111.082 63.9169 111.333 63.852C111.584 63.7872 111.781 63.704 111.926 63.6018C112.07 63.5003 112.172 63.3836 112.232 63.2539C112.293 63.1243 112.323 62.9801 112.323 62.8222C112.332 62.6185 112.289 62.3561 112.191 62.0364C112.093 61.716 111.952 61.3338 111.766 60.8891L110.623 58.1764L110.621 58.1779ZM110.231 57.148L107.023 49.5256L103.733 57.148H110.231Z" fill="white"/>
<path d="M134.904 59.1405L135.374 59.2404L133.722 64.4851H118.759V63.9579H119.486C120.293 63.9579 120.878 63.6925 121.239 63.16C121.438 62.8655 121.538 62.1622 121.538 61.0507V48.581C121.538 47.365 121.405 46.6098 121.139 46.3153C120.768 45.8973 120.217 45.6883 119.486 45.6883H118.759V45.1611H127.509V45.6883C126.986 45.6883 126.551 45.7127 126.204 45.7592C125.858 45.8073 125.572 45.8782 125.35 45.9728C125.126 46.0682 124.951 46.1795 124.822 46.3077C124.694 46.4359 124.588 46.5762 124.502 46.728C124.35 47.0225 124.274 47.7495 124.274 48.9083V61.0499C124.274 61.3825 124.285 61.6678 124.31 61.9051C124.334 62.1423 124.374 62.3399 124.431 62.4963C124.488 62.6527 124.564 62.7808 124.659 62.8808C124.754 62.9807 124.877 63.0585 125.03 63.1157C125.258 63.2111 126 63.2584 127.253 63.2584H128.664C130.137 63.2584 131.176 63.1493 131.785 62.9304C132.089 62.8258 132.374 62.6832 132.64 62.5032C132.906 62.3231 133.164 62.0828 133.417 61.7838C133.669 61.4848 133.915 61.1209 134.158 60.6937C134.401 60.2665 134.65 59.7485 134.907 59.1405" fill="white"/>
<path d="M42.675 27.4186L43.5042 27.594L40.5893 36.8399H14.2097V35.9099H15.4906C16.9141 35.9099 17.9447 35.4415 18.5809 34.5032C18.9334 33.9845 19.1096 32.7441 19.1096 30.7851V8.80181C19.1096 6.65818 18.8746 5.32699 18.4062 4.80749C17.7525 4.07057 16.7813 3.70211 15.4913 3.70211H14.2105V2.77295H29.6362V3.70211C28.7155 3.70211 27.9488 3.74407 27.337 3.82798C26.7259 3.91189 26.2232 4.03777 25.8303 4.20483C25.4367 4.37266 25.127 4.56871 24.9004 4.79528C24.6746 5.02109 24.4862 5.26902 24.3351 5.53678C24.0674 6.05552 23.9331 7.33712 23.9331 9.38082V30.7858C23.9331 31.3725 23.9537 31.8744 23.9957 32.2932C24.0376 32.712 24.1086 33.0599 24.2093 33.3353C24.31 33.6114 24.4435 33.838 24.6113 34.0135C24.7784 34.1897 24.9965 34.3278 25.2643 34.4277C25.6663 34.5955 26.9723 34.6787 29.1831 34.6787H31.6708C34.2668 34.6787 36.0999 34.4864 37.1725 34.1012C37.708 33.9173 38.2108 33.6656 38.6799 33.3475C39.1483 33.0301 39.6045 32.6068 40.0492 32.0789C40.4925 31.551 40.928 30.9102 41.3552 30.1565C41.7824 29.4028 42.2219 28.4896 42.6735 27.4178" fill="white"/>
<path d="M5.50554 54.1727H14.492V48.6389C14.492 48.182 14.4821 47.8112 14.4638 47.5259C14.4447 47.2406 14.4088 47.0057 14.3562 46.8195C14.3043 46.6342 14.2258 46.4869 14.1212 46.3771C14.0167 46.268 13.8787 46.1658 13.7078 46.0704C13.2897 45.8423 12.8572 45.7279 12.4102 45.7279H11.7251V45.2H20.0128L19.9983 45.7279H19.314C19.1332 45.7279 18.9433 45.7477 18.7434 45.7851C18.5435 45.8232 18.3536 45.885 18.1728 45.9705C17.992 46.0559 17.8325 46.1635 17.6945 46.2916C17.5564 46.4198 17.4542 46.5747 17.3878 46.7547C17.2833 47.0682 17.2307 47.6961 17.2307 48.6374V61.1178C17.2307 61.5739 17.2398 61.9447 17.2589 62.23C17.278 62.5153 17.3138 62.751 17.3657 62.9364C17.4176 63.1218 17.4938 63.2667 17.5938 63.3712C17.6937 63.4758 17.8287 63.5757 18.0004 63.671C18.4085 63.8999 18.8464 64.0136 19.3125 64.0136H19.9968V64.5415H11.7243V64.0136H12.4094C13.189 64.0136 13.7642 63.7809 14.1357 63.3148C14.373 63.0203 14.492 62.288 14.492 61.1185V55.2277H5.50554V61.1185C5.50554 61.5747 5.51546 61.9455 5.53377 62.2308C5.55284 62.5161 5.58869 62.7487 5.64133 62.9295C5.6932 63.1103 5.77178 63.2553 5.87629 63.3644C5.9808 63.4742 6.11888 63.5764 6.28976 63.671C6.69865 63.8999 7.13119 64.0136 7.58814 64.0136H8.28692V64.5415H0V64.0136H0.685046C1.49291 64.0136 2.07345 63.7809 2.42512 63.3148C2.65322 63.0203 2.76765 62.288 2.76765 61.1185V48.6382C2.76765 48.1812 2.75773 47.8105 2.73942 47.5252C2.71959 47.2399 2.68449 47.0049 2.63186 46.8188C2.57922 46.6334 2.5037 46.4862 2.40376 46.3763C2.30383 46.2672 2.16804 46.165 1.99716 46.0696C1.57835 45.8415 1.14123 45.7271 0.685046 45.7271H0V45.1992H8.28692V45.7271H7.58814C7.39742 45.7271 7.20518 45.7469 7.00989 45.7843C6.81536 45.8225 6.62923 45.8843 6.45377 45.9697C6.27755 46.0551 6.1204 46.1627 5.98309 46.2909C5.84501 46.419 5.74279 46.5739 5.67642 46.7539C5.56275 47.0583 5.50554 47.6861 5.50554 48.6367V54.1704V54.1727Z" fill="white"/>
<path d="M62.1301 55.4672V61.0918C62.1301 62.307 62.2629 63.0615 62.5291 63.3559C62.8899 63.774 63.4354 63.9823 64.167 63.9823H64.9077V64.5086H56.6345V63.9823H57.3607C57.759 63.9823 58.1083 63.9159 58.4074 63.7831C58.7064 63.6504 58.9414 63.4513 59.1123 63.1851C59.3022 62.8815 59.3968 62.1842 59.3968 61.0918V48.6175C59.3968 47.4122 59.2694 46.6578 59.0123 46.3534C58.6416 45.9361 58.0916 45.7271 57.3607 45.7271H56.6345V45.2H63.7115C65.4295 45.2 66.7919 45.3807 67.7982 45.7416C68.2917 45.9216 68.7525 46.1642 69.1797 46.4678C69.6069 46.7722 69.9822 47.13 70.3049 47.5434C70.6276 47.9562 70.8816 48.4139 71.067 48.9174C71.2524 49.4208 71.3447 49.9617 71.3447 50.5407C71.3447 51.3287 71.2112 52.0481 70.9457 52.6981C70.6802 53.348 70.2927 53.908 69.7854 54.3786C69.2773 54.8486 68.6533 55.214 67.9133 55.4749C67.1726 55.7358 66.3274 55.867 65.3784 55.867C64.4294 55.867 63.3469 55.7342 62.1317 55.468M62.1301 54.6548C62.6428 54.7502 63.0913 54.8211 63.4758 54.8684C63.8603 54.9157 64.1898 54.9393 64.466 54.9393C64.9596 54.9393 65.4272 54.8371 65.8689 54.6334C66.3106 54.4298 66.6943 54.1444 67.0223 53.779C67.3496 53.4136 67.6105 52.9796 67.805 52.4761C67.9996 51.9726 68.0972 51.4226 68.0972 50.8245C68.0972 50.1219 67.9927 49.4925 67.7844 48.9372C67.5746 48.3818 67.2855 47.9119 66.9155 47.5274C66.5455 47.1429 66.1115 46.8508 65.6126 46.6517C65.1144 46.4526 64.5751 46.3526 63.9961 46.3526C63.7489 46.3526 63.472 46.3748 63.163 46.4167C62.8548 46.4594 62.5108 46.5281 62.1309 46.6234V54.654L62.1301 54.6548Z" fill="white"/>
<path d="M97.7785 45.2V49.7283H97.4512C97.3749 49.121 97.249 48.6053 97.0736 48.1835C96.8981 47.7609 96.6677 47.4191 96.3824 47.1582C96.0971 46.8973 95.7515 46.7074 95.3427 46.5891C94.9345 46.4709 94.46 46.4106 93.9184 46.4106H91.1988V61.1627C91.1988 62.3497 91.327 63.0897 91.5833 63.3842C91.935 63.7831 92.4896 63.9823 93.2494 63.9823H93.9184V64.5094H85.7307V63.9823H86.4134C87.2297 63.9823 87.8087 63.7359 88.1512 63.2423C88.3595 62.9478 88.4647 62.2551 88.4647 61.1627V46.4106H86.1441C85.5552 46.4106 85.0426 46.4533 84.6062 46.5388C84.1691 46.6242 83.7991 46.7859 83.4955 47.0232C83.1919 47.2604 82.9455 47.5976 82.7548 48.034C82.5648 48.4711 82.4229 49.0356 82.3275 49.7283H81.7867V45.2H97.7777H97.7785Z" fill="white"/>
<path d="M79.9719 63.9823V64.5094H71.6987V63.9823H72.3822C73.1893 63.9823 73.7683 63.7496 74.1192 63.2842C74.3473 62.9905 74.461 62.259 74.461 61.0918V48.6176C74.461 48.1621 74.4511 47.7921 74.4328 47.5068C74.4137 47.2223 74.3778 46.9873 74.3259 46.802C74.2741 46.6166 74.1978 46.4724 74.0979 46.3679C73.9979 46.2634 73.8629 46.1642 73.692 46.0688C73.274 45.8408 72.8376 45.7271 72.3822 45.7271H71.6987V45.2H79.9719V45.7271H79.2738C78.4767 45.7271 77.9022 45.9598 77.5513 46.4243C77.3141 46.7188 77.1951 47.4496 77.1951 48.6168V61.091C77.1951 61.5472 77.205 61.9172 77.224 62.2017C77.2431 62.4863 77.279 62.7197 77.3308 62.8998C77.3827 63.0798 77.4613 63.2255 77.5658 63.3338C77.6703 63.4429 77.8076 63.5451 77.9785 63.6397C78.3866 63.8678 78.8184 63.9815 79.2738 63.9815H79.9719V63.9823Z" fill="white"/>
<path fill-rule="evenodd" clip-rule="evenodd" d="M75.6151 43.9329C76.3307 43.9329 76.7983 43.7971 76.9112 42.9077C77.047 41.8336 75.9874 41.5482 75.2139 42.0128C74.3236 42.5483 74.8515 43.9322 75.6151 43.9322" fill="white"/>
<path d="M100.794 24.822L97.8257 20.5889C95.5532 20.5889 93.6697 20.4767 92.173 20.2532L92.1211 26.4484C92.1211 27.7559 92.1607 29.2191 92.2378 30.8363C92.3148 32.4543 92.4911 33.5986 92.7665 34.2692C92.8694 34.5781 93.0274 34.8192 93.241 34.9931C93.3325 35.0679 93.4134 35.1129 93.4759 35.1465C94.238 35.5485 95.2831 35.7034 95.6066 35.7476C95.7736 35.7705 96.0094 35.7995 96.2962 35.8231V36.8064H84.9914V35.8231C85.2401 35.8056 85.5948 35.7613 86.0022 35.637C86.1685 35.5866 87.1556 35.3379 87.6805 34.6949C88.0245 34.2738 88.274 33.4476 88.4289 32.2171C88.5837 30.9866 88.6699 29.0123 88.6867 26.2927V14.8835C88.721 12.096 88.7081 10.0485 88.6478 8.74017C88.6264 8.26491 88.7325 7.13207 88.2221 5.86191C88.0222 5.36606 87.7827 4.76493 87.1823 4.28509C86.3173 3.59318 85.2927 3.61454 84.938 3.63742V2.69987H88.6615C90.1796 2.69987 91.6969 2.70445 93.2143 2.69987C97.1346 2.68767 97.0682 2.64571 98.0042 2.69987C100.034 2.81735 101.288 2.89745 102.883 3.44824C104.328 3.94714 105.537 4.6093 106.509 5.43624C107.481 6.26241 108.217 7.20454 108.716 8.26263C109.215 9.32147 109.465 10.4101 109.465 11.5277C109.465 12.6452 109.207 13.7994 108.691 14.8835C107.961 16.4168 106.875 17.3772 106.341 17.8388C104.609 19.3378 102.759 19.9671 101.603 20.2486C102.088 20.9924 102.574 21.7362 103.059 22.48C104.597 24.7457 105.921 26.6421 106.936 28.0778C108.248 29.9346 108.994 30.9523 110.15 32.2003C112.36 34.5835 113.668 35.2182 114.699 35.521C115.641 35.7979 116.472 35.8338 117.044 35.817C117.085 35.8681 117.229 36.0604 117.223 36.3419C117.218 36.6035 117.086 36.7797 117.044 36.8339C115.324 36.8713 113.898 36.7355 112.855 36.5883C110.695 36.2824 109.864 35.8811 109.583 35.7377C108.527 35.1968 107.841 34.5064 107.313 33.9221C104.699 31.0293 101.227 25.5169 100.792 24.8227M92.3271 18.7565C93.4797 19.0319 94.8727 19.1692 96.5083 19.1692C97.3344 19.1692 98.2071 19.1089 99.1287 18.9892C100.049 18.8694 100.996 18.6032 101.968 18.1904C102.94 17.7785 103.778 17.0828 104.485 16.1033C105.19 15.1238 105.543 13.8101 105.543 12.1608C105.543 10.9929 105.237 9.76851 104.627 8.48919C104.015 7.20912 103.073 6.10984 101.8 5.1906C100.525 4.27136 98.9776 3.81136 97.1529 3.81136C96.3954 3.81136 95.5402 3.91053 94.5851 4.10811C93.6308 4.30569 93.0754 4.61922 92.9206 5.04871C92.5246 5.89014 92.3271 10.4597 92.3271 18.7572V18.7565Z" fill="white"/>
</g>
<defs>
<clipPath id="clip0_110_194">
<rect width="176.778" height="65" fill="white"/>
</clipPath>
</defs>
</svg>
