<svg width="15" height="15" viewBox="0 0 15 15" fill="none" xmlns="http://www.w3.org/2000/svg">
<path d="M7.29854 0C9.27633 0 9.53006 0 10.3089 0.044694C11.0878 0.0804492 11.6129 0.205592 12.0767 0.393307C12.558 0.581022 12.9606 0.840247 13.3719 1.25143C13.7394 1.62686 14.0283 2.0738 14.2121 2.57437C14.3958 3.04813 14.5184 3.5934 14.5534 4.38001C14.5884 5.17557 14.5971 5.42585 14.5971 7.45496C14.5971 9.48407 14.5971 9.73435 14.5534 10.521C14.5184 11.3165 14.3958 11.8528 14.2121 12.3266C14.0283 12.8272 13.7394 13.2741 13.3719 13.6495C13.0043 14.025 12.5668 14.32 12.0767 14.5077C11.6129 14.6954 11.079 14.8205 10.3089 14.8563C9.53006 14.892 9.28508 14.901 7.29854 14.901C5.312 14.901 5.06701 14.901 4.28815 14.8563C3.50928 14.8205 2.98419 14.6954 2.52037 14.5077C2.0303 14.32 1.59275 14.025 1.2252 13.6495C0.857647 13.2741 0.568782 12.8272 0.385005 12.3266C0.201228 11.8528 0.0786974 11.3076 0.0436923 10.521C0.00868718 9.72542 5.46964e-10 9.47513 5.46964e-10 7.45496C5.46964e-10 5.43479 -6.40967e-05 5.17557 0.0436923 4.38001C0.0786974 3.58446 0.201228 3.04813 0.385005 2.57437C0.568782 2.0738 0.857647 1.62686 1.2252 1.25143C1.59275 0.876002 2.0303 0.581022 2.52037 0.393307C2.98419 0.205592 3.50928 0.0804492 4.28815 0.044694C5.06701 0.0089388 5.312 0 7.29854 0ZM7.29854 1.49278C5.49577 1.49278 5.19824 1.49278 4.35812 1.53747C3.78929 1.56429 3.40423 1.64474 3.04543 1.78776C2.74788 1.89503 2.47657 2.08274 2.25779 2.31515C2.03026 2.53862 1.85526 2.81572 1.7415 3.11964C1.60148 3.48613 1.52269 3.87944 1.49643 4.46046C1.46143 5.28283 1.45264 5.56887 1.45264 7.4639C1.45264 9.35892 1.45268 9.60921 1.49643 10.4673C1.52269 11.0484 1.60148 11.4417 1.7415 11.8082C1.86401 12.13 2.01275 12.3624 2.24903 12.6126C2.49407 12.8629 2.72162 13.0149 3.03667 13.14C3.39547 13.2831 3.78053 13.3635 4.34936 13.3903C5.15448 13.4261 5.43451 13.435 7.28978 13.435C9.14505 13.435 9.39007 13.435 10.2302 13.3903C10.799 13.3635 11.1841 13.2831 11.5429 13.14C11.8404 13.0238 12.1117 12.8451 12.3305 12.6126C12.5756 12.3624 12.7243 12.13 12.8468 11.8082C12.9868 11.4417 13.0656 11.0484 13.0919 10.4673C13.1269 9.64497 13.1357 9.35892 13.1357 7.4639C13.1357 5.56887 13.1356 5.31859 13.0919 4.46046C13.0656 3.87944 12.9868 3.48613 12.8468 3.11964C12.7331 2.81572 12.5581 2.53862 12.3305 2.31515C12.1117 2.08274 11.8404 1.90396 11.5429 1.78776C11.1841 1.64474 10.799 1.56429 10.2302 1.53747C9.42508 1.50172 9.14505 1.49278 7.28978 1.49278H7.29854ZM12.0418 3.53976C12.0418 3.79005 11.9455 4.02246 11.7704 4.20124C11.5954 4.38001 11.3679 4.4694 11.1228 4.4694C10.8778 4.4694 10.6503 4.37107 10.4753 4.20124C10.3002 4.02246 10.2039 3.79005 10.2039 3.53976C10.2039 3.28948 10.3002 3.05707 10.4753 2.87829C10.6503 2.69952 10.8778 2.60119 11.1228 2.60119C11.3679 2.60119 11.5954 2.69952 11.7704 2.87829C11.9455 3.05707 12.0418 3.28948 12.0418 3.53976ZM7.29854 3.72748C8.26993 3.72748 9.18877 4.12079 9.88012 4.81801C10.5715 5.51524 10.9479 6.46275 10.9479 7.45496C10.9479 8.44717 10.5627 9.39468 9.88012 10.0919C9.19752 10.7891 8.26993 11.1824 7.29854 11.1824C6.32715 11.1824 5.4083 10.7891 4.71695 10.0919C4.03435 9.39468 3.64922 8.44717 3.64922 7.45496C3.64922 6.46275 4.03435 5.51524 4.71695 4.81801C5.39955 4.12079 6.32715 3.72748 7.29854 3.72748ZM7.29854 5.21132C6.72095 5.21132 6.16085 5.44373 5.74954 5.86385C5.33823 6.28398 5.11072 6.84712 5.11072 7.44602C5.11072 8.04492 5.33823 8.60807 5.74954 9.02819C6.16085 9.44831 6.7122 9.68072 7.29854 9.68072C7.88487 9.68072 8.43622 9.44831 8.84753 9.02819C9.25884 8.60807 9.48636 8.04492 9.48636 7.44602C9.48636 6.84712 9.25884 6.28398 8.84753 5.86385C8.43622 5.44373 7.88487 5.21132 7.29854 5.21132Z" fill="#8A8A8A"/>
</svg>
