<svg width="16" height="16" viewBox="0 0 16 16" fill="none" xmlns="http://www.w3.org/2000/svg">
<path d="M8.19407 0.200348L8.93249 0.297338C12.0559 0.810405 14.5844 3.36279 15.0975 6.50375L15.1938 7.24713C15.1797 7.57853 15.213 7.9191 15.1938 8.24957C14.8191 14.6945 6.86284 17.6778 2.33598 13.0416C-2.14005 8.45713 0.866983 0.573459 7.198 0.200348H8.19407ZM7.43243 0.731107C5.69825 0.921296 4.64225 2.5954 4.0645 4.09195C5.17574 3.89418 6.30048 3.73685 7.43243 3.73843V0.731107ZM7.95965 0.731107V3.73843C9.09191 3.73685 10.2163 3.89418 11.3276 4.09195C10.7476 2.59066 9.69633 0.930142 7.95965 0.731107ZM5.41174 1.11464C3.89567 1.60307 2.56821 2.70503 1.73878 4.0651C1.70896 4.11407 1.46795 4.51624 1.48741 4.53425L3.49617 4.18357C3.87841 3.00674 4.53492 1.97586 5.41174 1.11464ZM13.9047 4.53425C13.9244 4.51656 13.6834 4.11407 13.6533 4.0651C12.8239 2.70503 11.4964 1.60307 9.98034 1.11464C10.8572 1.97586 11.5137 3.00674 11.8959 4.18357L13.9047 4.53425ZM7.43243 4.23949C6.24964 4.26318 5.07752 4.41767 3.91764 4.63724C3.59032 5.53985 3.50308 6.52491 3.44941 7.48281H7.43243V4.23949ZM11.9427 7.48281C11.889 6.52491 11.8018 5.54017 11.4744 4.63724C10.3146 4.41799 9.14244 4.26318 7.95965 4.23949V7.48281H11.9427ZM0.696579 7.48281H2.95169C2.96425 6.80767 3.03737 6.13379 3.16541 5.47193C3.17765 5.40811 3.35464 4.74213 3.3173 4.74024L1.20842 5.12346C1.00287 5.68075 0.830266 6.25922 0.758715 6.85253C0.733923 7.05852 0.745849 7.28472 0.696579 7.48281ZM14.6955 7.48281C14.6462 7.28472 14.6582 7.05852 14.6334 6.85253C14.5615 6.25922 14.3892 5.68107 14.1837 5.12346L12.0748 4.74024C12.0374 4.74182 12.2144 5.40779 12.2267 5.47193C12.3547 6.13379 12.4278 6.80798 12.4404 7.48281H14.6955ZM2.95138 8.01357H0.696579C0.745849 8.21165 0.733923 8.43786 0.758715 8.64384C0.83058 9.23716 1.00287 9.81531 1.20842 10.3729L3.3173 10.7561C3.35464 10.7546 3.17765 10.0886 3.16541 10.0244C3.03737 9.36258 2.96393 8.68839 2.95138 8.01357ZM7.43243 8.01357H3.44941C3.50308 8.97146 3.59032 9.95621 3.91764 10.8591C5.07752 11.0784 6.24964 11.2332 7.43243 11.2569V8.01357ZM11.9427 8.01357H7.95965V11.2569C9.14244 11.2332 10.3146 11.0787 11.4744 10.8591C11.8018 9.95653 11.889 8.97146 11.9427 8.01357ZM14.6955 8.01357H12.4404C12.4278 8.68871 12.3547 9.36258 12.2267 10.0244C12.2144 10.0883 12.0374 10.7542 12.0748 10.7561L14.1837 10.3729C14.3892 9.81562 14.5618 9.23716 14.6334 8.64384C14.6582 8.43786 14.6462 8.21165 14.6955 8.01357ZM5.41174 14.3817C4.53492 13.5205 3.87841 12.4896 3.49617 11.3128L1.48741 10.9621C1.46764 10.9798 1.70865 11.3823 1.73878 11.4313C2.56821 12.7913 3.89567 13.8933 5.41174 14.3817ZM13.9047 10.9621L11.8959 11.3128C11.5137 12.4896 10.8572 13.5205 9.98034 14.3817C11.4964 13.8933 12.8239 12.7913 13.6533 11.4313C13.6831 11.3823 13.9241 10.9801 13.9047 10.9621ZM7.43243 11.7579C6.30016 11.7633 5.17574 11.6 4.0645 11.4044C4.64256 12.901 5.69825 14.5751 7.43243 14.7653V11.7579ZM7.95965 11.7579V14.7653C9.69382 14.5751 10.7498 12.901 11.3276 11.4044C10.2163 11.6 9.09191 11.7633 7.95965 11.7579Z" fill="#8A8A8A" stroke="#8A8A8A" stroke-width="0.4"/>
</svg>
