<svg width="177" height="65" viewBox="0 0 177 65" fill="none" xmlns="http://www.w3.org/2000/svg">
<g clip-path="url(#clip0_5_461)">
<path d="M157.054 29.7125H155.956V30.8103H157.054V29.7125Z" fill="#0095DA"/>
<path d="M159.749 29.711H158.651V30.8087H159.749V29.711Z" fill="#0095DA"/>
<path d="M158.401 29.711H157.303V30.8087H158.401V29.711Z" fill="#0095DA"/>
<path d="M155.708 29.711H154.61V30.8087H155.708V29.711Z" fill="#0095DA"/>
<path d="M157.054 31.0506H155.956V32.1483H157.054V31.0506Z" fill="#0095DA"/>
<path d="M159.749 31.0498H158.651V32.1476H159.749V31.0498Z" fill="#0095DA"/>
<path d="M158.401 31.0498H157.303V32.1476H158.401V31.0498Z" fill="#0095DA"/>
<path d="M155.708 31.0498H154.61V32.1476H155.708V31.0498Z" fill="#0095DA"/>
<path d="M157.054 32.3871H155.956V33.4849H157.054V32.3871Z" fill="#0095DA"/>
<path d="M159.748 32.3871H158.651V33.4849H159.748V32.3871Z" fill="#0095DA"/>
<path d="M158.4 32.3871H157.302V33.4849H158.4V32.3871Z" fill="#0095DA"/>
<path d="M155.707 32.3856H154.609V33.4833H155.707V32.3856Z" fill="#0095DA"/>
<path d="M157.054 33.713H155.956V34.8107H157.054V33.713Z" fill="#0095DA"/>
<path d="M158.402 33.713H157.304V34.8107H158.402V33.713Z" fill="#0095DA"/>
<path d="M155.708 33.713H154.61V34.8107H155.708V33.713Z" fill="#0095DA"/>
<path d="M162.438 29.711H161.34V30.8087H162.438V29.711Z" fill="#0095DA"/>
<path d="M165.129 29.711H164.031V30.8087H165.129V29.711Z" fill="#0095DA"/>
<path d="M163.784 29.7102H162.686V30.808H163.784V29.7102Z" fill="#0095DA"/>
<path d="M161.092 29.711H159.994V30.8087H161.092V29.711Z" fill="#0095DA"/>
<path d="M162.44 31.0498H161.342V32.1476H162.44V31.0498Z" fill="#0095DA"/>
<path d="M165.129 31.0498H164.031V32.1476H165.129V31.0498Z" fill="#0095DA"/>
<path d="M163.785 31.049H162.687V32.1468H163.785V31.049Z" fill="#0095DA"/>
<path d="M161.092 31.0498H159.994V32.1476H161.092V31.0498Z" fill="#0095DA"/>
<path d="M162.439 32.3886H161.341V33.4864H162.439V32.3886Z" fill="#0095DA"/>
<path d="M165.127 32.3871H164.03V33.4849H165.127V32.3871Z" fill="#0095DA"/>
<path d="M163.78 32.3871H162.682V33.4849H163.78V32.3871Z" fill="#0095DA"/>
<path d="M161.092 32.3886H159.994V33.4864H161.092V32.3886Z" fill="#0095DA"/>
<path d="M167.816 29.7118H166.718V30.8095H167.816V29.7118Z" fill="#0095DA"/>
<path d="M170.508 29.711H169.411V30.8087H170.508V29.711Z" fill="#0095DA"/>
<path d="M169.162 29.711H168.064V30.8087H169.162V29.711Z" fill="#0095DA"/>
<path d="M166.472 29.711H165.374V30.8087H166.472V29.711Z" fill="#0095DA"/>
<path d="M167.817 31.0475H166.719V32.1453H167.817V31.0475Z" fill="#0095DA"/>
<path d="M170.508 31.0498H169.411V32.1476H170.508V31.0498Z" fill="#0095DA"/>
<path d="M169.161 31.0498H168.064V32.1476H169.161V31.0498Z" fill="#0095DA"/>
<path d="M166.472 31.0498H165.374V32.1476H166.472V31.0498Z" fill="#0095DA"/>
<path d="M167.813 32.3894H166.716V33.4871H167.813V32.3894Z" fill="#0095DA"/>
<path d="M170.508 32.3871H169.411V33.4849H170.508V32.3871Z" fill="#0095DA"/>
<path d="M169.161 32.3894H168.064V33.4871H169.161V32.3894Z" fill="#0095DA"/>
<path d="M166.475 32.3871H165.377V33.4849H166.475V32.3871Z" fill="#0095DA"/>
<path d="M171.855 29.711H170.757V30.8087H171.855V29.711Z" fill="#0095DA"/>
<path d="M173.202 29.711H172.104V30.8087H173.202V29.711Z" fill="#0095DA"/>
<path d="M171.855 31.049H170.757V32.1468H171.855V31.049Z" fill="#0095DA"/>
<path d="M174.547 31.0498H173.449V32.1476H174.547V31.0498Z" fill="#0095DA"/>
<path d="M173.202 31.0498H172.104V32.1476H173.202V31.0498Z" fill="#0095DA"/>
<path d="M171.857 32.3863H170.759V33.4841H171.857V32.3863Z" fill="#0095DA"/>
<path d="M174.55 32.3863H173.452V33.4841H174.55V32.3863Z" fill="#0095DA"/>
<path d="M173.204 32.3863H172.106V33.4841H173.204V32.3863Z" fill="#0095DA"/>
<path d="M171.847 33.713H170.75V34.8107H171.847V33.713Z" fill="#0095DA"/>
<path d="M174.546 33.713H173.449V34.8107H174.546V33.713Z" fill="#0095DA"/>
<path d="M173.194 33.713H172.096V34.8107H173.194V33.713Z" fill="#0095DA"/>
<path d="M159.748 33.7114H158.651V34.8092H159.748V33.7114Z" fill="#0095DA"/>
<path d="M162.439 33.7137H161.341V34.8115H162.439V33.7137Z" fill="#0095DA"/>
<path d="M165.127 33.7114H164.03V34.8092H165.127V33.7114Z" fill="#0095DA"/>
<path d="M163.78 33.7114H162.682V34.8092H163.78V33.7114Z" fill="#0095DA"/>
<path d="M161.092 33.7137H159.994V34.8115H161.092V33.7137Z" fill="#0095DA"/>
<path d="M167.813 33.7145H166.716V34.8122H167.813V33.7145Z" fill="#0095DA"/>
<path d="M170.508 33.7114H169.411V34.8092H170.508V33.7114Z" fill="#0095DA"/>
<path d="M169.161 33.7145H168.064V34.8122H169.161V33.7145Z" fill="#0095DA"/>
<path d="M166.475 33.7114H165.377V34.8092H166.475V33.7114Z" fill="#0095DA"/>
<path d="M157.062 35.067H155.965V36.1648H157.062V35.067Z" fill="#0095DA"/>
<path d="M158.411 35.067H157.313V36.1648H158.411V35.067Z" fill="#0095DA"/>
<path d="M155.717 35.067H154.619V36.1648H155.717V35.067Z" fill="#0095DA"/>
<path d="M171.856 35.0647H170.759V36.1625H171.856V35.0647Z" fill="#0095DA"/>
<path d="M174.547 35.0632H173.449V36.161H174.547V35.0632Z" fill="#0095DA"/>
<path d="M173.203 35.0647H172.105V36.1625H173.203V35.0647Z" fill="#0095DA"/>
<path d="M159.757 35.0632H158.659V36.161H159.757V35.0632Z" fill="#0095DA"/>
<path d="M162.447 35.0655H161.35V36.1632H162.447V35.0655Z" fill="#0095DA"/>
<path d="M165.128 35.0647H164.03V36.1625H165.128V35.0647Z" fill="#0095DA"/>
<path d="M163.788 35.0632H162.691V36.161H163.788V35.0632Z" fill="#0095DA"/>
<path d="M161.102 35.0655H160.004V36.1632H161.102V35.0655Z" fill="#0095DA"/>
<path d="M167.813 35.0647H166.716V36.1625H167.813V35.0647Z" fill="#0095DA"/>
<path d="M170.506 35.0632H169.408V36.161H170.506V35.0632Z" fill="#0095DA"/>
<path d="M169.162 35.0647H168.064V36.1625H169.162V35.0647Z" fill="#0095DA"/>
<path d="M166.475 35.0617H165.377V36.1594H166.475V35.0617Z" fill="#0095DA"/>
<path d="M157.054 36.4051H155.956V37.5028H157.054V36.4051Z" fill="#0095DA"/>
<path d="M158.402 36.4051H157.304V37.5028H158.402V36.4051Z" fill="#0095DA"/>
<path d="M155.708 36.4051H154.61V37.5028H155.708V36.4051Z" fill="#0095DA"/>
<path d="M171.847 36.402H170.75V37.4998H171.847V36.402Z" fill="#0095DA"/>
<path d="M174.546 36.402H173.449V37.4998H174.546V36.402Z" fill="#0095DA"/>
<path d="M173.194 36.402H172.096V37.4998H173.194V36.402Z" fill="#0095DA"/>
<path d="M159.748 36.4013H158.651V37.499H159.748V36.4013Z" fill="#0095DA"/>
<path d="M162.439 36.4035H161.341V37.5013H162.439V36.4035Z" fill="#0095DA"/>
<path d="M165.127 36.4013H164.03V37.499H165.127V36.4013Z" fill="#0095DA"/>
<path d="M163.78 36.4013H162.682V37.499H163.78V36.4013Z" fill="#0095DA"/>
<path d="M161.092 36.4035H159.994V37.5013H161.092V36.4035Z" fill="#0095DA"/>
<path d="M167.813 36.4043H166.716V37.502H167.813V36.4043Z" fill="#0095DA"/>
<path d="M170.508 36.4013H169.411V37.499H170.508V36.4013Z" fill="#0095DA"/>
<path d="M169.161 36.4043H168.064V37.502H169.161V36.4043Z" fill="#0095DA"/>
<path d="M166.475 36.4013H165.377V37.499H166.475V36.4013Z" fill="#0095DA"/>
<path d="M157.054 37.7462H155.956V38.8439H157.054V37.7462Z" fill="#0095DA"/>
<path d="M158.402 37.7462H157.304V38.8439H158.402V37.7462Z" fill="#0095DA"/>
<path d="M155.708 37.7462H154.61V38.8439H155.708V37.7462Z" fill="#0095DA"/>
<path d="M171.847 37.7431H170.75V38.8409H171.847V37.7431Z" fill="#0095DA"/>
<path d="M174.546 37.7431H173.449V38.8409H174.546V37.7431Z" fill="#0095DA"/>
<path d="M173.194 37.7431H172.096V38.8409H173.194V37.7431Z" fill="#0095DA"/>
<path d="M159.748 37.7424H158.651V38.8401H159.748V37.7424Z" fill="#0095DA"/>
<path d="M162.439 37.7439H161.341V38.8416H162.439V37.7439Z" fill="#0095DA"/>
<path d="M165.127 37.7424H164.03V38.8401H165.127V37.7424Z" fill="#0095DA"/>
<path d="M163.78 37.7424H162.682V38.8401H163.78V37.7424Z" fill="#0095DA"/>
<path d="M161.092 37.7439H159.994V38.8416H161.092V37.7439Z" fill="#0095DA"/>
<path d="M167.813 37.7454H166.716V38.8432H167.813V37.7454Z" fill="#0095DA"/>
<path d="M170.508 37.7424H169.411V38.8401H170.508V37.7424Z" fill="#0095DA"/>
<path d="M169.161 37.7454H168.064V38.8432H169.161V37.7454Z" fill="#0095DA"/>
<path d="M166.475 37.7424H165.377V38.8401H166.475V37.7424Z" fill="#0095DA"/>
<path d="M157.056 39.0766H155.958V40.1743H157.056V39.0766Z" fill="#0095DA"/>
<path d="M158.404 39.0766H157.306V40.1743H158.404V39.0766Z" fill="#0095DA"/>
<path d="M155.71 39.0766H154.612V40.1743H155.71V39.0766Z" fill="#0095DA"/>
<path d="M171.85 39.0743H170.753V40.172H171.85V39.0743Z" fill="#0095DA"/>
<path d="M174.549 39.0743H173.451V40.172H174.549V39.0743Z" fill="#0095DA"/>
<path d="M173.196 39.0743H172.098V40.172H173.196V39.0743Z" fill="#0095DA"/>
<path d="M159.751 39.0735H158.653V40.1713H159.751V39.0735Z" fill="#0095DA"/>
<path d="M162.441 39.0751H161.344V40.1728H162.441V39.0751Z" fill="#0095DA"/>
<path d="M165.13 39.0735H164.032V40.1713H165.13V39.0735Z" fill="#0095DA"/>
<path d="M163.782 39.0735H162.685V40.1713H163.782V39.0735Z" fill="#0095DA"/>
<path d="M161.095 39.0751H159.997V40.1728H161.095V39.0751Z" fill="#0095DA"/>
<path d="M167.816 39.0758H166.718V40.1736H167.816V39.0758Z" fill="#0095DA"/>
<path d="M170.512 39.0735H169.414V40.1713H170.512V39.0735Z" fill="#0095DA"/>
<path d="M169.164 39.0758H168.066V40.1736H169.164V39.0758Z" fill="#0095DA"/>
<path d="M166.477 39.0735H165.379V40.1713H166.477V39.0735Z" fill="#0095DA"/>
<path d="M157.054 41.7771H155.956V42.8749H157.054V41.7771Z" fill="#0095DA"/>
<path d="M158.4 41.7771H157.303V42.8749H158.4V41.7771Z" fill="#0095DA"/>
<path d="M155.708 41.7763H154.61V42.8741H155.708V41.7763Z" fill="#0095DA"/>
<path d="M171.849 41.7771H170.751V42.8749H171.849V41.7771Z" fill="#0095DA"/>
<path d="M174.548 41.7771H173.45V42.8749H174.548V41.7771Z" fill="#0095DA"/>
<path d="M173.195 41.7771H172.098V42.8749H173.195V41.7771Z" fill="#0095DA"/>
<path d="M159.75 41.7763H158.652V42.8741H159.75V41.7763Z" fill="#0095DA"/>
<path d="M162.438 41.7763H161.34V42.8741H162.438V41.7763Z" fill="#0095DA"/>
<path d="M165.128 41.7763H164.03V42.8741H165.128V41.7763Z" fill="#0095DA"/>
<path d="M163.785 41.7763H162.687V42.8741H163.785V41.7763Z" fill="#0095DA"/>
<path d="M161.092 41.7771H159.994V42.8749H161.092V41.7771Z" fill="#0095DA"/>
<path d="M167.815 41.7794H166.717V42.8771H167.815V41.7794Z" fill="#0095DA"/>
<path d="M170.51 41.7763H169.412V42.8741H170.51V41.7763Z" fill="#0095DA"/>
<path d="M169.163 41.7794H168.065V42.8771H169.163V41.7794Z" fill="#0095DA"/>
<path d="M166.476 41.7763H165.378V42.8741H166.476V41.7763Z" fill="#0095DA"/>
<path d="M157.053 40.4337H155.955V41.5315H157.053V40.4337Z" fill="#0095DA"/>
<path d="M158.402 40.4337H157.304V41.5315H158.402V40.4337Z" fill="#0095DA"/>
<path d="M155.707 40.4337H154.609V41.5315H155.707V40.4337Z" fill="#0095DA"/>
<path d="M171.847 40.4307H170.75V41.5284H171.847V40.4307Z" fill="#0095DA"/>
<path d="M174.546 40.4307H173.448V41.5284H174.546V40.4307Z" fill="#0095DA"/>
<path d="M173.194 40.4307H172.096V41.5284H173.194V40.4307Z" fill="#0095DA"/>
<path d="M159.748 40.4299H158.65V41.5276H159.748V40.4299Z" fill="#0095DA"/>
<path d="M162.438 40.4314H161.34V41.5292H162.438V40.4314Z" fill="#0095DA"/>
<path d="M165.127 40.4299H164.029V41.5276H165.127V40.4299Z" fill="#0095DA"/>
<path d="M163.779 40.4299H162.682V41.5276H163.779V40.4299Z" fill="#0095DA"/>
<path d="M161.092 40.4314H159.994V41.5292H161.092V40.4314Z" fill="#0095DA"/>
<path d="M167.813 40.433H166.715V41.5307H167.813V40.433Z" fill="#0095DA"/>
<path d="M170.508 40.4299H169.411V41.5276H170.508V40.4299Z" fill="#0095DA"/>
<path d="M169.161 40.433H168.064V41.5307H169.161V40.433Z" fill="#0095DA"/>
<path d="M166.474 40.4299H165.376V41.5276H166.474V40.4299Z" fill="#0095DA"/>
<path d="M157.053 43.1167H155.955V44.2145H157.053V43.1167Z" fill="#0095DA"/>
<path d="M158.401 43.1167H157.303V44.2145H158.401V43.1167Z" fill="#0095DA"/>
<path d="M155.707 43.1167H154.609V44.2145H155.707V43.1167Z" fill="#0095DA"/>
<path d="M171.847 43.1136H170.749V44.2114H171.847V43.1136Z" fill="#0095DA"/>
<path d="M174.546 43.1136H173.448V44.2114H174.546V43.1136Z" fill="#0095DA"/>
<path d="M173.193 43.1136H172.095V44.2114H173.193V43.1136Z" fill="#0095DA"/>
<path d="M159.748 43.1129H158.65V44.2106H159.748V43.1129Z" fill="#0095DA"/>
<path d="M162.438 43.1144H161.34V44.2121H162.438V43.1144Z" fill="#0095DA"/>
<path d="M165.127 43.1129H164.029V44.2106H165.127V43.1129Z" fill="#0095DA"/>
<path d="M163.779 43.1129H162.682V44.2106H163.779V43.1129Z" fill="#0095DA"/>
<path d="M161.092 43.1144H159.994V44.2121H161.092V43.1144Z" fill="#0095DA"/>
<path d="M167.813 43.1159H166.715V44.2137H167.813V43.1159Z" fill="#0095DA"/>
<path d="M170.508 43.1129H169.41V44.2106H170.508V43.1129Z" fill="#0095DA"/>
<path d="M169.16 43.1159H168.063V44.2137H169.16V43.1159Z" fill="#0095DA"/>
<path d="M166.474 43.1129H165.376V44.2106H166.474V43.1129Z" fill="#0095DA"/>
<path d="M157.052 44.4585H155.955V45.5563H157.052V44.4585Z" fill="#0095DA"/>
<path d="M158.399 44.4585H157.301V45.5563H158.399V44.4585Z" fill="#0095DA"/>
<path d="M155.706 44.4578H154.608V45.5555H155.706V44.4578Z" fill="#0095DA"/>
<path d="M171.855 44.4578H170.757V45.5555H171.855V44.4578Z" fill="#0095DA"/>
<path d="M159.748 44.4578H158.651V45.5555H159.748V44.4578Z" fill="#0095DA"/>
<path d="M162.437 44.4578H161.339V45.5555H162.437V44.4578Z" fill="#0095DA"/>
<path d="M165.126 44.4578H164.028V45.5555H165.126V44.4578Z" fill="#0095DA"/>
<path d="M163.783 44.4578H162.685V45.5555H163.783V44.4578Z" fill="#0095DA"/>
<path d="M161.09 44.4585H159.992V45.5563H161.09V44.4585Z" fill="#0095DA"/>
<path d="M167.813 44.4608H166.716V45.5586H167.813V44.4608Z" fill="#0095DA"/>
<path d="M170.508 44.4578H169.411V45.5555H170.508V44.4578Z" fill="#0095DA"/>
<path d="M169.161 44.4608H168.064V45.5586H169.161V44.4608Z" fill="#0095DA"/>
<path d="M166.475 44.4578H165.377V45.5555H166.475V44.4578Z" fill="#0095DA"/>
<path d="M154.361 31.0498H153.263V32.1476H154.361V31.0498Z" fill="#0095DA"/>
<path d="M153.015 31.0498H151.917V32.1476H153.015V31.0498Z" fill="#0095DA"/>
<path d="M151.667 31.0498H150.57V32.1476H151.667V31.0498Z" fill="#0095DA"/>
<path d="M150.32 31.0498H149.222V32.1476H150.32V31.0498Z" fill="#0095DA"/>
<path d="M148.974 31.0498H147.876V32.1476H148.974V31.0498Z" fill="#0095DA"/>
<path d="M147.626 31.0498H146.528V32.1476H147.626V31.0498Z" fill="#0095DA"/>
<path d="M146.279 31.0498H145.182V32.1476H146.279V31.0498Z" fill="#0095DA"/>
<path d="M144.932 31.0498H143.834V32.1476H144.932V31.0498Z" fill="#0095DA"/>
<path d="M143.585 31.0498H142.487V32.1476H143.585V31.0498Z" fill="#0095DA"/>
<path d="M151.66 32.3894H150.562V33.4871H151.66V32.3894Z" fill="#0095DA"/>
<path d="M154.358 32.3894H153.26V33.4871H154.358V32.3894Z" fill="#0095DA"/>
<path d="M153.006 32.3894H151.909V33.4871H153.006V32.3894Z" fill="#0095DA"/>
<path d="M142.238 32.3879H141.14V33.4856H142.238V32.3879Z" fill="#0095DA"/>
<path d="M144.932 32.3879H143.834V33.4856H144.932V32.3879Z" fill="#0095DA"/>
<path d="M143.585 32.3879H142.487V33.4856H143.585V32.3879Z" fill="#0095DA"/>
<path d="M140.902 32.3886H139.804V33.4864H140.902V32.3886Z" fill="#0095DA"/>
<path d="M147.625 32.3909H146.527V33.4886H147.625V32.3909Z" fill="#0095DA"/>
<path d="M150.321 32.3879H149.223V33.4856H150.321V32.3879Z" fill="#0095DA"/>
<path d="M148.974 32.3909H147.876V33.4886H148.974V32.3909Z" fill="#0095DA"/>
<path d="M146.28 32.3879H145.182V33.4856H146.28V32.3879Z" fill="#0095DA"/>
<path d="M151.661 33.7122H150.563V34.8099H151.661V33.7122Z" fill="#0095DA"/>
<path d="M154.359 33.7122H153.261V34.8099H154.359V33.7122Z" fill="#0095DA"/>
<path d="M153.007 33.7122H151.909V34.8099H153.007V33.7122Z" fill="#0095DA"/>
<path d="M139.561 33.7107H138.463V34.8084H139.561V33.7107Z" fill="#0095DA"/>
<path d="M142.239 33.7099H141.142V34.8076H142.239V33.7099Z" fill="#0095DA"/>
<path d="M144.934 33.7107H143.836V34.8084H144.934V33.7107Z" fill="#0095DA"/>
<path d="M143.586 33.7099H142.489V34.8076H143.586V33.7099Z" fill="#0095DA"/>
<path d="M147.626 33.7145H146.528V34.8122H147.626V33.7145Z" fill="#0095DA"/>
<path d="M150.322 33.7107H149.224V34.8084H150.322V33.7107Z" fill="#0095DA"/>
<path d="M148.975 33.7145H147.877V34.8122H148.975V33.7145Z" fill="#0095DA"/>
<path d="M146.282 33.7107H145.184V34.8084H146.282V33.7107Z" fill="#0095DA"/>
<path d="M151.66 35.0624H150.562V36.1602H151.66V35.0624Z" fill="#0095DA"/>
<path d="M154.358 35.0624H153.26V36.1602H154.358V35.0624Z" fill="#0095DA"/>
<path d="M153.006 35.0624H151.909V36.1602H153.006V35.0624Z" fill="#0095DA"/>
<path d="M139.56 35.0617H138.462V36.1594H139.56V35.0617Z" fill="#0095DA"/>
<path d="M142.238 35.0617H141.14V36.1594H142.238V35.0617Z" fill="#0095DA"/>
<path d="M144.932 35.0617H143.834V36.1594H144.932V35.0617Z" fill="#0095DA"/>
<path d="M143.585 35.0617H142.487V36.1594H143.585V35.0617Z" fill="#0095DA"/>
<path d="M140.902 35.0624H139.804V36.1602H140.902V35.0624Z" fill="#0095DA"/>
<path d="M147.625 35.0647H146.527V36.1625H147.625V35.0647Z" fill="#0095DA"/>
<path d="M150.321 35.0624H149.223V36.1602H150.321V35.0624Z" fill="#0095DA"/>
<path d="M148.974 35.0647H147.876V36.1625H148.974V35.0647Z" fill="#0095DA"/>
<path d="M146.28 35.0617H145.182V36.1594H146.28V35.0617Z" fill="#0095DA"/>
<path d="M151.66 36.3974H150.562V37.4952H151.66V36.3974Z" fill="#0095DA"/>
<path d="M154.358 36.3974H153.26V37.4952H154.358V36.3974Z" fill="#0095DA"/>
<path d="M153.006 36.3974H151.909V37.4952H153.006V36.3974Z" fill="#0095DA"/>
<path d="M142.238 36.3959H141.14V37.4937H142.238V36.3959Z" fill="#0095DA"/>
<path d="M144.932 36.3959H143.834V37.4937H144.932V36.3959Z" fill="#0095DA"/>
<path d="M143.585 36.3959H142.487V37.4937H143.585V36.3959Z" fill="#0095DA"/>
<path d="M147.625 36.3997H146.527V37.4975H147.625V36.3997Z" fill="#0095DA"/>
<path d="M150.321 36.3967H149.223V37.4944H150.321V36.3967Z" fill="#0095DA"/>
<path d="M148.974 36.3997H147.876V37.4975H148.974V36.3997Z" fill="#0095DA"/>
<path d="M146.28 36.3967H145.182V37.4944H146.28V36.3967Z" fill="#0095DA"/>
<path d="M143.587 39.0789H142.49V40.1766H143.587V39.0789Z" fill="#0095DA"/>
<path d="M146.283 39.0842H145.185V40.182H146.283V39.0842Z" fill="#0095DA"/>
<path d="M148.973 39.0827H147.875V40.1805H148.973V39.0827Z" fill="#0095DA"/>
<path d="M147.63 39.0842H146.533V40.182H147.63V39.0842Z" fill="#0095DA"/>
<path d="M144.933 39.0789H143.835V40.1766H144.933V39.0789Z" fill="#0095DA"/>
<path d="M151.666 39.0865H150.568V40.1843H151.666V39.0865Z" fill="#0095DA"/>
<path d="M154.362 39.0819H153.264V40.1797H154.362V39.0819Z" fill="#0095DA"/>
<path d="M153.015 39.0804H151.918V40.1782H153.015V39.0804Z" fill="#0095DA"/>
<path d="M150.322 39.0835H149.224V40.1812H150.322V39.0835Z" fill="#0095DA"/>
<path d="M151.669 37.7424H150.571V38.8401H151.669V37.7424Z" fill="#0095DA"/>
<path d="M154.367 37.7424H153.269V38.8401H154.367V37.7424Z" fill="#0095DA"/>
<path d="M153.015 37.7424H151.918V38.8401H153.015V37.7424Z" fill="#0095DA"/>
<path d="M142.24 37.7439H141.142V38.8416H142.24V37.7439Z" fill="#0095DA"/>
<path d="M144.942 37.7401H143.844V38.8378H144.942V37.7401Z" fill="#0095DA"/>
<path d="M143.581 37.7378H142.483V38.8355H143.581V37.7378Z" fill="#0095DA"/>
<path d="M147.634 37.7439H146.536V38.8416H147.634V37.7439Z" fill="#0095DA"/>
<path d="M150.33 37.7408H149.232V38.8386H150.33V37.7408Z" fill="#0095DA"/>
<path d="M148.983 37.7439H147.885V38.8416H148.983V37.7439Z" fill="#0095DA"/>
<path d="M146.289 37.7408H145.192V38.8386H146.289V37.7408Z" fill="#0095DA"/>
<path d="M142.236 39.0789H141.138V40.1766H142.236V39.0789Z" fill="#0095DA"/>
<path d="M143.585 40.4398H142.487V41.5376H143.585V40.4398Z" fill="#0095DA"/>
<path d="M146.279 40.439H145.182V41.5368H146.279V40.439Z" fill="#0095DA"/>
<path d="M148.969 40.436H147.871V41.5337H148.969V40.436Z" fill="#0095DA"/>
<path d="M147.626 40.4368H146.528V41.5345H147.626V40.4368Z" fill="#0095DA"/>
<path d="M144.932 40.4398H143.834V41.5376H144.932V40.4398Z" fill="#0095DA"/>
<path d="M151.662 40.4398H150.564V41.5376H151.662V40.4398Z" fill="#0095DA"/>
<path d="M154.358 40.4345H153.26V41.5322H154.358V40.4345Z" fill="#0095DA"/>
<path d="M153.012 40.4337H151.914V41.5315H153.012V40.4337Z" fill="#0095DA"/>
<path d="M150.317 40.4368H149.219V41.5345H150.317V40.4368Z" fill="#0095DA"/>
<path d="M142.238 40.4398H141.14V41.5376H142.238V40.4398Z" fill="#0095DA"/>
<path d="M143.585 41.7763H142.487V42.8741H143.585V41.7763Z" fill="#0095DA"/>
<path d="M146.279 41.7802H145.181V42.8779H146.279V41.7802Z" fill="#0095DA"/>
<path d="M148.969 41.7786H147.871V42.8764H148.969V41.7786Z" fill="#0095DA"/>
<path d="M147.626 41.7802H146.528V42.8779H147.626V41.7802Z" fill="#0095DA"/>
<path d="M144.943 41.7809H143.845V42.8787H144.943V41.7809Z" fill="#0095DA"/>
<path d="M151.662 41.7824H150.564V42.8802H151.662V41.7824Z" fill="#0095DA"/>
<path d="M154.358 41.7771H153.26V42.8749H154.358V41.7771Z" fill="#0095DA"/>
<path d="M153.012 41.7763H151.914V42.8741H153.012V41.7763Z" fill="#0095DA"/>
<path d="M150.317 41.7794H149.219V42.8771H150.317V41.7794Z" fill="#0095DA"/>
<path d="M142.237 41.7771H141.139V42.8749H142.237V41.7771Z" fill="#0095DA"/>
<path d="M143.583 43.1129H142.486V44.2106H143.583V43.1129Z" fill="#0095DA"/>
<path d="M146.279 43.1136H145.181V44.2114H146.279V43.1136Z" fill="#0095DA"/>
<path d="M148.973 43.1151H147.875V44.2129H148.973V43.1151Z" fill="#0095DA"/>
<path d="M147.626 43.1144H146.528V44.2121H147.626V43.1144Z" fill="#0095DA"/>
<path d="M144.932 43.1144H143.834V44.2121H144.932V43.1144Z" fill="#0095DA"/>
<path d="M151.667 43.1151H150.57V44.2129H151.667V43.1151Z" fill="#0095DA"/>
<path d="M154.361 43.1151H153.263V44.2129H154.361V43.1151Z" fill="#0095DA"/>
<path d="M153.014 43.1151H151.916V44.2129H153.014V43.1151Z" fill="#0095DA"/>
<path d="M150.321 43.1144H149.223V44.2121H150.321V43.1144Z" fill="#0095DA"/>
<path d="M142.232 43.1129H141.134V44.2106H142.232V43.1129Z" fill="#0095DA"/>
<path d="M143.585 44.4578H142.487V45.5555H143.585V44.4578Z" fill="#0095DA"/>
<path d="M146.279 44.4578H145.181V45.5555H146.279V44.4578Z" fill="#0095DA"/>
<path d="M148.973 44.4608H147.875V45.5586H148.973V44.4608Z" fill="#0095DA"/>
<path d="M147.63 44.4616H146.533V45.5594H147.63V44.4616Z" fill="#0095DA"/>
<path d="M144.931 44.4578H143.834V45.5555H144.931V44.4578Z" fill="#0095DA"/>
<path d="M151.666 44.4647H150.568V45.5624H151.666V44.4647Z" fill="#0095DA"/>
<path d="M154.362 44.4593H153.264V45.5571H154.362V44.4593Z" fill="#0095DA"/>
<path d="M153.015 44.4585H151.918V45.5563H153.015V44.4585Z" fill="#0095DA"/>
<path d="M150.322 44.4608H149.224V45.5586H150.322V44.4608Z" fill="#0095DA"/>
<path d="M142.236 44.4563H141.138V45.554H142.236V44.4563Z" fill="#0095DA"/>
<path d="M157.052 45.7951H155.955V46.8928H157.052V45.7951Z" fill="#0095DA"/>
<path d="M158.399 45.7951H157.301V46.8928H158.399V45.7951Z" fill="#0095DA"/>
<path d="M155.706 45.7943H154.608V46.8921H155.706V45.7943Z" fill="#0095DA"/>
<path d="M159.748 45.7943H158.651V46.8921H159.748V45.7943Z" fill="#0095DA"/>
<path d="M162.437 45.7951H161.339V46.8928H162.437V45.7951Z" fill="#0095DA"/>
<path d="M165.126 45.7951H164.028V46.8928H165.126V45.7951Z" fill="#0095DA"/>
<path d="M163.783 45.7951H162.685V46.8928H163.783V45.7951Z" fill="#0095DA"/>
<path d="M161.09 45.7951H159.992V46.8928H161.09V45.7951Z" fill="#0095DA"/>
<path d="M167.813 45.7974H166.716V46.8951H167.813V45.7974Z" fill="#0095DA"/>
<path d="M169.161 45.7974H168.064V46.8951H169.161V45.7974Z" fill="#0095DA"/>
<path d="M166.475 45.7943H165.377V46.8921H166.475V45.7943Z" fill="#0095DA"/>
<path d="M150.323 47.1324H149.225V48.2301H150.323V47.1324Z" fill="#0095DA"/>
<path d="M151.669 47.1324H150.571V48.2301H151.669V47.1324Z" fill="#0095DA"/>
<path d="M148.977 47.1316H147.879V48.2294H148.977V47.1316Z" fill="#0095DA"/>
<path d="M165.128 47.1324H164.03V48.2301H165.128V47.1324Z" fill="#0095DA"/>
<path d="M167.816 47.1324H166.719V48.2301H167.816V47.1324Z" fill="#0095DA"/>
<path d="M166.475 47.1324H165.377V48.2301H166.475V47.1324Z" fill="#0095DA"/>
<path d="M153.018 47.1316H151.921V48.2294H153.018V47.1316Z" fill="#0095DA"/>
<path d="M155.707 47.1316H154.609V48.2294H155.707V47.1316Z" fill="#0095DA"/>
<path d="M158.397 47.1316H157.299V48.2294H158.397V47.1316Z" fill="#0095DA"/>
<path d="M157.054 47.1316H155.956V48.2294H157.054V47.1316Z" fill="#0095DA"/>
<path d="M154.36 47.1324H153.263V48.2301H154.36V47.1324Z" fill="#0095DA"/>
<path d="M161.092 47.1331H159.994V48.2309H161.092V47.1331Z" fill="#0095DA"/>
<path d="M163.785 47.1301H162.688V48.2278H163.785V47.1301Z" fill="#0095DA"/>
<path d="M162.438 47.1331H161.34V48.2309H162.438V47.1331Z" fill="#0095DA"/>
<path d="M159.745 47.1316H158.647V48.2294H159.745V47.1316Z" fill="#0095DA"/>
<path d="M147.631 48.4697H146.533V49.5674H147.631V48.4697Z" fill="#0095DA"/>
<path d="M148.978 48.4697H147.88V49.5674H148.978V48.4697Z" fill="#0095DA"/>
<path d="M146.285 48.4689H145.187V49.5666H146.285V48.4689Z" fill="#0095DA"/>
<path d="M162.438 48.4704H161.34V49.5682H162.438V48.4704Z" fill="#0095DA"/>
<path d="M165.125 48.4704H164.027V49.5682H165.125V48.4704Z" fill="#0095DA"/>
<path d="M163.784 48.4697H162.686V49.5674H163.784V48.4697Z" fill="#0095DA"/>
<path d="M150.327 48.4689H149.229V49.5666H150.327V48.4689Z" fill="#0095DA"/>
<path d="M153.015 48.4689H151.918V49.5666H153.015V48.4689Z" fill="#0095DA"/>
<path d="M155.708 48.4697H154.61V49.5674H155.708V48.4697Z" fill="#0095DA"/>
<path d="M154.363 48.4697H153.265V49.5674H154.363V48.4697Z" fill="#0095DA"/>
<path d="M151.669 48.4697H150.571V49.5674H151.669V48.4697Z" fill="#0095DA"/>
<path d="M158.4 48.4697H157.303V49.5674H158.4V48.4697Z" fill="#0095DA"/>
<path d="M161.087 48.4689H159.989V49.5666H161.087V48.4689Z" fill="#0095DA"/>
<path d="M159.74 48.4719H158.642V49.5697H159.74V48.4719Z" fill="#0095DA"/>
<path d="M157.054 48.4697H155.956V49.5674H157.054V48.4697Z" fill="#0095DA"/>
<path d="M144.932 49.8046H143.834V50.9024H144.932V49.8046Z" fill="#0095DA"/>
<path d="M146.279 49.8046H145.182V50.9024H146.279V49.8046Z" fill="#0095DA"/>
<path d="M143.583 49.8054H142.485V50.9032H143.583V49.8054Z" fill="#0095DA"/>
<path d="M159.74 49.8054H158.642V50.9032H159.74V49.8054Z" fill="#0095DA"/>
<path d="M162.439 49.8054H161.341V50.9032H162.439V49.8054Z" fill="#0095DA"/>
<path d="M161.086 49.8054H159.989V50.9032H161.086V49.8054Z" fill="#0095DA"/>
<path d="M147.626 49.8046H146.528V50.9024H147.626V49.8046Z" fill="#0095DA"/>
<path d="M150.32 49.8046H149.222V50.9024H150.32V49.8046Z" fill="#0095DA"/>
<path d="M153.014 49.8046H151.916V50.9024H153.014V49.8046Z" fill="#0095DA"/>
<path d="M151.667 49.8046H150.57V50.9024H151.667V49.8046Z" fill="#0095DA"/>
<path d="M148.973 49.8046H147.875V50.9024H148.973V49.8046Z" fill="#0095DA"/>
<path d="M155.69 49.8077H154.592V50.9055H155.69V49.8077Z" fill="#0095DA"/>
<path d="M158.385 49.8054H157.287V50.9032H158.385V49.8054Z" fill="#0095DA"/>
<path d="M157.038 49.8077H155.94V50.9055H157.038V49.8077Z" fill="#0095DA"/>
<path d="M154.362 49.8046H153.264V50.9024H154.362V49.8046Z" fill="#0095DA"/>
<path d="M144.931 51.1412H143.834V52.2389H144.931V51.1412Z" fill="#0095DA"/>
<path d="M146.279 51.1419H145.182V52.2397H146.279V51.1419Z" fill="#0095DA"/>
<path d="M143.584 51.1404H142.486V52.2382H143.584V51.1404Z" fill="#0095DA"/>
<path d="M159.748 51.1419H158.651V52.2397H159.748V51.1419Z" fill="#0095DA"/>
<path d="M162.447 51.1419H161.349V52.2397H162.447V51.1419Z" fill="#0095DA"/>
<path d="M161.094 51.1419H159.996V52.2397H161.094V51.1419Z" fill="#0095DA"/>
<path d="M147.626 51.1419H146.528V52.2397H147.626V51.1419Z" fill="#0095DA"/>
<path d="M150.321 51.1419H149.223V52.2397H150.321V51.1419Z" fill="#0095DA"/>
<path d="M153.014 51.1419H151.916V52.2397H153.014V51.1419Z" fill="#0095DA"/>
<path d="M151.667 51.1419H150.57V52.2397H151.667V51.1419Z" fill="#0095DA"/>
<path d="M148.973 51.1419H147.875V52.2397H148.973V51.1419Z" fill="#0095DA"/>
<path d="M155.714 51.1442H154.616V52.242H155.714V51.1442Z" fill="#0095DA"/>
<path d="M158.399 51.1396H157.301V52.2374H158.399V51.1396Z" fill="#0095DA"/>
<path d="M157.062 51.1442H155.964V52.242H157.062V51.1442Z" fill="#0095DA"/>
<path d="M154.361 51.1419H153.263V52.2397H154.361V51.1419Z" fill="#0095DA"/>
<path d="M144.931 52.4792H143.834V53.577H144.931V52.4792Z" fill="#0095DA"/>
<path d="M146.279 52.4807H145.182V53.5785H146.279V52.4807Z" fill="#0095DA"/>
<path d="M143.584 52.4792H142.486V53.577H143.584V52.4792Z" fill="#0095DA"/>
<path d="M159.748 52.4815H158.651V53.5793H159.748V52.4815Z" fill="#0095DA"/>
<path d="M161.094 52.4815H159.996V53.5793H161.094V52.4815Z" fill="#0095DA"/>
<path d="M147.631 52.48H146.533V53.5777H147.631V52.48Z" fill="#0095DA"/>
<path d="M150.321 52.4792H149.223V53.577H150.321V52.4792Z" fill="#0095DA"/>
<path d="M153.015 52.4792H151.917V53.577H153.015V52.4792Z" fill="#0095DA"/>
<path d="M151.667 52.4792H150.57V53.577H151.667V52.4792Z" fill="#0095DA"/>
<path d="M148.973 52.4807H147.875V53.5785H148.973V52.4807Z" fill="#0095DA"/>
<path d="M155.705 52.48H154.608V53.5777H155.705V52.48Z" fill="#0095DA"/>
<path d="M158.399 52.4785H157.301V53.5762H158.399V52.4785Z" fill="#0095DA"/>
<path d="M157.054 52.48H155.956V53.5777H157.054V52.48Z" fill="#0095DA"/>
<path d="M154.361 52.4792H153.263V53.577H154.361V52.4792Z" fill="#0095DA"/>
<path d="M143.586 53.8211H142.489V54.9189H143.586V53.8211Z" fill="#0095DA"/>
<path d="M157.049 53.818H155.951V54.9158H157.049V53.818Z" fill="#0095DA"/>
<path d="M159.748 53.818H158.65V54.9158H159.748V53.818Z" fill="#0095DA"/>
<path d="M158.395 53.818H157.297V54.9158H158.395V53.818Z" fill="#0095DA"/>
<path d="M144.941 53.8203H143.844V54.9181H144.941V53.8203Z" fill="#0095DA"/>
<path d="M147.63 53.8203H146.532V54.9181H147.63V53.8203Z" fill="#0095DA"/>
<path d="M150.319 53.8203H149.221V54.9181H150.319V53.8203Z" fill="#0095DA"/>
<path d="M148.976 53.8203H147.878V54.9181H148.976V53.8203Z" fill="#0095DA"/>
<path d="M146.283 53.8211H145.185V54.9189H146.283V53.8211Z" fill="#0095DA"/>
<path d="M153.015 53.8173H151.917V54.915H153.015V53.8173Z" fill="#0095DA"/>
<path d="M155.711 53.8173H154.613V54.915H155.711V53.8173Z" fill="#0095DA"/>
<path d="M154.363 53.8203H153.265V54.9181H154.363V53.8203Z" fill="#0095DA"/>
<path d="M151.667 53.8173H150.57V54.915H151.667V53.8173Z" fill="#0095DA"/>
<path d="M151.665 45.7958H150.567V46.8936H151.665V45.7958Z" fill="#0095DA"/>
<path d="M154.364 45.7958H153.266V46.8936H154.364V45.7958Z" fill="#0095DA"/>
<path d="M153.012 45.7958H151.914V46.8936H153.012V45.7958Z" fill="#0095DA"/>
<path d="M142.241 45.7958H141.143V46.8936H142.241V45.7958Z" fill="#0095DA"/>
<path d="M144.932 45.7935H143.834V46.8913H144.932V45.7935Z" fill="#0095DA"/>
<path d="M143.585 45.7958H142.487V46.8936H143.585V45.7958Z" fill="#0095DA"/>
<path d="M140.892 45.7943H139.794V46.8921H140.892V45.7943Z" fill="#0095DA"/>
<path d="M147.631 45.7974H146.533V46.8951H147.631V45.7974Z" fill="#0095DA"/>
<path d="M150.327 45.7951H149.229V46.8928H150.327V45.7951Z" fill="#0095DA"/>
<path d="M148.979 45.7974H147.881V46.8951H148.979V45.7974Z" fill="#0095DA"/>
<path d="M146.276 45.7928H145.179V46.8905H146.276V45.7928Z" fill="#0095DA"/>
<path d="M144.927 47.1324H143.829V48.2301H144.927V47.1324Z" fill="#0095DA"/>
<path d="M147.626 47.1324H146.528V48.2301H147.626V47.1324Z" fill="#0095DA"/>
<path d="M146.279 47.1324H145.182V48.2301H146.279V47.1324Z" fill="#0095DA"/>
<path d="M140.893 47.1347H139.795V48.2324H140.893V47.1347Z" fill="#0095DA"/>
<path d="M143.585 47.1331H142.487V48.2309H143.585V47.1331Z" fill="#0095DA"/>
<path d="M142.241 47.1347H141.143V48.2324H142.241V47.1347Z" fill="#0095DA"/>
<path d="M142.236 48.4704H141.138V49.5682H142.236V48.4704Z" fill="#0095DA"/>
<path d="M144.934 48.4704H143.836V49.5682H144.934V48.4704Z" fill="#0095DA"/>
<path d="M143.581 48.4704H142.483V49.5682H143.581V48.4704Z" fill="#0095DA"/>
<path d="M151.664 29.711H150.566V30.8087H151.664V29.711Z" fill="#0095DA"/>
<path d="M154.362 29.711H153.264V30.8087H154.362V29.711Z" fill="#0095DA"/>
<path d="M153.009 29.711H151.912V30.8087H153.009V29.711Z" fill="#0095DA"/>
<path d="M139.55 29.7095H138.452V30.8072H139.55V29.7095Z" fill="#0095DA"/>
<path d="M142.239 29.7102H141.141V30.808H142.239V29.7102Z" fill="#0095DA"/>
<path d="M144.928 29.7102H143.831V30.808H144.928V29.7102Z" fill="#0095DA"/>
<path d="M143.585 29.7102H142.487V30.808H143.585V29.7102Z" fill="#0095DA"/>
<path d="M140.892 29.7102H139.794V30.808H140.892V29.7102Z" fill="#0095DA"/>
<path d="M147.629 29.7125H146.531V30.8103H147.629V29.7125Z" fill="#0095DA"/>
<path d="M150.325 29.7102H149.227V30.808H150.325V29.7102Z" fill="#0095DA"/>
<path d="M148.977 29.7125H147.879V30.8103H148.977V29.7125Z" fill="#0095DA"/>
<path d="M146.29 29.7095H145.192V30.8072H146.29V29.7095Z" fill="#0095DA"/>
<path d="M157.056 28.3768H155.958V29.4745H157.056V28.3768Z" fill="#0095DA"/>
<path d="M158.404 28.3768H157.306V29.4745H158.404V28.3768Z" fill="#0095DA"/>
<path d="M155.71 28.3768H154.612V29.4745H155.71V28.3768Z" fill="#0095DA"/>
<path d="M171.854 28.3745H170.756V29.4722H171.854V28.3745Z" fill="#0095DA"/>
<path d="M159.751 28.373H158.653V29.4707H159.751V28.373Z" fill="#0095DA"/>
<path d="M162.441 28.3752H161.344V29.473H162.441V28.3752Z" fill="#0095DA"/>
<path d="M165.13 28.373H164.032V29.4707H165.13V28.373Z" fill="#0095DA"/>
<path d="M163.782 28.373H162.685V29.4707H163.782V28.373Z" fill="#0095DA"/>
<path d="M161.095 28.3752H159.997V29.473H161.095V28.3752Z" fill="#0095DA"/>
<path d="M167.816 28.376H166.718V29.4737H167.816V28.376Z" fill="#0095DA"/>
<path d="M170.512 28.373H169.414V29.4707H170.512V28.373Z" fill="#0095DA"/>
<path d="M169.164 28.376H168.066V29.4737H169.164V28.376Z" fill="#0095DA"/>
<path d="M166.477 28.373H165.379V29.4707H166.477V28.373Z" fill="#0095DA"/>
<path d="M157.055 25.6976H155.958V26.7954H157.055V25.6976Z" fill="#0095DA"/>
<path d="M158.402 25.6976H157.304V26.7954H158.402V25.6976Z" fill="#0095DA"/>
<path d="M155.709 25.6968H154.611V26.7946H155.709V25.6968Z" fill="#0095DA"/>
<path d="M171.85 25.6984H170.753V26.7961H171.85V25.6984Z" fill="#0095DA"/>
<path d="M174.549 25.6984H173.451V26.7961H174.549V25.6984Z" fill="#0095DA"/>
<path d="M173.197 25.6984H172.099V26.7961H173.197V25.6984Z" fill="#0095DA"/>
<path d="M159.751 25.6968H158.653V26.7946H159.751V25.6968Z" fill="#0095DA"/>
<path d="M162.439 25.6976H161.341V26.7954H162.439V25.6976Z" fill="#0095DA"/>
<path d="M165.13 25.6976H164.032V26.7954H165.13V25.6976Z" fill="#0095DA"/>
<path d="M163.786 25.6976H162.688V26.7954H163.786V25.6976Z" fill="#0095DA"/>
<path d="M161.093 25.6976H159.995V26.7954H161.093V25.6976Z" fill="#0095DA"/>
<path d="M167.816 25.7007H166.718V26.7984H167.816V25.7007Z" fill="#0095DA"/>
<path d="M170.512 25.6968H169.414V26.7946H170.512V25.6968Z" fill="#0095DA"/>
<path d="M169.164 25.7007H168.067V26.7984H169.164V25.7007Z" fill="#0095DA"/>
<path d="M166.477 25.6968H165.379V26.7946H166.477V25.6968Z" fill="#0095DA"/>
<path d="M157.054 27.0379H155.956V28.1357H157.054V27.0379Z" fill="#0095DA"/>
<path d="M158.402 27.0379H157.304V28.1357H158.402V27.0379Z" fill="#0095DA"/>
<path d="M155.708 27.0379H154.61V28.1357H155.708V27.0379Z" fill="#0095DA"/>
<path d="M171.847 27.0349H170.75V28.1326H171.847V27.0349Z" fill="#0095DA"/>
<path d="M159.748 27.0334H158.651V28.1311H159.748V27.0334Z" fill="#0095DA"/>
<path d="M162.439 27.0356H161.341V28.1334H162.439V27.0356Z" fill="#0095DA"/>
<path d="M165.127 27.0334H164.03V28.1311H165.127V27.0334Z" fill="#0095DA"/>
<path d="M163.78 27.0334H162.682V28.1311H163.78V27.0334Z" fill="#0095DA"/>
<path d="M161.093 27.0356H159.995V28.1334H161.093V27.0356Z" fill="#0095DA"/>
<path d="M167.813 27.0372H166.716V28.1349H167.813V27.0372Z" fill="#0095DA"/>
<path d="M170.509 27.0334H169.411V28.1311H170.509V27.0334Z" fill="#0095DA"/>
<path d="M169.161 27.0372H168.064V28.1349H169.161V27.0372Z" fill="#0095DA"/>
<path d="M166.475 27.0334H165.377V28.1311H166.475V27.0334Z" fill="#0095DA"/>
<path d="M157.052 23.0192H155.955V24.117H157.052V23.0192Z" fill="#0095DA"/>
<path d="M158.399 23.0192H157.301V24.117H158.399V23.0192Z" fill="#0095DA"/>
<path d="M155.706 23.0185H154.608V24.1162H155.706V23.0185Z" fill="#0095DA"/>
<path d="M171.847 23.0192H170.75V24.117H171.847V23.0192Z" fill="#0095DA"/>
<path d="M174.546 23.0192H173.449V24.117H174.546V23.0192Z" fill="#0095DA"/>
<path d="M173.194 23.0192H172.096V24.117H173.194V23.0192Z" fill="#0095DA"/>
<path d="M159.748 23.0185H158.651V24.1162H159.748V23.0185Z" fill="#0095DA"/>
<path d="M162.437 23.0185H161.339V24.1162H162.437V23.0185Z" fill="#0095DA"/>
<path d="M165.127 23.0185H164.029V24.1162H165.127V23.0185Z" fill="#0095DA"/>
<path d="M163.783 23.0185H162.685V24.1162H163.783V23.0185Z" fill="#0095DA"/>
<path d="M161.09 23.0185H159.992V24.1162H161.09V23.0185Z" fill="#0095DA"/>
<path d="M167.813 23.0215H166.716V24.1193H167.813V23.0215Z" fill="#0095DA"/>
<path d="M170.508 23.0185H169.411V24.1162H170.508V23.0185Z" fill="#0095DA"/>
<path d="M169.161 23.0215H168.064V24.1193H169.161V23.0215Z" fill="#0095DA"/>
<path d="M166.475 23.0185H165.377V24.1162H166.475V23.0185Z" fill="#0095DA"/>
<path d="M157.054 24.3626H155.956V25.4604H157.054V24.3626Z" fill="#0095DA"/>
<path d="M158.402 24.3626H157.304V25.4604H158.402V24.3626Z" fill="#0095DA"/>
<path d="M155.708 24.3626H154.61V25.4604H155.708V24.3626Z" fill="#0095DA"/>
<path d="M171.847 24.3596H170.75V25.4573H171.847V24.3596Z" fill="#0095DA"/>
<path d="M174.546 24.3596H173.449V25.4573H174.546V24.3596Z" fill="#0095DA"/>
<path d="M173.194 24.3596H172.096V25.4573H173.194V24.3596Z" fill="#0095DA"/>
<path d="M159.748 24.3588H158.651V25.4565H159.748V24.3588Z" fill="#0095DA"/>
<path d="M162.439 24.3611H161.341V25.4588H162.439V24.3611Z" fill="#0095DA"/>
<path d="M165.127 24.3588H164.03V25.4565H165.127V24.3588Z" fill="#0095DA"/>
<path d="M163.78 24.3588H162.682V25.4565H163.78V24.3588Z" fill="#0095DA"/>
<path d="M161.093 24.3611H159.995V25.4588H161.093V24.3611Z" fill="#0095DA"/>
<path d="M167.813 24.3618H166.716V25.4596H167.813V24.3618Z" fill="#0095DA"/>
<path d="M170.509 24.3588H169.411V25.4565H170.509V24.3588Z" fill="#0095DA"/>
<path d="M169.161 24.3618H168.064V25.4596H169.161V24.3618Z" fill="#0095DA"/>
<path d="M166.475 24.3588H165.377V25.4565H166.475V24.3588Z" fill="#0095DA"/>
<path d="M157.052 21.6789H155.955V22.7766H157.052V21.6789Z" fill="#0095DA"/>
<path d="M158.399 21.6789H157.301V22.7766H158.399V21.6789Z" fill="#0095DA"/>
<path d="M155.706 21.6781H154.608V22.7759H155.706V21.6781Z" fill="#0095DA"/>
<path d="M171.847 21.6789H170.75V22.7766H171.847V21.6789Z" fill="#0095DA"/>
<path d="M174.546 21.6789H173.449V22.7766H174.546V21.6789Z" fill="#0095DA"/>
<path d="M173.194 21.6789H172.096V22.7766H173.194V21.6789Z" fill="#0095DA"/>
<path d="M159.748 21.6781H158.651V22.7759H159.748V21.6781Z" fill="#0095DA"/>
<path d="M162.437 21.6804H161.34V22.7782H162.437V21.6804Z" fill="#0095DA"/>
<path d="M165.127 21.6781H164.029V22.7759H165.127V21.6781Z" fill="#0095DA"/>
<path d="M163.783 21.6781H162.685V22.7759H163.783V21.6781Z" fill="#0095DA"/>
<path d="M161.092 21.6804H159.994V22.7782H161.092V21.6804Z" fill="#0095DA"/>
<path d="M167.813 21.6812H166.716V22.7789H167.813V21.6812Z" fill="#0095DA"/>
<path d="M170.508 21.6781H169.411V22.7759H170.508V21.6781Z" fill="#0095DA"/>
<path d="M169.161 21.6812H168.064V22.7789H169.161V21.6812Z" fill="#0095DA"/>
<path d="M166.475 21.6781H165.377V22.7759H166.475V21.6781Z" fill="#0095DA"/>
<path d="M157.052 19.0013H155.955V20.099H157.052V19.0013Z" fill="#0095DA"/>
<path d="M158.399 19.002H157.301V20.0998H158.399V19.002Z" fill="#0095DA"/>
<path d="M155.707 19.0013H154.609V20.099H155.707V19.0013Z" fill="#0095DA"/>
<path d="M159.748 19.0013H158.651V20.099H159.748V19.0013Z" fill="#0095DA"/>
<path d="M162.437 19.0013H161.339V20.099H162.437V19.0013Z" fill="#0095DA"/>
<path d="M165.127 19.0013H164.029V20.099H165.127V19.0013Z" fill="#0095DA"/>
<path d="M163.783 19.0013H162.685V20.099H163.783V19.0013Z" fill="#0095DA"/>
<path d="M161.09 19.0013H159.992V20.099H161.09V19.0013Z" fill="#0095DA"/>
<path d="M167.816 19.002H166.719V20.0998H167.816V19.002Z" fill="#0095DA"/>
<path d="M169.161 19.0043H168.064V20.1021H169.161V19.0043Z" fill="#0095DA"/>
<path d="M166.475 19.0013H165.377V20.099H166.475V19.0013Z" fill="#0095DA"/>
<path d="M157.054 20.3431H155.956V21.4409H157.054V20.3431Z" fill="#0095DA"/>
<path d="M158.402 20.3431H157.304V21.4409H158.402V20.3431Z" fill="#0095DA"/>
<path d="M155.707 20.3393H154.609V21.437H155.707V20.3393Z" fill="#0095DA"/>
<path d="M171.847 20.3401H170.75V21.4378H171.847V20.3401Z" fill="#0095DA"/>
<path d="M159.748 20.3393H158.651V21.437H159.748V20.3393Z" fill="#0095DA"/>
<path d="M162.439 20.3408H161.341V21.4386H162.439V20.3408Z" fill="#0095DA"/>
<path d="M165.127 20.3393H164.03V21.437H165.127V20.3393Z" fill="#0095DA"/>
<path d="M163.78 20.3393H162.682V21.437H163.78V20.3393Z" fill="#0095DA"/>
<path d="M161.093 20.3408H159.995V21.4386H161.093V20.3408Z" fill="#0095DA"/>
<path d="M167.813 20.3423H166.716V21.4401H167.813V20.3423Z" fill="#0095DA"/>
<path d="M170.509 20.3393H169.411V21.437H170.509V20.3393Z" fill="#0095DA"/>
<path d="M169.161 20.3423H168.064V21.4401H169.161V20.3423Z" fill="#0095DA"/>
<path d="M166.475 20.3393H165.377V21.437H166.475V20.3393Z" fill="#0095DA"/>
<path d="M150.328 17.6655H149.23V18.7632H150.328V17.6655Z" fill="#BDBEC1"/>
<path d="M151.674 17.6655H150.577V18.7632H151.674V17.6655Z" fill="#0095DA"/>
<path d="M148.981 17.6655H147.884V18.7632H148.981V17.6655Z" fill="#BDBEC1"/>
<path d="M165.128 17.6655H164.03V18.7632H165.128V17.6655Z" fill="#0095DA"/>
<path d="M167.817 17.6647H166.719V18.7625H167.817V17.6647Z" fill="#0095DA"/>
<path d="M166.474 17.6655H165.376V18.7632H166.474V17.6655Z" fill="#0095DA"/>
<path d="M153.024 17.6655H151.926V18.7632H153.024V17.6655Z" fill="#0095DA"/>
<path d="M155.712 17.6655H154.614V18.7632H155.712V17.6655Z" fill="#0095DA"/>
<path d="M158.402 17.6655H157.304V18.7632H158.402V17.6655Z" fill="#0095DA"/>
<path d="M157.059 17.6655H155.961V18.7632H157.059V17.6655Z" fill="#0095DA"/>
<path d="M154.36 17.6624H153.263V18.7602H154.36V17.6624Z" fill="#0095DA"/>
<path d="M161.093 17.6655H159.996V18.7632H161.093V17.6655Z" fill="#0095DA"/>
<path d="M163.784 17.6655H162.686V18.7632H163.784V17.6655Z" fill="#0095DA"/>
<path d="M162.437 17.6678H161.339V18.7655H162.437V17.6678Z" fill="#0095DA"/>
<path d="M159.75 17.6655H158.652V18.7632H159.75V17.6655Z" fill="#0095DA"/>
<path d="M150.319 14.9772H149.222V16.0749H150.319V14.9772Z" fill="#BDBEC1"/>
<path d="M151.668 14.981H150.57V16.0787H151.668V14.981Z" fill="#BDBEC1"/>
<path d="M148.974 14.9802H147.876V16.078H148.974V14.9802Z" fill="#BDBEC1"/>
<path d="M165.129 14.981H164.031V16.0787H165.129V14.981Z" fill="#0095DA"/>
<path d="M166.474 14.981H165.376V16.0787H166.474V14.981Z" fill="#0095DA"/>
<path d="M153.012 14.9825H151.915V16.0803H153.012V14.9825Z" fill="#B7BCBE"/>
<path d="M155.707 14.9833H154.609V16.081H155.707V14.9833Z" fill="#0095DA"/>
<path d="M158.4 14.9825H157.302V16.0803H158.4V14.9825Z" fill="#0095DA"/>
<path d="M157.053 14.9833H155.955V16.081H157.053V14.9833Z" fill="#0095DA"/>
<path d="M154.361 14.9818H153.263V16.0795H154.361V14.9818Z" fill="#0095DA"/>
<path d="M161.093 14.9802H159.995V16.078H161.093V14.9802Z" fill="#0095DA"/>
<path d="M163.784 14.9795H162.686V16.0772H163.784V14.9795Z" fill="#0095DA"/>
<path d="M162.437 14.9802H161.34V16.078H162.437V14.9802Z" fill="#0095DA"/>
<path d="M159.747 14.9795H158.649V16.0772H159.747V14.9795Z" fill="#0095DA"/>
<path d="M150.319 16.3312H149.222V17.429H150.319V16.3312Z" fill="#BDBEC1"/>
<path d="M151.677 16.3297H150.579V17.4275H151.677V16.3297Z" fill="#B7BCBE"/>
<path d="M148.972 16.3251H147.874V17.4229H148.972V16.3251Z" fill="#BDBEC1"/>
<path d="M165.127 16.3259H164.029V17.4236H165.127V16.3259Z" fill="#0095DA"/>
<path d="M166.473 16.3259H165.375V17.4236H166.473V16.3259Z" fill="#0095DA"/>
<path d="M153.022 16.3251H151.925V17.4229H153.022V16.3251Z" fill="#0095DA"/>
<path d="M155.713 16.3274H154.615V17.4252H155.713V16.3274Z" fill="#0095DA"/>
<path d="M158.402 16.3251H157.304V17.4229H158.402V16.3251Z" fill="#0095DA"/>
<path d="M157.054 16.3251H155.956V17.4229H157.054V16.3251Z" fill="#0095DA"/>
<path d="M154.367 16.3274H153.269V17.4252H154.367V16.3274Z" fill="#0095DA"/>
<path d="M161.093 16.3244H159.995V17.4221H161.093V16.3244Z" fill="#0095DA"/>
<path d="M163.783 16.3259H162.685V17.4236H163.783V16.3259Z" fill="#0095DA"/>
<path d="M162.437 16.3267H161.34V17.4244H162.437V16.3267Z" fill="#0095DA"/>
<path d="M159.749 16.3251H158.651V17.4229H159.749V16.3251Z" fill="#0095DA"/>
<path d="M151.664 28.3745H150.566V29.4722H151.664V28.3745Z" fill="#0095DA"/>
<path d="M154.362 28.3745H153.264V29.4722H154.362V28.3745Z" fill="#0095DA"/>
<path d="M153.009 28.3745H151.912V29.4722H153.009V28.3745Z" fill="#0095DA"/>
<path d="M142.239 28.3752H141.141V29.473H142.239V28.3752Z" fill="#0095DA"/>
<path d="M144.931 28.3752H143.834V29.473H144.931V28.3752Z" fill="#0095DA"/>
<path d="M143.585 28.376H142.487V29.4737H143.585V28.376Z" fill="#0095DA"/>
<path d="M147.625 28.3783H146.527V29.476H147.625V28.3783Z" fill="#0095DA"/>
<path d="M150.322 28.376H149.224V29.4737H150.322V28.376Z" fill="#0095DA"/>
<path d="M148.973 28.376H147.875V29.4737H148.973V28.376Z" fill="#0095DA"/>
<path d="M146.279 28.376H145.181V29.4737H146.279V28.376Z" fill="#0095DA"/>
<path d="M151.667 27.0379H150.57V28.1357H151.667V27.0379Z" fill="#0095DA"/>
<path d="M154.366 27.0379H153.269V28.1357H154.366V27.0379Z" fill="#0095DA"/>
<path d="M153.014 27.0379H151.916V28.1357H153.014V27.0379Z" fill="#0095DA"/>
<path d="M139.546 27.0379H138.448V28.1357H139.546V27.0379Z" fill="#BDBEC1"/>
<path d="M142.239 27.0379H141.141V28.1357H142.239V27.0379Z" fill="#0095DA"/>
<path d="M144.932 27.0379H143.834V28.1357H144.932V27.0379Z" fill="#0095DA"/>
<path d="M143.585 27.0379H142.487V28.1357H143.585V27.0379Z" fill="#0095DA"/>
<path d="M140.892 27.0379H139.794V28.1357H140.892V27.0379Z" fill="#0095DA"/>
<path d="M147.626 27.0379H146.528V28.1357H147.626V27.0379Z" fill="#0095DA"/>
<path d="M150.32 27.0379H149.222V28.1357H150.32V27.0379Z" fill="#0095DA"/>
<path d="M148.973 27.0379H147.875V28.1357H148.973V27.0379Z" fill="#0095DA"/>
<path d="M146.279 27.0379H145.182V28.1357H146.279V27.0379Z" fill="#0095DA"/>
<path d="M151.667 25.7007H150.57V26.7984H151.667V25.7007Z" fill="#0095DA"/>
<path d="M154.35 25.7014H153.253V26.7992H154.35V25.7014Z" fill="#0095DA"/>
<path d="M153.013 25.7007H151.915V26.7984H153.013V25.7007Z" fill="#0095DA"/>
<path d="M139.546 25.7007H138.448V26.7984H139.546V25.7007Z" fill="#BDBEC1"/>
<path d="M142.238 25.7007H141.14V26.7984H142.238V25.7007Z" fill="#0095DA"/>
<path d="M144.932 25.7007H143.834V26.7984H144.932V25.7007Z" fill="#0095DA"/>
<path d="M143.585 25.7007H142.487V26.7984H143.585V25.7007Z" fill="#0095DA"/>
<path d="M140.892 25.6991H139.794V26.7969H140.892V25.6991Z" fill="#BDBEC1"/>
<path d="M147.626 25.6999H146.528V26.7976H147.626V25.6999Z" fill="#0095DA"/>
<path d="M150.321 25.7007H149.223V26.7984H150.321V25.7007Z" fill="#0095DA"/>
<path d="M148.965 25.7037H147.868V26.8015H148.965V25.7037Z" fill="#0095DA"/>
<path d="M146.279 25.7007H145.181V26.7984H146.279V25.7007Z" fill="#0095DA"/>
<path d="M151.664 24.3603H150.567V25.4581H151.664V24.3603Z" fill="#0095DA"/>
<path d="M154.361 24.3641H153.263V25.4619H154.361V24.3641Z" fill="#0095DA"/>
<path d="M153.015 24.3626H151.918V25.4604H153.015V24.3626Z" fill="#0095DA"/>
<path d="M139.547 24.3611H138.449V25.4588H139.547V24.3611Z" fill="#BDBEC1"/>
<path d="M142.238 24.3634H141.14V25.4611H142.238V24.3634Z" fill="#BDBEC1"/>
<path d="M144.932 24.3634H143.834V25.4611H144.932V24.3634Z" fill="#0095DA"/>
<path d="M143.585 24.3634H142.487V25.4611H143.585V24.3634Z" fill="#BDBEC1"/>
<path d="M140.892 24.3603H139.794V25.4581H140.892V24.3603Z" fill="#BDBEC1"/>
<path d="M147.626 24.3634H146.528V25.4611H147.626V24.3634Z" fill="#0095DA"/>
<path d="M150.321 24.3634H149.223V25.4611H150.321V24.3634Z" fill="#0095DA"/>
<path d="M148.974 24.3634H147.876V25.4611H148.974V24.3634Z" fill="#0095DA"/>
<path d="M146.279 24.3626H145.182V25.4604H146.279V24.3626Z" fill="#0095DA"/>
<path d="M151.669 23.0185H150.571V24.1162H151.669V23.0185Z" fill="#0095DA"/>
<path d="M154.36 23.0192H153.263V24.117H154.36V23.0192Z" fill="#0095DA"/>
<path d="M153.014 23.02H151.916V24.1177H153.014V23.02Z" fill="#0095DA"/>
<path d="M139.546 23.0185H138.449V24.1162H139.546V23.0185Z" fill="#BDBEC1"/>
<path d="M142.239 23.0185H141.141V24.1162H142.239V23.0185Z" fill="#BDBEC1"/>
<path d="M144.932 23.0192H143.834V24.117H144.932V23.0192Z" fill="#BDBEC1"/>
<path d="M143.585 23.0207H142.487V24.1185H143.585V23.0207Z" fill="#BDBEC1"/>
<path d="M140.893 23.0215H139.795V24.1193H140.893V23.0215Z" fill="#BDBEC1"/>
<path d="M147.615 23.0238H146.517V24.1216H147.615V23.0238Z" fill="#0095DA"/>
<path d="M150.322 23.0207H149.224V24.1185H150.322V23.0207Z" fill="#0095DA"/>
<path d="M148.964 23.0238H147.866V24.1216H148.964V23.0238Z" fill="#0095DA"/>
<path d="M146.276 23.0207H145.179V24.1185H146.276V23.0207Z" fill="#0095DA"/>
<path d="M151.664 21.6819H150.566V22.7797H151.664V21.6819Z" fill="#0095DA"/>
<path d="M154.361 21.6781H153.263V22.7759H154.361V21.6781Z" fill="#0095DA"/>
<path d="M153.014 21.6804H151.916V22.7782H153.014V21.6804Z" fill="#0095DA"/>
<path d="M139.546 21.6781H138.449V22.7759H139.546V21.6781Z" fill="#BDBEC1"/>
<path d="M142.239 21.6781H141.141V22.7759H142.239V21.6781Z" fill="#BDBEC1"/>
<path d="M144.932 21.6781H143.834V22.7759H144.932V21.6781Z" fill="#BDBEC1"/>
<path d="M143.585 21.6781H142.487V22.7759H143.585V21.6781Z" fill="#BDBEC1"/>
<path d="M140.892 21.6827H139.794V22.7804H140.892V21.6827Z" fill="#BDBEC1"/>
<path d="M147.629 21.6835H146.531V22.7812H147.629V21.6835Z" fill="#0095DA"/>
<path d="M150.325 21.6804H149.227V22.7782H150.325V21.6804Z" fill="#0095DA"/>
<path d="M148.977 21.6835H147.879V22.7812H148.977V21.6835Z" fill="#0095DA"/>
<path d="M146.29 21.6804H145.192V22.7782H146.29V21.6804Z" fill="#BDBEC1"/>
<path d="M151.658 20.3408H150.56V21.4386H151.658V20.3408Z" fill="#0095DA"/>
<path d="M154.361 20.3408H153.263V21.4386H154.361V20.3408Z" fill="#0095DA"/>
<path d="M153.014 20.3408H151.916V21.4386H153.014V20.3408Z" fill="#0095DA"/>
<path d="M139.546 20.3393H138.449V21.437H139.546V20.3393Z" fill="#BDBEC1"/>
<path d="M142.242 20.3385H141.144V21.4363H142.242V20.3385Z" fill="#BDBEC1"/>
<path d="M144.937 20.3401H143.839V21.4378H144.937V20.3401Z" fill="#BDBEC1"/>
<path d="M143.589 20.3416H142.491V21.4393H143.589V20.3416Z" fill="#BDBEC1"/>
<path d="M140.892 20.3393H139.794V21.437H140.892V20.3393Z" fill="#BDBEC1"/>
<path d="M147.623 20.3423H146.525V21.4401H147.623V20.3423Z" fill="#BDBEC1"/>
<path d="M150.319 20.3401H149.221V21.4378H150.319V20.3401Z" fill="#0095DA"/>
<path d="M148.971 20.3423H147.873V21.4401H148.971V20.3423Z" fill="#0095DA"/>
<path d="M146.284 20.3401H145.186V21.4378H146.284V20.3401Z" fill="#BDBEC1"/>
<path d="M151.649 18.9982H150.551V20.096H151.649V18.9982Z" fill="#0095DA"/>
<path d="M154.363 19.0028H153.265V20.1005H154.363V19.0028Z" fill="#0095DA"/>
<path d="M153.015 19.0028H151.917V20.1005H153.015V19.0028Z" fill="#0095DA"/>
<path d="M139.546 19.0013H138.449V20.099H139.546V19.0013Z" fill="#BDBEC1"/>
<path d="M142.243 19.002H141.145V20.0998H142.243V19.002Z" fill="#BDBEC1"/>
<path d="M144.94 18.9974H143.842V20.0952H144.94V18.9974Z" fill="#BDBEC1"/>
<path d="M143.591 19.002H142.493V20.0998H143.591V19.002Z" fill="#BDBEC1"/>
<path d="M140.894 19.002H139.797V20.0998H140.894V19.002Z" fill="#BDBEC1"/>
<path d="M147.627 19.0005H146.529V20.0982H147.627V19.0005Z" fill="#BDBEC1"/>
<path d="M150.321 19.0013H149.223V20.099H150.321V19.0013Z" fill="#0095DA"/>
<path d="M148.973 19.0013H147.875V20.099H148.973V19.0013Z" fill="#0095DA"/>
<path d="M146.288 18.9982H145.19V20.096H146.288V18.9982Z" fill="#BDBEC1"/>
<path d="M144.931 17.6647H143.834V18.7625H144.931V17.6647Z" fill="#BDBEC1"/>
<path d="M147.624 17.6647H146.526V18.7625H147.624V17.6647Z" fill="#BDBEC1"/>
<path d="M146.278 17.667H145.18V18.7648H146.278V17.667Z" fill="#BDBEC1"/>
<path d="M140.894 17.6662H139.796V18.764H140.894V17.6662Z" fill="#BDBEC1"/>
<path d="M143.586 17.664H142.488V18.7617H143.586V17.664Z" fill="#BDBEC1"/>
<path d="M142.239 17.667H141.142V18.7648H142.239V17.667Z" fill="#BDBEC1"/>
<path d="M139.547 17.667H138.449V18.7648H139.547V17.667Z" fill="#BDBEC1"/>
<path d="M144.932 16.3259H143.834V17.4236H144.932V16.3259Z" fill="#BDBEC1"/>
<path d="M147.626 16.3221H146.528V17.4198H147.626V16.3221Z" fill="#BDBEC1"/>
<path d="M146.279 16.3282H145.182V17.4259H146.279V16.3282Z" fill="#BDBEC1"/>
<path d="M140.894 16.3282H139.796V17.4259H140.894V16.3282Z" fill="#BDBEC1"/>
<path d="M143.586 16.3251H142.489V17.4229H143.586V16.3251Z" fill="#BDBEC1"/>
<path d="M142.24 16.3282H141.142V17.4259H142.24V16.3282Z" fill="#BDBEC1"/>
<path d="M139.547 16.3282H138.449V17.4259H139.547V16.3282Z" fill="#BDBEC1"/>
<path d="M140.889 31.049H139.791V32.1468H140.889V31.049Z" fill="#0095DA"/>
<path d="M142.236 31.049H141.138V32.1468H142.236V31.049Z" fill="#0095DA"/>
<path d="M139.543 31.0483H138.446V32.146H139.543V31.0483Z" fill="#0095DA"/>
<path d="M140.892 49.8046H139.794V50.9024H140.892V49.8046Z" fill="#0095DA"/>
<path d="M142.238 49.8046H141.14V50.9024H142.238V49.8046Z" fill="#0095DA"/>
<path d="M140.892 51.1419H139.794V52.2397H140.892V51.1419Z" fill="#0095DA"/>
<path d="M142.238 51.1419H141.14V52.2397H142.238V51.1419Z" fill="#0095DA"/>
<path d="M146.282 55.1576H145.185V56.2554H146.282V55.1576Z" fill="#0095DA"/>
<path d="M147.632 55.1569H146.534V56.2546H147.632V55.1569Z" fill="#0095DA"/>
<path d="M150.32 55.1569H149.222V56.2546H150.32V55.1569Z" fill="#0095DA"/>
<path d="M153.014 55.1576H151.916V56.2554H153.014V55.1576Z" fill="#0095DA"/>
<path d="M151.667 55.1569H150.569V56.2546H151.667V55.1569Z" fill="#0095DA"/>
<path d="M148.974 55.1576H147.876V56.2554H148.974V55.1576Z" fill="#0095DA"/>
<path d="M155.708 55.1569H154.61V56.2546H155.708V55.1569Z" fill="#0095DA"/>
<path d="M158.402 55.1576H157.304V56.2554H158.402V55.1576Z" fill="#0095DA"/>
<path d="M157.054 55.1569H155.956V56.2546H157.054V55.1569Z" fill="#0095DA"/>
<path d="M154.358 55.1569H153.26V56.2546H154.358V55.1569Z" fill="#0095DA"/>
<path d="M146.282 56.4957H145.185V57.5934H146.282V56.4957Z" fill="#0095DA"/>
<path d="M147.632 56.4949H146.534V57.5926H147.632V56.4949Z" fill="#0095DA"/>
<path d="M150.32 56.4949H149.222V57.5926H150.32V56.4949Z" fill="#0095DA"/>
<path d="M153.014 56.4949H151.916V57.5926H153.014V56.4949Z" fill="#0095DA"/>
<path d="M151.667 56.4949H150.57V57.5926H151.667V56.4949Z" fill="#0095DA"/>
<path d="M148.974 56.4949H147.876V57.5926H148.974V56.4949Z" fill="#0095DA"/>
<path d="M155.708 56.4941H154.61V57.5919H155.708V56.4941Z" fill="#0095DA"/>
<path d="M157.054 56.4941H155.956V57.5919H157.054V56.4941Z" fill="#0095DA"/>
<path d="M154.363 56.4949H153.265V57.5926H154.363V56.4949Z" fill="#0095DA"/>
<path d="M147.634 57.8329H146.536V58.9307H147.634V57.8329Z" fill="#0095DA"/>
<path d="M150.323 57.8329H149.225V58.9307H150.323V57.8329Z" fill="#0095DA"/>
<path d="M153.014 57.8337H151.916V58.9315H153.014V57.8337Z" fill="#0095DA"/>
<path d="M151.667 57.8337H150.569V58.9315H151.667V57.8337Z" fill="#0095DA"/>
<path d="M148.976 57.8337H147.878V58.9315H148.976V57.8337Z" fill="#0095DA"/>
<path d="M155.708 57.8322H154.61V58.9299H155.708V57.8322Z" fill="#0095DA"/>
<path d="M157.054 57.8322H155.956V58.9299H157.054V57.8322Z" fill="#0095DA"/>
<path d="M154.361 57.8322H153.263V58.9299H154.361V57.8322Z" fill="#0095DA"/>
<path d="M151.667 59.1733H150.57V60.2711H151.667V59.1733Z" fill="#0095DA"/>
<path d="M154.36 59.1741H153.262V60.2718H154.36V59.1741Z" fill="#0095DA"/>
<path d="M153.014 59.1725H151.916V60.2703H153.014V59.1725Z" fill="#0095DA"/>
<path d="M150.323 59.1741H149.225V60.2718H150.323V59.1741Z" fill="#0095DA"/>
<path d="M155.706 59.1733H154.608V60.2711H155.706V59.1733Z" fill="#0095DA"/>
<path d="M151.667 60.5106H150.57V61.6083H151.667V60.5106Z" fill="#0095DA"/>
<path d="M154.361 60.5114H153.263V61.6091H154.361V60.5114Z" fill="#0095DA"/>
<path d="M153.014 60.5106H151.916V61.6083H153.014V60.5106Z" fill="#0095DA"/>
<path d="M150.324 60.5121H149.226V61.6099H150.324V60.5121Z" fill="#0095DA"/>
<path d="M153.014 61.8494H151.916V62.9472H153.014V61.8494Z" fill="#0095DA"/>
<path d="M146.279 14.9825H145.182V16.0803H146.279V14.9825Z" fill="#BDBEC1"/>
<path d="M147.627 14.9833H146.53V16.081H147.627V14.9833Z" fill="#BDBEC1"/>
<path d="M144.933 14.9825H143.835V16.0803H144.933V14.9825Z" fill="#BDBEC1"/>
<path d="M150.319 13.6399H149.222V14.7369H150.319V13.6399Z" fill="#B7BCBE"/>
<path d="M151.668 13.6437H150.57V14.7414H151.668V13.6437Z" fill="#B7BCBE"/>
<path d="M148.974 13.6429H147.876V14.7407H148.974V13.6429Z" fill="#B7BCBE"/>
<path d="M165.129 13.6437H164.031V14.7414H165.129V13.6437Z" fill="#0095DA"/>
<path d="M166.474 13.6437H165.376V14.7414H166.474V13.6437Z" fill="#0095DA"/>
<path d="M153.012 13.6452H151.915V14.743H153.012V13.6452Z" fill="#B7BCBE"/>
<path d="M155.707 13.646H154.609V14.7437H155.707V13.646Z" fill="#B7BCBE"/>
<path d="M158.4 13.6452H157.302V14.743H158.4V13.6452Z" fill="#0095DA"/>
<path d="M157.053 13.646H155.955V14.7437H157.053V13.646Z" fill="#BDBEC1"/>
<path d="M154.361 13.6437H153.263V14.7414H154.361V13.6437Z" fill="#B7BCBE"/>
<path d="M161.093 13.6422H159.995V14.7399H161.093V13.6422Z" fill="#0095DA"/>
<path d="M163.784 13.6422H162.686V14.7399H163.784V13.6422Z" fill="#0095DA"/>
<path d="M162.437 13.6422H161.34V14.7399H162.437V13.6422Z" fill="#0095DA"/>
<path d="M159.747 13.6422H158.649V14.7399H159.747V13.6422Z" fill="#0095DA"/>
<path d="M146.279 13.6452H145.182V14.743H146.279V13.6452Z" fill="#B7BCBE"/>
<path d="M147.627 13.646H146.53V14.7437H147.627V13.646Z" fill="#B7BCBE"/>
<path d="M144.933 13.6452H143.835V14.743H144.933V13.6452Z" fill="#BDBEC1"/>
<path d="M150.319 12.3034H149.222V13.4011H150.319V12.3034Z" fill="#BDBEC1"/>
<path d="M151.668 12.3064H150.57V13.4042H151.668V12.3064Z" fill="#BDBEC1"/>
<path d="M148.974 12.3056H147.876V13.4034H148.974V12.3056Z" fill="#BDBEC1"/>
<path d="M165.129 12.3064H164.031V13.4042H165.129V12.3064Z" fill="#0095DA"/>
<path d="M153.012 12.3087H151.915V13.4065H153.012V12.3087Z" fill="#BDBEC1"/>
<path d="M155.707 12.3087H154.609V13.4065H155.707V12.3087Z" fill="#BDBEC1"/>
<path d="M158.402 12.3049H157.304V13.4026H158.402V12.3049Z" fill="#BDBEC1"/>
<path d="M157.053 12.3095H155.955V13.4072H157.053V12.3095Z" fill="#BDBEC1"/>
<path d="M154.361 12.3072H153.263V13.4049H154.361V12.3072Z" fill="#BDBEC1"/>
<path d="M161.093 12.3056H159.995V13.4034H161.093V12.3056Z" fill="#0095DA"/>
<path d="M163.784 12.3056H162.686V13.4034H163.784V12.3056Z" fill="#0095DA"/>
<path d="M162.437 12.3056H161.34V13.4034H162.437V12.3056Z" fill="#0095DA"/>
<path d="M159.747 12.3049H158.649V13.4026H159.747V12.3049Z" fill="#0095DA"/>
<path d="M146.279 12.3087H145.182V13.4065H146.279V12.3087Z" fill="#BDBEC1"/>
<path d="M147.627 12.3095H146.53V13.4072H147.627V12.3095Z" fill="#BDBEC1"/>
<path d="M144.933 12.3087H143.835V13.4065H144.933V12.3087Z" fill="#BDBEC1"/>
<path d="M151.667 10.9684H150.57V12.0661H151.667V10.9684Z" fill="#BDBEC1"/>
<path d="M165.129 10.9699H164.031V12.0676H165.129V10.9699Z" fill="#0095DA"/>
<path d="M153.015 10.9684H151.917V12.0661H153.015V10.9684Z" fill="#BDBEC1"/>
<path d="M155.707 10.9691H154.609V12.0669H155.707V10.9691Z" fill="#BDBEC1"/>
<path d="M158.402 10.9684H157.304V12.0661H158.402V10.9684Z" fill="#BDBEC1"/>
<path d="M157.053 10.9676H155.955V12.0653H157.053V10.9676Z" fill="#BDBEC1"/>
<path d="M154.362 10.9676H153.264V12.0653H154.362V10.9676Z" fill="#BDBEC1"/>
<path d="M161.093 10.9691H159.995V12.0669H161.093V10.9691Z" fill="#0095DA"/>
<path d="M163.784 10.9691H162.686V12.0669H163.784V10.9691Z" fill="#0095DA"/>
<path d="M162.437 10.9691H161.34V12.0669H162.437V10.9691Z" fill="#0095DA"/>
<path d="M159.749 10.9676H158.651V12.0653H159.749V10.9676Z" fill="#BDBEC1"/>
<path d="M151.667 9.63183H150.57V10.7296H151.667V9.63183Z" fill="#BDBEC1"/>
<path d="M153.015 9.63107H151.917V10.7288H153.015V9.63107Z" fill="#BDBEC1"/>
<path d="M155.707 9.63183H154.609V10.7296H155.707V9.63183Z" fill="#BDBEC1"/>
<path d="M158.402 9.63183H157.304V10.7296H158.402V9.63183Z" fill="#BDBEC1"/>
<path d="M157.053 9.6303H155.955V10.7281H157.053V9.6303Z" fill="#BDBEC1"/>
<path d="M154.362 9.63107H153.264V10.7288H154.362V9.63107Z" fill="#BDBEC1"/>
<path d="M161.093 9.6326H159.995V10.7304H161.093V9.6326Z" fill="#BDBEC1"/>
<path d="M163.784 9.63183H162.686V10.7296H163.784V9.63183Z" fill="#0095DA"/>
<path d="M162.437 9.63183H161.34V10.7296H162.437V9.63183Z" fill="#BDBEC1"/>
<path d="M159.749 9.6303H158.651V10.7281H159.749V9.6303Z" fill="#BDBEC1"/>
<path d="M151.667 8.29301H150.57V9.39077H151.667V8.29301Z" fill="#BDBEC1"/>
<path d="M153.015 8.29225H151.917V9.39H153.015V8.29225Z" fill="#BDBEC1"/>
<path d="M155.707 8.29301H154.609V9.39077H155.707V8.29301Z" fill="#BDBEC1"/>
<path d="M158.402 8.29225H157.304V9.39H158.402V8.29225Z" fill="#BDBEC1"/>
<path d="M157.053 8.29149H155.955V9.38924H157.053V8.29149Z" fill="#BDBEC1"/>
<path d="M154.362 8.29225H153.264V9.39H154.362V8.29225Z" fill="#BDBEC1"/>
<path d="M161.093 8.29378H159.995V9.39153H161.093V8.29378Z" fill="#BDBEC1"/>
<path d="M163.784 8.29301H162.686V9.39077H163.784V8.29301Z" fill="#0095DA"/>
<path d="M162.437 8.29378H161.34V9.39153H162.437V8.29378Z" fill="#BDBEC1"/>
<path d="M159.749 8.29149H158.651V9.38924H159.749V8.29149Z" fill="#BDBEC1"/>
<path d="M155.707 6.9565H154.609V8.05425H155.707V6.9565Z" fill="#BDBEC1"/>
<path d="M158.402 6.95573H157.304V8.05349H158.402V6.95573Z" fill="#BDBEC1"/>
<path d="M157.053 6.95497H155.955V8.05272H157.053V6.95497Z" fill="#BDBEC1"/>
<path d="M161.093 6.9565H159.995V8.05425H161.093V6.9565Z" fill="#BDBEC1"/>
<path d="M162.437 6.9565H161.34V8.05425H162.437V6.9565Z" fill="#BDBEC1"/>
<path d="M159.749 6.95421H158.651V8.05196H159.749V6.95421Z" fill="#BDBEC1"/>
<path d="M157.058 5.61692H155.96V6.71467H157.058V5.61692Z" fill="#BDBEC1"/>
<path d="M159.748 5.61844H158.651V6.71619H159.748V5.61844Z" fill="#BDBEC1"/>
<path d="M158.405 5.61616H157.307V6.71391H158.405V5.61616Z" fill="#BDBEC1"/>
<path d="M161.093 5.61844H159.996V6.71619H161.093V5.61844Z" fill="#BDBEC1"/>
<path d="M143.585 12.3049H142.487V13.4026H143.585V12.3049Z" fill="#BDBEC1"/>
<path d="M140.892 41.7779H139.794V42.8756H140.892V41.7779Z" fill="#0095DA"/>
<path d="M139.544 41.7786H138.446V42.8764H139.544V41.7786Z" fill="#0095DA"/>
<path d="M140.89 43.1144H139.792V44.2121H140.89V43.1144Z" fill="#0095DA"/>
<path d="M139.546 43.1144H138.448V44.2121H139.546V43.1144Z" fill="#0095DA"/>
<path d="M140.891 44.4563H139.794V45.554H140.891V44.4563Z" fill="#0095DA"/>
<path d="M173.201 27.0402H172.103V28.138H173.201V27.0402Z" fill="#0095DA"/>
<path d="M173.201 28.373H172.103V29.4707H173.201V28.373Z" fill="#0095DA"/>
<path d="M174.55 29.7141H173.452V30.8118H174.55V29.7141Z" fill="#0095DA"/>
<path d="M175.898 40.4276H174.8V41.5254H175.898V40.4276Z" fill="#0095DA"/>
<path d="M175.898 41.7679H174.8V42.8657H175.898V41.7679Z" fill="#0095DA"/>
<path d="M173.202 44.454H172.104V45.5517H173.202V44.454Z" fill="#0095DA"/>
<path d="M170.508 45.8012H169.411V46.8989H170.508V45.8012Z" fill="#0095DA"/>
<path d="M163.772 49.8054H162.674V50.9032H163.772V49.8054Z" fill="#0095DA"/>
<path d="M154.357 61.8494H153.26V62.9472H154.357V61.8494Z" fill="#0095DA"/>
<path d="M158.417 56.4934H157.319V57.5911H158.417V56.4934Z" fill="#0095DA"/>
<path d="M175.901 35.0602H174.803V36.1579H175.901V35.0602Z" fill="#0095DA"/>
<path d="M173.204 20.3416H172.106V21.4393H173.204V20.3416Z" fill="#0095DA"/>
<path d="M170.509 19.0043H169.411V20.1021H170.509V19.0043Z" fill="#0095DA"/>
<path d="M166.474 12.3064H165.376V13.4042H166.474V12.3064Z" fill="#0095DA"/>
<path d="M165.129 9.63183H164.031V10.7296H165.129V9.63183Z" fill="#0095DA"/>
<path d="M175.898 39.0743H174.8V40.172H175.898V39.0743Z" fill="#0095DA"/>
<path fill-rule="evenodd" clip-rule="evenodd" d="M174.8 33.6702H175.539L175.898 34.7672H174.8V33.6702Z" fill="#0095DA"/>
<path d="M175.93 23.0192H174.832V24.117H175.93V23.0192Z" fill="#0095DA"/>
<path fill-rule="evenodd" clip-rule="evenodd" d="M174.832 24.3603H175.93L175.563 25.4573H174.832V24.3603Z" fill="#0095DA"/>
<path d="M167.817 16.3259H166.719V17.4236H167.817V16.3259Z" fill="#0095DA"/>
<path fill-rule="evenodd" clip-rule="evenodd" d="M174.812 30.885H175.909L175.65 32.1468H174.812V30.885Z" fill="#0095DA"/>
<path fill-rule="evenodd" clip-rule="evenodd" d="M168.064 17.6647H168.818L169.161 18.7625H168.064V17.6647Z" fill="#0095DA"/>
<path fill-rule="evenodd" clip-rule="evenodd" d="M137.638 4.19876C137.638 4.19876 138.844 3.59 138.928 3.5511C139.011 3.51219 140.212 3.01481 140.269 2.99345C141.099 2.69136 142.084 2.38545 143.108 2.15126C145.016 1.71414 147.203 1.59742 148.675 1.70498C150.475 1.8362 152.705 2.28933 154.981 3.19408C156.026 3.60984 157.64 4.41465 158.495 5.01655C159.253 5.55055 160.044 6.12498 160.372 6.37367C160.76 6.6689 161.655 7.46837 162.207 8.07484C162.8 8.72556 163.291 9.3511 163.476 9.59522C163.768 9.98198 164.569 11.1698 164.926 11.941C165.047 12.2027 165.172 12.4796 165.258 12.6634C165.429 13.0311 165.723 13.6902 165.931 14.3249C166.302 15.4631 166.51 16.7028 166.575 17.0766C166.615 17.3008 166.632 17.5526 166.694 17.7113C166.835 18.0614 167.262 18.3719 167.594 18.5588L169.419 19.5902L172.643 21.3974C172.643 21.3974 174.049 22.3715 174.275 22.7911C174.502 23.2099 174.655 23.3739 174.677 23.7828C174.697 24.1917 174.439 24.6342 174.395 24.715C174.351 24.7959 173.95 25.4985 173.668 25.8036C173.406 26.0882 172.875 26.5932 172.696 26.7534C172.518 26.9128 172.354 27.086 172.23 27.2729C172.107 27.4598 172.017 27.6414 171.933 27.7924C171.85 27.9435 171.822 28.0487 171.822 28.0487C171.822 28.0487 171.76 28.2387 171.77 28.334C171.78 28.4294 171.774 28.5156 171.835 28.6727C171.896 28.8291 171.932 28.9024 172.07 29.045C172.103 29.0786 172.167 29.1518 172.278 29.2434C172.334 29.2907 172.391 29.3334 172.488 29.4005C172.56 29.4509 172.631 29.4936 172.701 29.5355C172.766 29.5744 172.83 29.6141 172.892 29.6652C173.046 29.7919 173.173 29.9177 173.325 30.0589C173.546 30.2641 173.748 30.425 173.818 30.483C174.066 30.6882 174.392 30.9651 174.392 30.9651C174.392 30.9651 174.456 31.03 174.484 31.062C174.511 31.0941 174.533 31.1566 174.533 31.1566C174.533 31.1566 174.54 31.2115 174.533 31.2535C174.52 31.3267 174.507 31.403 174.48 31.4724C174.392 31.7036 174.27 31.8912 174.115 32.1247L174.005 32.3017L173.909 32.4664L173.812 32.6465L173.712 32.8753C173.712 32.8753 173.657 33.0294 173.648 33.0653C173.64 33.1019 173.601 33.3086 173.601 33.3468C173.601 33.3849 173.6 33.452 173.6 33.4803C173.6 33.5093 173.606 33.5535 173.606 33.5535L173.611 33.5985L173.619 33.6443L173.629 33.6901L173.637 33.7206L173.647 33.7534L173.658 33.7869L173.667 33.8129L173.692 33.8747L173.704 33.9014L173.72 33.9334L173.747 33.9838L173.772 34.0257L173.848 34.1333C173.848 34.1333 173.918 34.2134 173.925 34.2202C173.932 34.2271 174.001 34.2973 174.01 34.3026C174.018 34.3072 174.074 34.3591 174.081 34.3629C174.088 34.3667 174.171 34.4308 174.171 34.4308L174.276 34.501L174.461 34.6085L174.619 34.694L174.755 34.7634L174.846 34.8099L175.015 34.9068L174.868 35.0281L174.751 35.1319L174.604 35.2737C174.604 35.2737 174.508 35.3813 174.498 35.3912C174.488 35.4011 174.372 35.5545 174.372 35.5545L174.275 35.704L174.187 35.8703C174.187 35.8703 174.13 36.0023 174.124 36.0267C174.118 36.0511 174.103 36.0961 174.103 36.0961L174.086 36.1587L174.069 36.2296C174.069 36.2296 174.039 36.3944 174.038 36.4035C174.038 36.4127 174.033 36.4447 174.033 36.4447L174.025 36.5012L174.008 36.6881L173.999 36.8323L173.992 36.9917L173.989 37.0665L173.988 37.1336L173.986 37.2007L173.985 37.2686V37.2976L173.981 37.4456L173.98 37.4952V37.5356V37.5669L173.979 37.6233V37.6859V37.721V37.7469L173.98 37.7828V37.8453L173.982 37.8827V37.9178L173.986 37.9857L173.99 38.0536L174 38.1696L174.011 38.2695L174.031 38.4015L174.066 38.5731L174.084 38.6387L174.128 38.7791C174.128 38.7791 174.187 38.9271 174.199 38.9477C174.211 38.9683 174.291 39.1132 174.307 39.1369C174.323 39.1605 174.542 39.5198 174.542 39.5198L174.745 39.9066C174.745 39.9066 174.792 40.0004 174.823 40.079C174.854 40.1568 174.955 40.4093 174.974 40.4665C174.994 40.5237 175.06 40.7877 175.064 40.8403C175.08 41.0623 175.092 41.1874 175.082 41.4094L175.013 41.7763C175.013 41.7763 174.944 42.0678 174.879 42.2005C174.813 42.3332 174.805 42.3531 174.805 42.3531L174.762 42.4271L174.71 42.5125L174.677 42.5644L174.628 42.6346L174.582 42.6979L174.492 42.8115L174.376 42.9473L174.275 43.0564L174.15 43.1838L174.041 43.286L173.913 43.402L173.822 43.4798L173.664 43.6095L173.493 43.7415L173.318 43.8719L173.118 44.0138L172.963 44.1191L172.685 44.3014L172.372 44.4959L171.989 44.7225C171.989 44.7225 171.403 45.0574 171.348 45.0818C171.293 45.107 170.985 45.2695 170.907 45.3084C170.829 45.3473 170.428 45.5502 170.428 45.5502L169.884 45.821L169.269 46.1323L168.662 46.442L167.922 46.8326L166.329 47.7213C166.329 47.7213 165.435 48.2553 165.363 48.3049C165.291 48.3545 165.097 48.4758 165.097 48.4758L164.81 48.6634L164.336 48.9861L163.847 49.3378C163.847 49.3378 163.506 49.5918 163.46 49.6284C163.415 49.6651 163.061 49.9511 163.061 49.9511L162.738 50.228L162.419 50.5248C162.419 50.5248 162.216 50.7216 162.141 50.7987C162.067 50.8749 161.719 51.2579 161.719 51.2579L161.409 51.6073L161.08 51.9872L160.748 52.3793L160.323 52.8988L159.952 53.3519L159.622 53.7646L159.107 54.4131L158.655 54.986L156.334 58.0115L155.456 59.1939C155.456 59.1939 154.518 60.4015 154.382 60.6052C154.247 60.8081 153.565 61.735 153.565 61.735L152.304 63.4438L153.653 64.4233L158.757 57.5545C158.757 57.5545 161.756 53.7631 163.048 52.2633C164.34 50.7636 167.86 48.7633 167.86 48.7633L173.026 46.0766C173.026 46.0766 175.765 44.5249 176.328 43.0145C176.89 41.504 176.729 41.2973 176.755 41.0654C176.781 40.8335 176.641 39.9165 176.266 39.2086C175.89 38.5006 175.697 38.2207 175.697 38.2207C175.697 38.2207 175.676 38.1375 175.674 38.1223C175.672 38.1062 175.662 38.0399 175.662 38.0399L175.654 37.9407C175.654 37.9407 175.649 37.8621 175.649 37.8537C175.649 37.8446 175.648 37.7744 175.648 37.7675C175.648 37.7607 175.647 37.6882 175.647 37.6882V37.5806L175.651 37.4372L175.653 37.3358L175.656 37.1992L175.658 37.0878L175.662 37.0093L175.667 36.8933L175.674 36.7857C175.674 36.7857 175.685 36.6545 175.691 36.6377C175.695 36.621 175.7 36.5767 175.705 36.563C175.71 36.5492 175.79 36.4432 175.818 36.418C175.846 36.3929 175.919 36.3219 175.938 36.3067C175.959 36.2914 176.095 36.1747 176.125 36.1556C176.155 36.1365 176.284 36.0084 176.284 36.0084C176.284 36.0084 176.381 35.9008 176.393 35.884C176.405 35.8673 176.49 35.7574 176.501 35.7345C176.513 35.7116 176.575 35.614 176.587 35.5888C176.598 35.5636 176.675 35.4111 176.685 35.3706C176.694 35.331 176.726 35.2562 176.733 35.2188C176.739 35.1807 176.752 35.1387 176.755 35.1158C176.759 35.093 176.772 35.0128 176.772 34.9953C176.772 34.9785 176.78 34.9244 176.779 34.9091C176.778 34.8931 176.781 34.8336 176.779 34.8145C176.777 34.7954 176.776 34.7443 176.774 34.7268C176.771 34.7092 176.767 34.6566 176.761 34.6253C176.755 34.5933 176.746 34.5467 176.736 34.5094C176.725 34.472 176.718 34.446 176.713 34.4308C176.707 34.4163 176.636 34.218 176.556 34.1005C176.475 33.9838 176.409 33.9105 176.328 33.8236C176.246 33.7358 176.052 33.5924 176.052 33.5924L175.887 33.4826L175.396 33.2186L175.619 32.8631L175.726 32.6991L175.804 32.5717L175.885 32.4214L175.952 32.2803L176.02 32.1163L176.077 31.9553L176.124 31.7936L176.171 31.5747L176.193 31.4221L176.205 31.284V31.1208C176.205 31.1208 176.202 31.0399 176.197 31.0033C176.192 30.9667 176.183 30.8949 176.18 30.8827C176.177 30.8705 176.164 30.8011 176.164 30.8011C176.164 30.8011 176.144 30.7218 176.141 30.7103C176.138 30.6989 176.112 30.6142 176.109 30.6066C176.106 30.5982 176.093 30.5555 176.07 30.5028C176.047 30.451 176.023 30.396 176.023 30.396L175.97 30.2946C175.97 30.2946 175.917 30.2015 175.908 30.1916C175.899 30.1824 175.864 30.1252 175.848 30.1016C175.832 30.0787 175.79 30.0253 175.784 30.0169C175.777 30.0085 175.677 29.8849 175.65 29.862C175.623 29.8384 175.511 29.7186 175.443 29.6614C175.374 29.6042 175.248 29.4943 175.248 29.4943L175.015 29.3036L174.835 29.1587L174.542 28.9123L174.377 28.7643L174.198 28.5934L174.047 28.4546L173.911 28.3432L173.644 28.1548C173.644 28.1548 173.928 27.871 174.021 27.7932C174.115 27.7154 174.397 27.4346 174.397 27.4346L174.668 27.1653L174.927 26.8899L175.192 26.581L175.393 26.3102L175.539 26.0714L175.666 25.8563L175.848 25.5244L175.97 25.2834C175.97 25.2834 176.101 25.0057 176.111 24.9721C176.121 24.9393 176.187 24.7684 176.187 24.7684C176.187 24.7684 176.253 24.5571 176.26 24.5152C176.266 24.4732 176.321 24.2299 176.325 24.1749C176.329 24.1192 176.345 23.9545 176.345 23.9545L176.347 23.7294L176.332 23.5021L176.301 23.2923C176.301 23.2923 176.253 23.0795 176.243 23.0413C176.233 23.004 176.179 22.8392 176.179 22.8392L176.085 22.6012L175.987 22.3967L175.858 22.164L175.671 21.8757C175.671 21.8757 175.507 21.6499 175.49 21.6285C175.472 21.6079 175.37 21.4775 175.352 21.4584C175.334 21.4393 175.202 21.2967 175.202 21.2967L174.973 21.077L174.707 20.8496L174.381 20.5811C174.381 20.5811 174.059 20.3378 174.015 20.3111C173.972 20.2851 173.732 20.1234 173.732 20.1234L173.366 19.8953L173.016 19.6871L172.67 19.4895L172.454 19.3667L172.156 19.2003L171.87 19.0424L171.59 18.8891L171.299 18.7266L171.009 18.5657L170.729 18.4085L170.47 18.262L170.154 18.0843L169.846 17.9111L169.471 17.7021L168.838 17.3474L168.549 17.1818L168.247 16.9942L168.092 16.1245L167.988 15.6622L167.971 15.5897L167.957 15.528L167.947 15.4868L167.938 15.4509L167.932 15.4212L167.925 15.396L167.919 15.3693L167.912 15.3418L167.906 15.3166L167.899 15.2899L167.887 15.2442L167.872 15.1839L167.845 15.0763L167.836 15.0435L167.828 15.013L167.821 14.9856L167.813 14.9566L167.803 14.9192L167.795 14.8872L167.787 14.8566L167.78 14.8315L167.772 14.801L167.764 14.7735L167.756 14.7414L167.748 14.7147L167.737 14.6758L167.727 14.6392L167.714 14.5935L167.705 14.5607L167.697 14.5324L167.685 14.492L167.674 14.4508L167.663 14.4149L167.655 14.3875L167.645 14.3539L167.634 14.3173L167.623 14.2807L167.614 14.2479L167.603 14.2097L167.593 14.1754L167.58 14.1335L167.57 14.0999L167.562 14.0739L167.554 14.0488L167.544 14.0167L167.535 13.9855L167.526 13.9595L167.518 13.9313L167.507 13.8993L167.495 13.8603L167.484 13.8275L167.474 13.7932L167.462 13.7574L167.449 13.7185L167.435 13.6757L167.422 13.6361L167.41 13.6017L167.394 13.5552L167.381 13.5155L167.366 13.4736L167.352 13.4331L167.336 13.3897L167.325 13.3576L167.31 13.3134L167.251 13.1494L167.237 13.1135L167.222 13.0723L167.209 13.038L167.192 12.9899L167.178 12.9541L167.167 12.9243L167.153 12.8885L167.137 12.8473L167.119 12.8007L166.91 12.285L166.682 11.7633L166.514 11.4047L166.349 11.0599L166.159 10.7006L165.953 10.323L165.666 9.83552L165.351 9.35415L165.119 9.0185L164.776 8.5501L164.428 8.09773L164.097 7.69112L163.808 7.35547L163.437 6.95192L163.013 6.50488L162.571 6.07387L162.173 5.70693L161.929 5.49562L161.634 5.24312L161.295 4.9723L160.877 4.65114L160.237 4.18885L159.54 3.71359L158.582 3.11322L157.882 2.71348L157.31 2.4152C157.31 2.4152 156.719 2.12608 156.605 2.07802C156.492 2.02996 156.157 1.87586 156.157 1.87586L155.438 1.58064L154.489 1.22896L153.792 1.00468L152.815 0.719374L152.005 0.517216L151.099 0.324214L150.209 0.182322C150.209 0.182322 149.299 0.0686564 149.09 0.0587393C148.882 0.0480593 148.33 0.00915354 148.119 0.00533926C147.909 0.00152497 147.398 -0.00686646 147.398 -0.00686646L146.623 0.0099164L145.863 0.0556878C145.863 0.0556878 145.047 0.131211 144.988 0.140365C144.929 0.149519 144.45 0.213599 144.45 0.213599C144.45 0.213599 143.835 0.307431 143.781 0.317348C143.726 0.328028 143.075 0.449322 142.987 0.468394C142.9 0.488228 142.29 0.627068 142.29 0.627068L141.55 0.818545L140.869 1.02146L140.209 1.23735C140.209 1.23735 139.469 1.49901 139.31 1.56538C139.151 1.63175 138.481 1.91172 138.481 1.91172C138.481 1.91172 137.866 2.18635 137.777 2.23288C137.689 2.27942 137.241 2.5037 137.241 2.5037L136.772 2.76764L137.64 4.19037L137.638 4.19876Z" fill="#0095DA"/>
<path d="M53.3046 49.5338C52.7981 47.5687 51.9651 45.6334 49.1661 45.6334C46.844 45.6334 46.0399 47.3307 46.0399 48.8785C46.0399 50.9329 47.3498 51.975 49.8214 53.2551C53.3939 55.1012 54.9417 56.4705 54.9417 59.2984C54.9417 62.4246 52.2321 64.8062 48.3918 64.8062C46.606 64.8062 45.0574 64.2997 43.8368 63.8237C43.5988 62.9906 43.2418 60.966 43.0335 59.3579L43.9566 59.1199C44.5516 61.1148 45.8622 63.7047 48.9586 63.7047C51.1023 63.7047 52.4113 62.2163 52.4113 60.281C52.4113 57.9886 51.1908 57.0655 48.5711 55.6367C45.4449 53.9393 43.6881 52.5105 43.6881 49.7421C43.6881 46.9737 45.8912 44.5913 49.8214 44.5913C51.4883 44.5913 53.1261 45.0383 53.7509 45.1566C53.8699 46.2291 53.9897 47.4192 54.2277 49.3546L53.3046 49.5331V49.5338Z" fill="#0095DA"/>
<path d="M45.5456 19.3384C45.5456 16.1695 46.342 13.2432 47.9364 10.561C49.53 7.87956 51.6477 5.755 54.2903 4.18733C56.932 2.61966 59.731 1.8362 62.687 1.8362C64.7017 1.8362 66.6913 2.25425 68.6571 3.08958C70.6223 3.92567 72.3806 5.09742 73.9331 6.6033C75.4847 8.10994 76.7236 9.95148 77.6489 12.1287C78.5735 14.3059 79.0358 16.6738 79.0358 19.2339C79.0358 22.351 78.3012 25.2635 76.8312 27.9717C75.3611 30.6798 73.3174 32.8349 70.7008 34.4369C68.0827 36.0389 65.1228 36.8399 61.8204 36.8399C59.2938 36.8399 57.0152 36.3173 54.9837 35.273C52.9522 34.2279 51.222 32.8174 49.794 31.0414C48.3651 29.2655 47.3002 27.3629 46.5984 25.3337C45.8965 23.3053 45.5456 21.3066 45.5456 19.3392M49.2363 17.3527C49.2363 20.4003 49.913 23.2824 51.2678 25.9989C52.6211 28.7155 54.4382 30.8881 56.7169 32.5168C58.9956 34.1447 61.4069 34.9587 63.9496 34.9587C65.8323 34.9587 67.6364 34.4667 69.362 33.4826C71.0868 32.4992 72.5035 30.9796 73.6104 28.9245C74.7165 26.8701 75.2696 24.3359 75.2696 21.3226C75.2696 18.9189 74.9019 16.6379 74.1673 14.479C73.4326 12.3194 72.4081 10.426 71.096 8.79728C69.7831 7.16934 68.2681 5.90681 66.5501 5.00969C64.8322 4.11257 63.0242 3.66401 61.1255 3.66401C59.0451 3.66401 57.096 4.20869 55.2797 5.29652C53.4626 6.38512 52.0009 7.97415 50.8955 10.0636C49.7886 12.1531 49.2356 14.5828 49.2356 17.352L49.2363 17.3527Z" fill="#0095DA"/>
<path d="M21.9199 54.7953C21.9199 52.9476 22.3845 51.2411 23.3137 49.678C24.2428 48.1149 25.4779 46.8761 27.0181 45.9614C28.5583 45.0475 30.1908 44.5905 31.9141 44.5905C33.0889 44.5905 34.2485 44.8347 35.395 45.3214C36.5409 45.8088 37.5661 46.4916 38.4716 47.3704C39.3764 48.2492 40.0988 49.3225 40.6382 50.5919C41.1775 51.8613 41.4468 53.2421 41.4468 54.735C41.4468 56.5529 41.0181 58.251 40.1614 59.8301C39.3047 61.4093 38.1131 62.6657 36.5866 63.5994C35.0609 64.5339 33.3346 65.0008 31.4091 65.0008C29.936 65.0008 28.6071 64.6956 27.4232 64.0869C26.2385 63.4774 25.23 62.655 24.3969 61.619C23.5639 60.5831 22.9429 59.4739 22.534 58.2915C22.1244 57.109 21.9199 55.9434 21.9199 54.796M24.072 53.638C24.072 55.4147 24.4671 57.0953 25.2567 58.6798C26.0462 60.2634 27.1051 61.5306 28.434 62.4795C29.7629 63.4293 31.1681 63.9038 32.651 63.9038C33.7488 63.9038 34.8008 63.617 35.807 63.0433C36.8132 62.4696 37.6386 61.5839 38.284 60.3855C38.9286 59.1878 39.2513 57.7102 39.2513 55.9533C39.2513 54.5519 39.0369 53.2223 38.6082 51.9628C38.1802 50.7041 37.5829 49.5995 36.8178 48.6505C36.0526 47.7007 35.1692 46.9653 34.1676 46.442C33.166 45.9194 32.1117 45.6578 31.0048 45.6578C29.7919 45.6578 28.6552 45.9751 27.5964 46.6098C26.5375 47.2445 25.6846 48.1706 25.04 49.3897C24.3946 50.608 24.0727 52.0246 24.0727 53.6388L24.072 53.638Z" fill="#0095DA"/>
<path d="M110.621 58.1778H103.301L102.018 61.1544C101.701 61.8776 101.544 62.4254 101.544 62.7961C101.544 62.9441 101.569 63.0806 101.62 63.2065C101.671 63.3316 101.776 63.4476 101.934 63.5544C102.092 63.6612 102.315 63.7489 102.603 63.8183C102.892 63.8878 103.269 63.9419 103.733 63.9785V64.4935H97.7792V63.9785C98.5604 63.8397 99.0715 63.6589 99.3133 63.4361C99.5551 63.2141 99.8038 62.8777 100.059 62.4276C100.315 61.9783 100.591 61.41 100.889 60.7234L107.54 45.2008H108.028L114.609 60.8905C114.879 61.5397 115.127 62.0607 115.355 62.4551C115.584 62.8495 115.818 63.1554 116.06 63.3728C116.302 63.591 116.564 63.7413 116.848 63.8244C117.131 63.9076 117.469 63.9587 117.859 63.977V64.4919H110.399V63.977C110.771 63.9587 111.082 63.9167 111.333 63.8519C111.584 63.7871 111.781 63.7039 111.926 63.6017C112.07 63.5002 112.172 63.3835 112.232 63.2538C112.293 63.1241 112.323 62.98 112.323 62.822C112.332 62.6184 112.289 62.3559 112.191 62.0363C112.093 61.7159 111.952 61.3337 111.766 60.889L110.623 58.1762L110.621 58.1778ZM110.231 57.1479L107.023 49.5254L103.733 57.1479H110.231Z" fill="#0095DA"/>
<path d="M134.904 59.1405L135.374 59.2404L133.722 64.4851H118.759V63.9579H119.486C120.293 63.9579 120.878 63.6925 121.239 63.16C121.438 62.8655 121.538 62.1622 121.538 61.0507V48.581C121.538 47.365 121.405 46.6098 121.139 46.3153C120.768 45.8973 120.217 45.6883 119.486 45.6883H118.759V45.1611H127.509V45.6883C126.986 45.6883 126.551 45.7127 126.204 45.7592C125.858 45.8073 125.572 45.8782 125.35 45.9728C125.126 46.0682 124.951 46.1795 124.822 46.3077C124.694 46.4359 124.588 46.5762 124.502 46.728C124.35 47.0225 124.274 47.7495 124.274 48.9083V61.0499C124.274 61.3825 124.285 61.6678 124.31 61.9051C124.334 62.1423 124.374 62.3399 124.431 62.4963C124.488 62.6527 124.564 62.7808 124.659 62.8808C124.754 62.9807 124.877 63.0585 125.03 63.1157C125.258 63.2111 126 63.2584 127.253 63.2584H128.664C130.137 63.2584 131.176 63.1493 131.785 62.9304C132.089 62.8258 132.374 62.6832 132.64 62.5032C132.906 62.3231 133.164 62.0828 133.417 61.7838C133.669 61.4848 133.915 61.1209 134.158 60.6937C134.401 60.2665 134.65 59.7485 134.907 59.1405" fill="#0095DA"/>
<path d="M42.675 27.4186L43.5042 27.5941L40.5893 36.8399H14.2097V35.91H15.4906C16.9141 35.91 17.9447 35.4416 18.5809 34.5033C18.9334 33.9845 19.1096 32.7441 19.1096 30.7851V8.80185C19.1096 6.65822 18.8746 5.32703 18.4062 4.80753C17.7525 4.07061 16.7813 3.70215 15.4913 3.70215H14.2105V2.77299H29.6362V3.70215C28.7155 3.70215 27.9488 3.7441 27.337 3.82802C26.7259 3.91193 26.2232 4.0378 25.8303 4.20487C25.4367 4.3727 25.127 4.56875 24.9004 4.79532C24.6746 5.02113 24.4862 5.26906 24.3351 5.53682C24.0674 6.05556 23.9331 7.33716 23.9331 9.38085V30.7859C23.9331 31.3725 23.9537 31.8745 23.9957 32.2933C24.0376 32.7121 24.1086 33.0599 24.2093 33.3353C24.31 33.6115 24.4435 33.838 24.6113 34.0135C24.7784 34.1897 24.9965 34.3278 25.2643 34.4277C25.6663 34.5956 26.9723 34.6787 29.1831 34.6787H31.6708C34.2668 34.6787 36.0999 34.4865 37.1725 34.1012C37.708 33.9174 38.2108 33.6656 38.6799 33.3475C39.1483 33.0302 39.6045 32.6068 40.0492 32.0789C40.4925 31.551 40.928 30.9102 41.3552 30.1565C41.7824 29.4028 42.2219 28.4897 42.6735 27.4178" fill="#0095DA"/>
<path d="M5.50554 54.1728H14.492V48.639C14.492 48.1821 14.4821 47.8113 14.4638 47.526C14.4447 47.2407 14.4088 47.0057 14.3562 46.8196C14.3043 46.6342 14.2258 46.487 14.1212 46.3771C14.0167 46.268 13.8787 46.1658 13.7078 46.0705C13.2897 45.8424 12.8572 45.7279 12.4102 45.7279H11.7251V45.2H20.0128L19.9983 45.7279H19.314C19.1332 45.7279 18.9433 45.7478 18.7434 45.7852C18.5435 45.8233 18.3536 45.8851 18.1728 45.9705C17.992 46.056 17.8325 46.1635 17.6945 46.2917C17.5564 46.4199 17.4542 46.5747 17.3878 46.7547C17.2833 47.0683 17.2307 47.6961 17.2307 48.6375V61.1178C17.2307 61.574 17.2398 61.9448 17.2589 62.2301C17.278 62.5154 17.3138 62.7511 17.3657 62.9365C17.4176 63.1218 17.4938 63.2668 17.5938 63.3713C17.6937 63.4758 17.8287 63.5757 18.0004 63.6711C18.4085 63.9 18.8464 64.0136 19.3125 64.0136H19.9968V64.5415H11.7243V64.0136H12.4094C13.189 64.0136 13.7642 63.781 14.1357 63.3148C14.373 63.0204 14.492 62.288 14.492 61.1186V55.2278H5.50554V61.1186C5.50554 61.5748 5.51546 61.9455 5.53377 62.2308C5.55284 62.5161 5.58869 62.7488 5.64133 62.9296C5.6932 63.1104 5.77178 63.2553 5.87629 63.3644C5.9808 63.4743 6.11888 63.5765 6.28976 63.6711C6.69865 63.9 7.13119 64.0136 7.58814 64.0136H8.28692V64.5415H0V64.0136H0.685046C1.49291 64.0136 2.07345 63.781 2.42512 63.3148C2.65322 63.0204 2.76765 62.288 2.76765 61.1186V48.6382C2.76765 48.1813 2.75773 47.8105 2.73942 47.5252C2.71959 47.2399 2.68449 47.005 2.63186 46.8188C2.57922 46.6334 2.5037 46.4862 2.40376 46.3764C2.30383 46.2673 2.16804 46.1651 1.99716 46.0697C1.57835 45.8416 1.14123 45.7272 0.685046 45.7272H0V45.1993H8.28692V45.7272H7.58814C7.39742 45.7272 7.20518 45.747 7.00989 45.7844C6.81536 45.8225 6.62923 45.8843 6.45377 45.9698C6.27755 46.0552 6.1204 46.1628 5.98309 46.2909C5.84501 46.4191 5.74279 46.5739 5.67642 46.754C5.56275 47.0584 5.50554 47.6862 5.50554 48.6367V54.1705V54.1728Z" fill="#0095DA"/>
<path d="M62.1301 55.4673V61.0919C62.1301 62.3071 62.2629 63.0616 62.5291 63.356C62.8899 63.7741 63.4354 63.9823 64.167 63.9823H64.9077V64.5087H56.6345V63.9823H57.3607C57.759 63.9823 58.1083 63.916 58.4074 63.7832C58.7064 63.6505 58.9414 63.4514 59.1123 63.1851C59.3022 62.8815 59.3968 62.1843 59.3968 61.0919V48.6176C59.3968 47.4123 59.2694 46.6578 59.0123 46.3535C58.6416 45.9362 58.0916 45.7272 57.3607 45.7272H56.6345V45.2H63.7115C65.4295 45.2 66.7919 45.3808 67.7982 45.7417C68.2917 45.9217 68.7525 46.1643 69.1797 46.4679C69.6069 46.7723 69.9822 47.1301 70.3049 47.5435C70.6276 47.9562 70.8816 48.4139 71.067 48.9174C71.2524 49.4209 71.3447 49.9618 71.3447 50.5408C71.3447 51.3288 71.2112 52.0482 70.9457 52.6981C70.6802 53.3481 70.2927 53.908 69.7854 54.3787C69.2773 54.8486 68.6533 55.2141 67.9133 55.4749C67.1726 55.7358 66.3274 55.8671 65.3784 55.8671C64.4294 55.8671 63.3469 55.7343 62.1317 55.4681M62.1301 54.6549C62.6428 54.7502 63.0913 54.8212 63.4758 54.8685C63.8603 54.9158 64.1898 54.9394 64.466 54.9394C64.9596 54.9394 65.4272 54.8372 65.8689 54.6335C66.3106 54.4298 66.6943 54.1445 67.0223 53.7791C67.3496 53.4137 67.6105 52.9796 67.805 52.4762C67.9996 51.9727 68.0972 51.4227 68.0972 50.8246C68.0972 50.122 67.9927 49.4926 67.7844 48.9373C67.5746 48.3819 67.2855 47.912 66.9155 47.5275C66.5455 47.143 66.1115 46.8508 65.6126 46.6517C65.1144 46.4526 64.5751 46.3527 63.9961 46.3527C63.7489 46.3527 63.472 46.3748 63.163 46.4168C62.8548 46.4595 62.5108 46.5282 62.1309 46.6235V54.6541L62.1301 54.6549Z" fill="#0095DA"/>
<path d="M97.7785 45.2V49.7283H97.4512C97.3749 49.1211 97.249 48.6054 97.0736 48.1836C96.8981 47.7609 96.6677 47.4192 96.3824 47.1583C96.0971 46.8974 95.7515 46.7074 95.3427 46.5892C94.9345 46.4709 94.46 46.4107 93.9184 46.4107H91.1988V61.1628C91.1988 62.3498 91.327 63.0898 91.5833 63.3843C91.935 63.7832 92.4896 63.9823 93.2494 63.9823H93.9184V64.5095H85.7307V63.9823H86.4134C87.2297 63.9823 87.8087 63.7359 88.1512 63.2424C88.3595 62.9479 88.4647 62.2552 88.4647 61.1628V46.4107H86.1441C85.5552 46.4107 85.0426 46.4534 84.6062 46.5388C84.1691 46.6243 83.7991 46.786 83.4955 47.0233C83.1919 47.2605 82.9455 47.5977 82.7548 48.034C82.5648 48.4712 82.4229 49.0357 82.3275 49.7283H81.7867V45.2H97.7777H97.7785Z" fill="#0095DA"/>
<path d="M79.9719 63.9823V64.5095H71.6987V63.9823H72.3822C73.1893 63.9823 73.7683 63.7497 74.1192 63.2843C74.3473 62.9906 74.461 62.259 74.461 61.0919V48.6176C74.461 48.1622 74.4511 47.7922 74.4328 47.5069C74.4137 47.2224 74.3778 46.9874 74.3259 46.802C74.2741 46.6167 74.1978 46.4725 74.0979 46.368C73.9979 46.2635 73.8629 46.1643 73.692 46.0689C73.274 45.8408 72.8376 45.7272 72.3822 45.7272H71.6987V45.2H79.9719V45.7272H79.2738C78.4767 45.7272 77.9022 45.9598 77.5513 46.4244C77.3141 46.7189 77.1951 47.4497 77.1951 48.6169V61.0911C77.1951 61.5473 77.205 61.9173 77.224 62.2018C77.2431 62.4864 77.279 62.7198 77.3308 62.8998C77.3827 63.0799 77.4613 63.2256 77.5658 63.3339C77.6703 63.443 77.8076 63.5452 77.9785 63.6398C78.3866 63.8679 78.8184 63.9816 79.2738 63.9816H79.9719V63.9823Z" fill="#0095DA"/>
<path fill-rule="evenodd" clip-rule="evenodd" d="M75.6151 43.9329C76.3307 43.9329 76.7983 43.7972 76.9112 42.9077C77.047 41.8336 75.9874 41.5483 75.2139 42.0128C74.3236 42.5484 74.8515 43.9322 75.6151 43.9322" fill="#0095DA"/>
<path d="M100.794 24.8218L97.8257 20.5887C95.5532 20.5887 93.6697 20.4766 92.173 20.2531L92.1211 26.4483C92.1211 27.7558 92.1607 29.2189 92.2378 30.8362C92.3148 32.4542 92.4911 33.5985 92.7665 34.2691C92.8694 34.578 93.0274 34.8191 93.241 34.993C93.3325 35.0678 93.4134 35.1128 93.4759 35.1463C94.238 35.5484 95.2831 35.7032 95.6066 35.7475C95.7736 35.7704 96.0094 35.7994 96.2962 35.823V36.8063H84.9914V35.823C85.2401 35.8055 85.5948 35.7612 86.0022 35.6369C86.1685 35.5865 87.1556 35.3378 87.6805 34.6947C88.0245 34.2736 88.274 33.4475 88.4289 32.217C88.5837 30.9865 88.6699 29.0122 88.6867 26.2926V14.8833C88.721 12.0959 88.7081 10.0484 88.6478 8.74005C88.6264 8.26479 88.7325 7.13195 88.2221 5.86179C88.0222 5.36594 87.7827 4.7648 87.1823 4.28497C86.3173 3.59306 85.2927 3.61442 84.938 3.6373V2.69975H88.6615C90.1796 2.69975 91.6969 2.70433 93.2143 2.69975C97.1346 2.68754 97.0682 2.64559 98.0042 2.69975C100.034 2.81723 101.288 2.89733 102.883 3.44811C104.328 3.94702 105.537 4.60918 106.509 5.43612C107.481 6.26229 108.217 7.20442 108.716 8.2625C109.215 9.32135 109.465 10.4099 109.465 11.5275C109.465 12.6451 109.207 13.7993 108.691 14.8833C107.961 16.4167 106.875 17.3771 106.341 17.8386C104.609 19.3377 102.759 19.967 101.603 20.2485C102.088 20.9923 102.574 21.7361 103.059 22.4799C104.597 24.7456 105.921 26.642 106.936 28.0777C108.248 29.9345 108.994 30.9522 110.15 32.2002C112.36 34.5834 113.668 35.2181 114.699 35.5209C115.641 35.7978 116.472 35.8337 117.044 35.8169C117.085 35.868 117.229 36.0602 117.223 36.3417C117.218 36.6034 117.086 36.7796 117.044 36.8338C115.324 36.8712 113.898 36.7354 112.855 36.5881C110.695 36.2822 109.864 35.881 109.583 35.7376C108.527 35.1967 107.841 34.5063 107.313 33.922C104.699 31.0292 101.227 25.5168 100.792 24.8226M92.3271 18.7564C93.4797 19.0318 94.8727 19.1691 96.5083 19.1691C97.3344 19.1691 98.2071 19.1088 99.1287 18.989C100.049 18.8693 100.996 18.603 101.968 18.1903C102.94 17.7784 103.778 17.0827 104.485 16.1031C105.19 15.1236 105.543 13.81 105.543 12.1607C105.543 10.9928 105.237 9.76838 104.627 8.48907C104.015 7.209 103.073 6.10972 101.8 5.19048C100.525 4.27124 98.9776 3.81123 97.1529 3.81123C96.3954 3.81123 95.5402 3.9104 94.5851 4.10798C93.6308 4.30556 93.0754 4.6191 92.9206 5.04859C92.5246 5.89002 92.3271 10.4595 92.3271 18.7571V18.7564Z" fill="#0095DA"/>
</g>
<defs>
<clipPath id="clip0_5_461">
<rect width="176.778" height="65" fill="white"/>
</clipPath>
</defs>
</svg>
