<svg width="15" height="16" viewBox="0 0 15 16" fill="none" xmlns="http://www.w3.org/2000/svg">
<path d="M7.78932 0L8.48317 0.063753C11.8252 0.495857 14.5097 3.20367 14.9307 6.56995L14.994 7.26846V7.83824L14.9463 8.41386C14.586 11.7771 11.9218 14.5254 8.60524 15.0118L7.85066 15.0915H7.10112L6.37714 15.0118C3.11606 14.5326 0.551901 11.9043 0.0824492 8.62868L0.00336593 7.86903C0.0111672 7.62865 -0.0071887 7.38534 0.00336593 7.14527C0.173464 3.27697 3.37412 0.164618 7.19275 0H7.78932ZM12.6686 11.6109C12.7947 11.4044 12.9461 11.2153 13.0729 11.0091C15.3735 7.27262 13.4302 2.35424 9.261 1.19006C4.81781 -0.0506636 0.550218 3.58203 0.967202 8.18457C1.08055 9.43668 1.58197 10.6466 2.35154 11.6263C2.9091 10.3147 4.11003 9.33304 5.50982 9.07742C6.02899 8.98256 6.52398 8.99965 7.04805 8.99364C7.68821 8.98641 8.36753 8.96854 9.00601 9.00781C10.4615 9.09728 11.7872 10.0276 12.488 11.2926C12.5322 11.3724 12.592 11.5422 12.6373 11.6015C12.6487 11.6166 12.6504 11.6134 12.6686 11.6109Z" fill="#8A8A8A"/>
<path d="M7.23547 2.83809C9.70036 2.64529 11.2553 5.4244 9.73799 7.40552C8.5008 9.0209 6.0018 8.82656 5.01793 7.04779C4.03528 5.27133 5.2304 2.99485 7.23547 2.83809Z" fill="#8A8A8A"/>
</svg>
