<svg width="79" height="79" viewBox="0 0 79 79" fill="none" xmlns="http://www.w3.org/2000/svg">
<g clip-path="url(#clip0_112_294)">
<path fill-rule="evenodd" clip-rule="evenodd" d="M0 77.4432V78.5655H1.12236C0.505064 78.5655 0 78.0605 0 77.4432ZM77.4432 78.5655H78.5656V77.4432C78.5656 78.0605 78.0605 78.5655 77.4432 78.5655Z" fill="white"/>
<path fill-rule="evenodd" clip-rule="evenodd" d="M34.7933 29.1815H30.3039C29.6866 29.1815 29.1815 29.6866 29.1815 30.3039C29.1815 30.9212 29.6866 31.4262 30.3039 31.4262H34.7933C35.4106 31.4262 35.9157 30.9212 35.9157 30.3039C35.9157 29.6866 35.4106 29.1815 34.7933 29.1815ZM45.8711 40.4051C45.8711 39.7878 45.366 39.2828 44.7487 39.2828C44.513 39.294 44.2773 39.3726 44.0865 39.5185H44.0753C44.0753 39.5185 44.0079 39.5746 43.963 39.6083C41.3704 42.156 37.2176 42.1673 34.6137 39.6307C34.5913 39.6083 34.5688 39.5858 34.5464 39.5746L34.5127 39.5409H34.5015C34.3107 39.3726 34.0638 39.2828 33.8056 39.2828C33.1883 39.2828 32.6833 39.7878 32.6833 40.4051C32.6833 40.7194 32.8292 41.0224 33.0761 41.2357V41.2581C36.5891 44.6477 42.1785 44.6028 45.6354 41.1459L45.6017 41.1122C45.77 40.9102 45.8711 40.6633 45.8711 40.4051ZM48.2617 29.1815H43.7722C43.1549 29.1815 42.6499 29.6866 42.6499 30.3039C42.6499 30.9212 43.1549 31.4262 43.7722 31.4262H48.2617C48.879 31.4262 49.3841 30.9212 49.3841 30.3039C49.3841 29.6866 48.879 29.1815 48.2617 29.1815ZM58.363 20.1016C56.3427 19.473 54.6592 18.0476 53.6939 16.1733C52.7512 14.5458 52.0441 12.795 51.5839 10.9767C51.4717 10.4717 51.0227 10.1013 50.5064 10.1013H50.4615C49.8779 10.1125 49.4065 10.5951 49.4177 11.19C49.4177 11.5267 49.4514 11.8522 49.4963 12.1889C49.4963 12.1889 49.4514 14.1306 51.9879 17.7895C53.5256 20.0005 55.153 21.6841 57.3304 22.2341C57.6671 22.3351 58.015 22.38 58.363 22.38C58.9803 22.38 59.4853 21.8749 59.4853 21.2576C59.4741 20.6291 58.9803 20.124 58.363 20.1016ZM48.2617 29.1815H43.7722C43.1549 29.1815 42.6499 29.6866 42.6499 30.3039C42.6499 30.9212 43.1549 31.4262 43.7722 31.4262H48.2617C48.879 31.4262 49.3841 30.9212 49.3841 30.3039C49.3841 29.6866 48.879 29.1815 48.2617 29.1815ZM45.8711 40.4051C45.8711 39.7878 45.366 39.2828 44.7487 39.2828C44.513 39.294 44.2773 39.3726 44.0865 39.5185H44.0753C44.0753 39.5185 44.0079 39.5746 43.963 39.6083C41.3704 42.156 37.2176 42.1673 34.6137 39.6307C34.5913 39.6083 34.5688 39.5858 34.5464 39.5746L34.5127 39.5409H34.5015C34.3107 39.3726 34.0638 39.2828 33.8056 39.2828C33.1883 39.2828 32.6833 39.7878 32.6833 40.4051C32.6833 40.7194 32.8292 41.0224 33.0761 41.2357V41.2581C36.5891 44.6477 42.1785 44.6028 45.6354 41.1459L45.6017 41.1122C45.77 40.9102 45.8711 40.6633 45.8711 40.4051ZM34.7933 29.1815H30.3039C29.6866 29.1815 29.1815 29.6866 29.1815 30.3039C29.1815 30.9212 29.6866 31.4262 30.3039 31.4262H34.7933C35.4106 31.4262 35.9157 30.9212 35.9157 30.3039C35.9157 29.6866 35.4106 29.1815 34.7933 29.1815ZM58.363 20.1016C56.3427 19.473 54.6592 18.0476 53.6939 16.1733C52.7512 14.5458 52.0441 12.795 51.5839 10.9767C51.4717 10.4717 51.0227 10.1013 50.5064 10.1013H50.4615C49.8779 10.1125 49.4065 10.5951 49.4177 11.19C49.4177 11.5267 49.4514 11.8522 49.4963 12.1889C49.4963 12.1889 49.4514 14.1306 51.9879 17.7895C53.5256 20.0005 55.153 21.6841 57.3304 22.2341C57.6671 22.3351 58.015 22.38 58.363 22.38C58.9803 22.38 59.4853 21.8749 59.4853 21.2576C59.4741 20.6291 58.9803 20.124 58.363 20.1016ZM34.7933 29.1815H30.3039C29.6866 29.1815 29.1815 29.6866 29.1815 30.3039C29.1815 30.9212 29.6866 31.4262 30.3039 31.4262H34.7933C35.4106 31.4262 35.9157 30.9212 35.9157 30.3039C35.9157 29.6866 35.4106 29.1815 34.7933 29.1815ZM34.7933 6.76786C34.5913 6.74541 34.378 6.74541 34.176 6.76786C30.2253 7.23925 26.5552 9.07993 23.8278 11.9869C18.7884 16.9814 19.1139 20.1913 19.1139 20.1913C19.1139 20.8086 19.6189 21.3137 20.2362 21.3137C20.8535 21.3137 21.3586 20.8086 21.3586 20.1913C22.1667 17.6436 23.6146 15.3427 25.5563 13.5133C27.9806 10.9318 31.2691 9.33808 34.7933 9.03504V9.00137C35.3882 8.99014 35.882 8.4963 35.8932 7.90145C35.9045 7.28415 35.4106 6.76786 34.7933 6.75664V6.76786ZM45.8711 40.4051C45.8711 39.7878 45.366 39.2828 44.7487 39.2828C44.513 39.294 44.2773 39.3726 44.0865 39.5185H44.0753C44.0753 39.5185 44.0079 39.5746 43.963 39.6083C41.3704 42.156 37.2176 42.1673 34.6137 39.6307C34.5913 39.6083 34.5688 39.5858 34.5464 39.5746L34.5127 39.5409H34.5015C34.3107 39.3726 34.0638 39.2828 33.8056 39.2828C33.1883 39.2828 32.6833 39.7878 32.6833 40.4051C32.6833 40.7194 32.8292 41.0224 33.0761 41.2357V41.2581C36.5891 44.6477 42.1785 44.6028 45.6354 41.1459L45.6017 41.1122C45.77 40.9102 45.8711 40.6633 45.8711 40.4051ZM48.2617 29.1815H43.7722C43.1549 29.1815 42.6499 29.6866 42.6499 30.3039C42.6499 30.9212 43.1549 31.4262 43.7722 31.4262H48.2617C48.879 31.4262 49.3841 30.9212 49.3841 30.3039C49.3841 29.6866 48.879 29.1815 48.2617 29.1815ZM58.363 20.1016C56.3427 19.473 54.6592 18.0476 53.6939 16.1733C52.7512 14.5458 52.0441 12.795 51.5839 10.9767C51.4717 10.4717 51.0227 10.1013 50.5064 10.1013H50.4615C49.8779 10.1125 49.4065 10.5951 49.4177 11.19C49.4177 11.5267 49.4514 11.8522 49.4963 12.1889C49.4963 12.1889 49.4514 14.1306 51.9879 17.7895C53.5256 20.0005 55.153 21.6841 57.3304 22.2341C57.6671 22.3351 58.015 22.38 58.363 22.38C58.9803 22.38 59.4853 21.8749 59.4853 21.2576C59.4741 20.6291 58.9803 20.124 58.363 20.1016ZM58.363 20.1016C56.3427 19.473 54.6592 18.0476 53.6939 16.1733C52.7512 14.5458 52.0441 12.795 51.5839 10.9767C51.4717 10.4717 51.0227 10.1013 50.5064 10.1013H50.4615C49.8779 10.1125 49.4065 10.5951 49.4177 11.19C49.4177 11.5267 49.4514 11.8522 49.4963 12.1889C49.4963 12.1889 49.4514 14.1306 51.9879 17.7895C53.5256 20.0005 55.153 21.6841 57.3304 22.2341C57.6671 22.3351 58.015 22.38 58.363 22.38C58.9803 22.38 59.4853 21.8749 59.4853 21.2576C59.4741 20.6291 58.9803 20.124 58.363 20.1016ZM48.2617 29.1815H43.7722C43.1549 29.1815 42.6499 29.6866 42.6499 30.3039C42.6499 30.9212 43.1549 31.4262 43.7722 31.4262H48.2617C48.879 31.4262 49.3841 30.9212 49.3841 30.3039C49.3841 29.6866 48.879 29.1815 48.2617 29.1815ZM45.8711 40.4051C45.8711 39.7878 45.366 39.2828 44.7487 39.2828C44.513 39.294 44.2773 39.3726 44.0865 39.5185H44.0753C44.0753 39.5185 44.0079 39.5746 43.963 39.6083C41.3704 42.156 37.2176 42.1673 34.6137 39.6307C34.5913 39.6083 34.5688 39.5858 34.5464 39.5746L34.5127 39.5409H34.5015C34.3107 39.3726 34.0638 39.2828 33.8056 39.2828C33.1883 39.2828 32.6833 39.7878 32.6833 40.4051C32.6833 40.7194 32.8292 41.0224 33.0761 41.2357V41.2581C36.5891 44.6477 42.1785 44.6028 45.6354 41.1459L45.6017 41.1122C45.77 40.9102 45.8711 40.6633 45.8711 40.4051ZM34.7933 29.1815H30.3039C29.6866 29.1815 29.1815 29.6866 29.1815 30.3039C29.1815 30.9212 29.6866 31.4262 30.3039 31.4262H34.7933C35.4106 31.4262 35.9157 30.9212 35.9157 30.3039C35.9157 29.6866 35.4106 29.1815 34.7933 29.1815ZM34.7933 6.76786C34.5913 6.74541 34.378 6.74541 34.176 6.76786C30.2253 7.23925 26.5552 9.07993 23.8278 11.9869C18.7884 16.9814 19.1139 20.1913 19.1139 20.1913C19.1139 20.8086 19.6189 21.3137 20.2362 21.3137C20.8535 21.3137 21.3586 20.8086 21.3586 20.1913C22.1667 17.6436 23.6146 15.3427 25.5563 13.5133C27.9806 10.9318 31.2691 9.33808 34.7933 9.03504V9.00137C35.3882 8.99014 35.882 8.4963 35.8932 7.90145C35.9045 7.28415 35.4106 6.76786 34.7933 6.75664V6.76786ZM34.7933 29.1815H30.3039C29.6866 29.1815 29.1815 29.6866 29.1815 30.3039C29.1815 30.9212 29.6866 31.4262 30.3039 31.4262H34.7933C35.4106 31.4262 35.9157 30.9212 35.9157 30.3039C35.9157 29.6866 35.4106 29.1815 34.7933 29.1815ZM34.7933 6.76786C34.5913 6.74541 34.378 6.74541 34.176 6.76786C30.2253 7.23925 26.5552 9.07993 23.8278 11.9869C18.7884 16.9814 19.1139 20.1913 19.1139 20.1913C19.1139 20.8086 19.6189 21.3137 20.2362 21.3137C20.8535 21.3137 21.3586 20.8086 21.3586 20.1913C22.1667 17.6436 23.6146 15.3427 25.5563 13.5133C27.9806 10.9318 31.2691 9.33808 34.7933 9.03504V9.00137C35.3882 8.99014 35.882 8.4963 35.8932 7.90145C35.9045 7.28415 35.4106 6.76786 34.7933 6.75664V6.76786ZM45.8711 40.4051C45.8711 39.7878 45.366 39.2828 44.7487 39.2828C44.513 39.294 44.2773 39.3726 44.0865 39.5185H44.0753C44.0753 39.5185 44.0079 39.5746 43.963 39.6083C41.3704 42.156 37.2176 42.1673 34.6137 39.6307C34.5913 39.6083 34.5688 39.5858 34.5464 39.5746L34.5127 39.5409H34.5015C34.3107 39.3726 34.0638 39.2828 33.8056 39.2828C33.1883 39.2828 32.6833 39.7878 32.6833 40.4051C32.6833 40.7194 32.8292 41.0224 33.0761 41.2357V41.2581C36.5891 44.6477 42.1785 44.6028 45.6354 41.1459L45.6017 41.1122C45.77 40.9102 45.8711 40.6633 45.8711 40.4051ZM48.2617 29.1815H43.7722C43.1549 29.1815 42.6499 29.6866 42.6499 30.3039C42.6499 30.9212 43.1549 31.4262 43.7722 31.4262H48.2617C48.879 31.4262 49.3841 30.9212 49.3841 30.3039C49.3841 29.6866 48.879 29.1815 48.2617 29.1815ZM58.363 20.1016C56.3427 19.473 54.6592 18.0476 53.6939 16.1733C52.7512 14.5458 52.0441 12.795 51.5839 10.9767C51.4717 10.4717 51.0227 10.1013 50.5064 10.1013H50.4615C49.8779 10.1125 49.4065 10.5951 49.4177 11.19C49.4177 11.5267 49.4514 11.8522 49.4963 12.1889C49.4963 12.1889 49.4514 14.1306 51.9879 17.7895C53.5256 20.0005 55.153 21.6841 57.3304 22.2341C57.6671 22.3351 58.015 22.38 58.363 22.38C58.9803 22.38 59.4853 21.8749 59.4853 21.2576C59.4741 20.6291 58.9803 20.124 58.363 20.1016ZM58.363 20.1016C56.3427 19.473 54.6592 18.0476 53.6939 16.1733C52.7512 14.5458 52.0441 12.795 51.5839 10.9767C51.4717 10.4717 51.0227 10.1013 50.5064 10.1013H50.4615C49.8779 10.1125 49.4065 10.5951 49.4177 11.19C49.4177 11.5267 49.4514 11.8522 49.4963 12.1889C49.4963 12.1889 49.4514 14.1306 51.9879 17.7895C53.5256 20.0005 55.153 21.6841 57.3304 22.2341C57.6671 22.3351 58.015 22.38 58.363 22.38C58.9803 22.38 59.4853 21.8749 59.4853 21.2576C59.4741 20.6291 58.9803 20.124 58.363 20.1016ZM48.2617 29.1815H43.7722C43.1549 29.1815 42.6499 29.6866 42.6499 30.3039C42.6499 30.9212 43.1549 31.4262 43.7722 31.4262H48.2617C48.879 31.4262 49.3841 30.9212 49.3841 30.3039C49.3841 29.6866 48.879 29.1815 48.2617 29.1815ZM45.8711 40.4051C45.8711 39.7878 45.366 39.2828 44.7487 39.2828C44.513 39.294 44.2773 39.3726 44.0865 39.5185H44.0753C44.0753 39.5185 44.0079 39.5746 43.963 39.6083C41.3704 42.156 37.2176 42.1673 34.6137 39.6307C34.5913 39.6083 34.5688 39.5858 34.5464 39.5746L34.5127 39.5409H34.5015C34.3107 39.3726 34.0638 39.2828 33.8056 39.2828C33.1883 39.2828 32.6833 39.7878 32.6833 40.4051C32.6833 40.7194 32.8292 41.0224 33.0761 41.2357V41.2581C36.5891 44.6477 42.1785 44.6028 45.6354 41.1459L45.6017 41.1122C45.77 40.9102 45.8711 40.6633 45.8711 40.4051ZM34.7933 29.1815H30.3039C29.6866 29.1815 29.1815 29.6866 29.1815 30.3039C29.1815 30.9212 29.6866 31.4262 30.3039 31.4262H34.7933C35.4106 31.4262 35.9157 30.9212 35.9157 30.3039C35.9157 29.6866 35.4106 29.1815 34.7933 29.1815ZM34.7933 6.76786C34.5913 6.74541 34.378 6.74541 34.176 6.76786C30.2253 7.23925 26.5552 9.07993 23.8278 11.9869C18.7884 16.9814 19.1139 20.1913 19.1139 20.1913C19.1139 20.8086 19.6189 21.3137 20.2362 21.3137C20.8535 21.3137 21.3586 20.8086 21.3586 20.1913C22.1667 17.6436 23.6146 15.3427 25.5563 13.5133C27.9806 10.9318 31.2691 9.33808 34.7933 9.03504V9.00137C35.3882 8.99014 35.882 8.4963 35.8932 7.90145C35.9045 7.28415 35.4106 6.76786 34.7933 6.75664V6.76786ZM34.7933 29.1815H30.3039C29.6866 29.1815 29.1815 29.6866 29.1815 30.3039C29.1815 30.9212 29.6866 31.4262 30.3039 31.4262H34.7933C35.4106 31.4262 35.9157 30.9212 35.9157 30.3039C35.9157 29.6866 35.4106 29.1815 34.7933 29.1815ZM34.7933 6.76786C34.5913 6.74541 34.378 6.74541 34.176 6.76786C30.2253 7.23925 26.5552 9.07993 23.8278 11.9869C18.7884 16.9814 19.1139 20.1913 19.1139 20.1913C19.1139 20.8086 19.6189 21.3137 20.2362 21.3137C20.8535 21.3137 21.3586 20.8086 21.3586 20.1913C22.1667 17.6436 23.6146 15.3427 25.5563 13.5133C27.9806 10.9318 31.2691 9.33808 34.7933 9.03504V9.00137C35.3882 8.99014 35.882 8.4963 35.8932 7.90145C35.9045 7.28415 35.4106 6.76786 34.7933 6.75664V6.76786ZM45.8711 40.4051C45.8711 39.7878 45.366 39.2828 44.7487 39.2828C44.513 39.294 44.2773 39.3726 44.0865 39.5185H44.0753C44.0753 39.5185 44.0079 39.5746 43.963 39.6083C41.3704 42.156 37.2176 42.1673 34.6137 39.6307C34.5913 39.6083 34.5688 39.5858 34.5464 39.5746L34.5127 39.5409H34.5015C34.3107 39.3726 34.0638 39.2828 33.8056 39.2828C33.1883 39.2828 32.6833 39.7878 32.6833 40.4051C32.6833 40.7194 32.8292 41.0224 33.0761 41.2357V41.2581C36.5891 44.6477 42.1785 44.6028 45.6354 41.1459L45.6017 41.1122C45.77 40.9102 45.8711 40.6633 45.8711 40.4051ZM48.2617 29.1815H43.7722C43.1549 29.1815 42.6499 29.6866 42.6499 30.3039C42.6499 30.9212 43.1549 31.4262 43.7722 31.4262H48.2617C48.879 31.4262 49.3841 30.9212 49.3841 30.3039C49.3841 29.6866 48.879 29.1815 48.2617 29.1815ZM58.363 20.1016C56.3427 19.473 54.6592 18.0476 53.6939 16.1733C52.7512 14.5458 52.0441 12.795 51.5839 10.9767C51.4717 10.4717 51.0227 10.1013 50.5064 10.1013H50.4615C49.8779 10.1125 49.4065 10.5951 49.4177 11.19C49.4177 11.5267 49.4514 11.8522 49.4963 12.1889C49.4963 12.1889 49.4514 14.1306 51.9879 17.7895C53.5256 20.0005 55.153 21.6841 57.3304 22.2341C57.6671 22.3351 58.015 22.38 58.363 22.38C58.9803 22.38 59.4853 21.8749 59.4853 21.2576C59.4741 20.6291 58.9803 20.124 58.363 20.1016ZM58.363 20.1016C56.3427 19.473 54.6592 18.0476 53.6939 16.1733C52.7512 14.5458 52.0441 12.795 51.5839 10.9767C51.4717 10.4717 51.0227 10.1013 50.5064 10.1013H50.4615C49.8779 10.1125 49.4065 10.5951 49.4177 11.19C49.4177 11.5267 49.4514 11.8522 49.4963 12.1889C49.4963 12.1889 49.4514 14.1306 51.9879 17.7895C53.5256 20.0005 55.153 21.6841 57.3304 22.2341C57.6671 22.3351 58.015 22.38 58.363 22.38C58.9803 22.38 59.4853 21.8749 59.4853 21.2576C59.4741 20.6291 58.9803 20.124 58.363 20.1016ZM48.2617 29.1815H43.7722C43.1549 29.1815 42.6499 29.6866 42.6499 30.3039C42.6499 30.9212 43.1549 31.4262 43.7722 31.4262H48.2617C48.879 31.4262 49.3841 30.9212 49.3841 30.3039C49.3841 29.6866 48.879 29.1815 48.2617 29.1815ZM44.7487 39.2828C44.513 39.294 44.2773 39.3726 44.0865 39.5185H44.0753C44.0753 39.5185 44.0079 39.5746 43.963 39.6083C41.3704 42.156 37.2176 42.1673 34.6137 39.6307C34.5913 39.6083 34.5688 39.5858 34.5464 39.5746L34.5127 39.5409H34.5015C34.3107 39.3726 34.0638 39.2828 33.8056 39.2828C33.1883 39.2828 32.6833 39.7878 32.6833 40.4051C32.6833 40.7194 32.8292 41.0224 33.0761 41.2357V41.2581C36.5891 44.6477 42.1785 44.6028 45.6354 41.1459L45.6017 41.1122C45.77 40.9102 45.8711 40.6633 45.8711 40.4051C45.8711 39.7878 45.366 39.2828 44.7487 39.2828ZM35.9157 30.3039C35.9157 29.6866 35.4106 29.1815 34.7933 29.1815H30.3039C29.6866 29.1815 29.1815 29.6866 29.1815 30.3039C29.1815 30.9212 29.6866 31.4262 30.3039 31.4262H34.7933C35.4106 31.4262 35.9157 30.9212 35.9157 30.3039ZM34.7933 6.76786C34.5913 6.74541 34.378 6.74541 34.176 6.76786C30.2253 7.23925 26.5552 9.07993 23.8278 11.9869C18.7884 16.9814 19.1139 20.1913 19.1139 20.1913C19.1139 20.8086 19.6189 21.3137 20.2362 21.3137C20.8535 21.3137 21.3586 20.8086 21.3586 20.1913C22.1667 17.6436 23.6146 15.3427 25.5563 13.5133C27.9806 10.9318 31.2691 9.33808 34.7933 9.03504V9.00137C35.3882 8.99014 35.882 8.4963 35.8932 7.90145C35.9045 7.28415 35.4106 6.76786 34.7933 6.75664V6.76786ZM78.4645 76.9942C77.8472 65.4788 70.4845 55.4112 59.6986 51.3258C65.4451 45.6241 68.6102 37.8237 68.4643 29.7427C68.4643 14.5571 58.161 2.24473 45.4558 2.24473C45.0405 2.24473 44.6252 2.26718 44.21 2.30085L44.2661 2.23351C41.3255 0.763208 38.0818 0 34.7933 0C21.1566 0 10.1013 13.0643 10.1013 29.1815C9.97783 37.4197 13.0868 45.3884 18.7772 51.3594C8.03613 55.4673 0.718314 65.5124 0.101013 76.9942C0.033671 77.1289 0 77.2861 0 77.4432V78.5656H1.12236C1.73967 78.5656 2.24473 78.0605 2.24473 77.4432H2.30085C2.76102 66.4665 9.85436 56.8702 20.2026 53.2113V61.8648C15.7692 62.83 12.346 69.4295 12.346 77.4432C12.346 78.0605 12.8511 78.5656 13.4684 78.5656H15.7131C16.3304 78.5656 16.8355 78.0605 16.8355 77.4432C16.8355 76.8259 16.3304 76.3208 15.7131 76.3208H14.6244C14.7591 72.8639 15.556 69.7774 16.7569 67.5551C17.9578 65.3329 19.5628 63.9748 21.3249 63.9748C24.8492 63.9748 27.7449 69.4071 28.0255 76.3208H26.9368C26.3195 76.3208 25.8144 76.8259 25.8144 77.4432C25.8144 78.0605 26.3195 78.5656 26.9368 78.5656H29.1815C29.7988 78.5656 30.3039 78.0605 30.3039 77.4432C30.3039 69.4295 26.8806 62.83 22.4473 61.8648V52.7512C22.4361 52.6726 22.4249 52.6052 22.4024 52.5379L22.5595 52.4818C24.7257 51.9206 26.948 51.6288 29.1815 51.6288H29.1927C29.2039 51.8084 29.2488 51.9879 29.3274 52.1563L38.3063 70.1815C38.3063 70.1815 38.34 70.2152 38.3624 70.2376C38.3961 70.2937 38.441 70.3386 38.4971 70.3835C38.542 70.4509 38.6094 70.4957 38.6767 70.5406C38.6879 70.5519 38.6991 70.5743 38.7216 70.5855C38.7665 70.608 38.8114 70.608 38.8451 70.6304C38.9236 70.6641 38.991 70.6865 39.0695 70.709C39.2154 70.7202 39.3501 70.7202 39.496 70.709C39.5746 70.6865 39.6419 70.6641 39.7205 70.6304C39.7542 70.608 39.7991 70.608 39.844 70.5855C39.8664 70.5743 39.8776 70.5631 39.8889 70.5406C39.9562 70.4957 40.0235 70.4509 40.0684 70.3835C40.1245 70.3386 40.1694 70.2937 40.2031 70.2376C40.2256 70.2152 40.248 70.2039 40.2592 70.1815L49.2382 52.1563C49.3279 51.9879 49.3616 51.8084 49.3616 51.6288H49.3841C51.6737 51.6288 53.9521 51.9318 56.1631 52.5267C56.1407 52.594 56.1295 52.6726 56.1182 52.7512V67.3419C56.1182 67.3419 56.1407 67.4092 56.1407 67.4541C53.9184 67.8919 52.1787 69.6315 51.741 71.8538C51.1349 74.8954 53.0991 77.8472 56.1407 78.4533C56.5111 78.5319 56.8927 78.5656 57.2631 78.5656C59.8782 78.5656 62.2127 76.7249 62.7402 74.0536C63.3463 71.012 61.3821 68.0602 58.3405 67.4541C58.3405 67.4092 58.363 67.3756 58.363 67.3419V53.2001C68.7224 56.8702 75.8045 66.4665 76.2647 77.4432H76.3208C76.3208 78.0605 76.8259 78.5656 77.4432 78.5656H78.5656V77.4432C78.5656 77.2861 78.5319 77.1289 78.4645 76.9942ZM21.179 50.5513C15.3988 44.9619 12.1889 37.2176 12.346 29.1815C12.346 14.2989 22.3912 2.24473 34.7933 2.24473C37.5094 2.25595 40.1807 2.85081 42.6499 3.9844C42.6499 4.04051 42.6611 4.10786 42.6611 4.16397H42.5713C41.9203 14.5683 34.2097 23.0309 23.637 25.1971C22.2677 25.4777 20.775 25.7807 20.775 25.7807L20.2026 25.9266C17.8905 26.398 16.1172 28.2612 15.7692 30.6069C15.3203 33.671 17.4416 36.5105 20.5056 36.9595C21.3923 42.0213 24.288 46.5108 28.5305 49.4177C26.0389 49.4738 23.5697 49.8555 21.179 50.5513ZM39.2828 67.1062L31.5721 51.6288H32.8516C37.0044 53.1215 41.5612 53.1215 45.7139 51.6288H46.9934L39.2828 67.1062ZM40.3827 50.4728C31.112 51.0788 23.1095 44.0528 22.5034 34.7933H21.3249C19.4618 34.7933 17.9578 33.2781 17.9578 31.4262C17.9578 29.5743 19.4618 28.0591 21.3249 28.0591C21.3249 28.0591 22.784 27.6663 24.2768 27.3296C33.0088 25.4665 40.2143 19.3047 43.3906 10.9655C45.1752 19.3496 49.732 25.9154 55.804 27.6775L57.2406 28.0591C59.1037 28.0591 60.6077 29.5631 60.6077 31.4262C60.6077 33.2893 59.1037 34.7933 57.2406 34.7933H56.0621C55.5122 43.2111 48.8004 49.9228 40.3827 50.4728ZM60.6077 72.9537C60.6077 74.8056 59.1037 76.3208 57.2406 76.3208C55.3775 76.3208 53.8735 74.8056 53.8735 72.9537C53.8735 72.0222 54.2439 71.1804 54.8612 70.5743C55.4673 69.9682 56.3091 69.5866 57.2406 69.5866C59.1037 69.5866 60.6077 71.0906 60.6077 72.9537ZM57.2406 50.5064C54.8949 49.8442 52.4706 49.4738 50.035 49.4177C54.2776 46.5108 57.1733 42.0213 58.0599 36.9595C60.3945 36.6115 62.2688 34.8382 62.7402 32.5261C63.3575 29.4958 61.3934 26.5439 58.363 25.9266L56.657 25.5787C50.0238 23.7156 45.1078 14.9499 44.917 4.52313C45.0966 4.51191 45.2762 4.48946 45.4558 4.48946C56.9264 4.48946 66.2195 15.7917 66.2195 29.7427C66.2195 38.3624 62.6616 45.9608 57.2406 50.5064ZM58.363 20.1016C56.3427 19.473 54.6592 18.0476 53.6939 16.1733C52.7512 14.5458 52.0441 12.795 51.5839 10.9767C51.4717 10.4717 51.0227 10.1013 50.5064 10.1013H50.4615C49.8779 10.1125 49.4065 10.5951 49.4177 11.19C49.4177 11.5267 49.4514 11.8522 49.4963 12.1889C49.4963 12.1889 49.4514 14.1306 51.9879 17.7895C53.5256 20.0005 55.153 21.6841 57.3304 22.2341C57.6671 22.3351 58.015 22.38 58.363 22.38C58.9803 22.38 59.4853 21.8749 59.4853 21.2576C59.4741 20.6291 58.9803 20.124 58.363 20.1016ZM48.2617 29.1815H43.7722C43.1549 29.1815 42.6499 29.6866 42.6499 30.3039C42.6499 30.9212 43.1549 31.4262 43.7722 31.4262H48.2617C48.879 31.4262 49.3841 30.9212 49.3841 30.3039C49.3841 29.6866 48.879 29.1815 48.2617 29.1815ZM44.7487 39.2828C44.513 39.294 44.2773 39.3726 44.0865 39.5185H44.0753C44.0753 39.5185 44.0079 39.5746 43.963 39.6083C41.3704 42.156 37.2176 42.1673 34.6137 39.6307C34.5913 39.6083 34.5688 39.5858 34.5464 39.5746L34.5127 39.5409H34.5015C34.3107 39.3726 34.0638 39.2828 33.8056 39.2828C33.1883 39.2828 32.6833 39.7878 32.6833 40.4051C32.6833 40.7194 32.8292 41.0224 33.0761 41.2357V41.2581C36.5891 44.6477 42.1785 44.6028 45.6354 41.1459L45.6017 41.1122C45.77 40.9102 45.8711 40.6633 45.8711 40.4051C45.8711 39.7878 45.366 39.2828 44.7487 39.2828ZM20.2362 21.3249C20.8535 21.3249 21.3586 20.8199 21.3586 20.2026C22.1667 17.6548 23.6146 15.354 25.5563 13.5245C27.9806 10.9431 31.2691 9.3493 34.7933 9.04626V9.01259C35.3882 9.00137 35.882 8.50753 35.8932 7.91267C35.9045 7.29537 35.4106 6.77908 34.7933 6.76786C34.5913 6.74541 34.378 6.74541 34.176 6.76786C30.2253 7.23925 26.5552 9.07993 23.8278 11.9869C18.7884 16.9814 19.1139 20.1913 19.1139 20.1913C19.1139 20.8086 19.6189 21.3137 20.2362 21.3137V21.3249ZM35.9157 30.3039C35.9157 29.6866 35.4106 29.1815 34.7933 29.1815H30.3039C29.6866 29.1815 29.1815 29.6866 29.1815 30.3039C29.1815 30.9212 29.6866 31.4262 30.3039 31.4262H34.7933C35.4106 31.4262 35.9157 30.9212 35.9157 30.3039ZM34.7933 6.76786C34.5913 6.74541 34.378 6.74541 34.176 6.76786C30.2253 7.23925 26.5552 9.07993 23.8278 11.9869C18.7884 16.9814 19.1139 20.1913 19.1139 20.1913C19.1139 20.8086 19.6189 21.3137 20.2362 21.3137C20.8535 21.3137 21.3586 20.8086 21.3586 20.1913C22.1667 17.6436 23.6146 15.3427 25.5563 13.5133C27.9806 10.9318 31.2691 9.33808 34.7933 9.03504V9.00137C35.3882 8.99014 35.882 8.4963 35.8932 7.90145C35.9045 7.28415 35.4106 6.76786 34.7933 6.75664V6.76786ZM34.7933 29.1815H30.3039C29.6866 29.1815 29.1815 29.6866 29.1815 30.3039C29.1815 30.9212 29.6866 31.4262 30.3039 31.4262H34.7933C35.4106 31.4262 35.9157 30.9212 35.9157 30.3039C35.9157 29.6866 35.4106 29.1815 34.7933 29.1815ZM45.8711 40.4051C45.8711 39.7878 45.366 39.2828 44.7487 39.2828C44.513 39.294 44.2773 39.3726 44.0865 39.5185H44.0753C44.0753 39.5185 44.0079 39.5746 43.963 39.6083C41.3704 42.156 37.2176 42.1673 34.6137 39.6307C34.5913 39.6083 34.5688 39.5858 34.5464 39.5746L34.5127 39.5409H34.5015C34.3107 39.3726 34.0638 39.2828 33.8056 39.2828C33.1883 39.2828 32.6833 39.7878 32.6833 40.4051C32.6833 40.7194 32.8292 41.0224 33.0761 41.2357V41.2581C36.5891 44.6477 42.1785 44.6028 45.6354 41.1459L45.6017 41.1122C45.77 40.9102 45.8711 40.6633 45.8711 40.4051ZM48.2617 29.1815H43.7722C43.1549 29.1815 42.6499 29.6866 42.6499 30.3039C42.6499 30.9212 43.1549 31.4262 43.7722 31.4262H48.2617C48.879 31.4262 49.3841 30.9212 49.3841 30.3039C49.3841 29.6866 48.879 29.1815 48.2617 29.1815ZM58.363 20.1016C56.3427 19.473 54.6592 18.0476 53.6939 16.1733C52.7512 14.5458 52.0441 12.795 51.5839 10.9767C51.4717 10.4717 51.0227 10.1013 50.5064 10.1013H50.4615C49.8779 10.1125 49.4065 10.5951 49.4177 11.19C49.4177 11.5267 49.4514 11.8522 49.4963 12.1889C49.4963 12.1889 49.4514 14.1306 51.9879 17.7895C53.5256 20.0005 55.153 21.6841 57.3304 22.2341C57.6671 22.3351 58.015 22.38 58.363 22.38C58.9803 22.38 59.4853 21.8749 59.4853 21.2576C59.4741 20.6291 58.9803 20.124 58.363 20.1016ZM58.363 20.1016C56.3427 19.473 54.6592 18.0476 53.6939 16.1733C52.7512 14.5458 52.0441 12.795 51.5839 10.9767C51.4717 10.4717 51.0227 10.1013 50.5064 10.1013H50.4615C49.8779 10.1125 49.4065 10.5951 49.4177 11.19C49.4177 11.5267 49.4514 11.8522 49.4963 12.1889C49.4963 12.1889 49.4514 14.1306 51.9879 17.7895C53.5256 20.0005 55.153 21.6841 57.3304 22.2341C57.6671 22.3351 58.015 22.38 58.363 22.38C58.9803 22.38 59.4853 21.8749 59.4853 21.2576C59.4741 20.6291 58.9803 20.124 58.363 20.1016ZM48.2617 29.1815H43.7722C43.1549 29.1815 42.6499 29.6866 42.6499 30.3039C42.6499 30.9212 43.1549 31.4262 43.7722 31.4262H48.2617C48.879 31.4262 49.3841 30.9212 49.3841 30.3039C49.3841 29.6866 48.879 29.1815 48.2617 29.1815ZM45.8711 40.4051C45.8711 39.7878 45.366 39.2828 44.7487 39.2828C44.513 39.294 44.2773 39.3726 44.0865 39.5185H44.0753C44.0753 39.5185 44.0079 39.5746 43.963 39.6083C41.3704 42.156 37.2176 42.1673 34.6137 39.6307C34.5913 39.6083 34.5688 39.5858 34.5464 39.5746L34.5127 39.5409H34.5015C34.3107 39.3726 34.0638 39.2828 33.8056 39.2828C33.1883 39.2828 32.6833 39.7878 32.6833 40.4051C32.6833 40.7194 32.8292 41.0224 33.0761 41.2357V41.2581C36.5891 44.6477 42.1785 44.6028 45.6354 41.1459L45.6017 41.1122C45.77 40.9102 45.8711 40.6633 45.8711 40.4051ZM34.7933 6.76786C34.5913 6.74541 34.378 6.74541 34.176 6.76786C30.2253 7.23925 26.5552 9.07993 23.8278 11.9869C18.7884 16.9814 19.1139 20.1913 19.1139 20.1913C19.1139 20.8086 19.6189 21.3137 20.2362 21.3137C20.8535 21.3137 21.3586 20.8086 21.3586 20.1913C22.1667 17.6436 23.6146 15.3427 25.5563 13.5133C27.9806 10.9318 31.2691 9.33808 34.7933 9.03504V9.00137C35.3882 8.99014 35.882 8.4963 35.8932 7.90145C35.9045 7.28415 35.4106 6.76786 34.7933 6.75664V6.76786ZM34.7933 29.1815H30.3039C29.6866 29.1815 29.1815 29.6866 29.1815 30.3039C29.1815 30.9212 29.6866 31.4262 30.3039 31.4262H34.7933C35.4106 31.4262 35.9157 30.9212 35.9157 30.3039C35.9157 29.6866 35.4106 29.1815 34.7933 29.1815ZM34.7933 6.76786C34.5913 6.74541 34.378 6.74541 34.176 6.76786C30.2253 7.23925 26.5552 9.07993 23.8278 11.9869C18.7884 16.9814 19.1139 20.1913 19.1139 20.1913C19.1139 20.8086 19.6189 21.3137 20.2362 21.3137C20.8535 21.3137 21.3586 20.8086 21.3586 20.1913C22.1667 17.6436 23.6146 15.3427 25.5563 13.5133C27.9806 10.9318 31.2691 9.33808 34.7933 9.03504V9.00137C35.3882 8.99014 35.882 8.4963 35.8932 7.90145C35.9045 7.28415 35.4106 6.76786 34.7933 6.75664V6.76786ZM34.7933 29.1815H30.3039C29.6866 29.1815 29.1815 29.6866 29.1815 30.3039C29.1815 30.9212 29.6866 31.4262 30.3039 31.4262H34.7933C35.4106 31.4262 35.9157 30.9212 35.9157 30.3039C35.9157 29.6866 35.4106 29.1815 34.7933 29.1815ZM45.8711 40.4051C45.8711 39.7878 45.366 39.2828 44.7487 39.2828C44.513 39.294 44.2773 39.3726 44.0865 39.5185H44.0753C44.0753 39.5185 44.0079 39.5746 43.963 39.6083C41.3704 42.156 37.2176 42.1673 34.6137 39.6307C34.5913 39.6083 34.5688 39.5858 34.5464 39.5746L34.5127 39.5409H34.5015C34.3107 39.3726 34.0638 39.2828 33.8056 39.2828C33.1883 39.2828 32.6833 39.7878 32.6833 40.4051C32.6833 40.7194 32.8292 41.0224 33.0761 41.2357V41.2581C36.5891 44.6477 42.1785 44.6028 45.6354 41.1459L45.6017 41.1122C45.77 40.9102 45.8711 40.6633 45.8711 40.4051ZM48.2617 29.1815H43.7722C43.1549 29.1815 42.6499 29.6866 42.6499 30.3039C42.6499 30.9212 43.1549 31.4262 43.7722 31.4262H48.2617C48.879 31.4262 49.3841 30.9212 49.3841 30.3039C49.3841 29.6866 48.879 29.1815 48.2617 29.1815ZM58.363 20.1016C56.3427 19.473 54.6592 18.0476 53.6939 16.1733C52.7512 14.5458 52.0441 12.795 51.5839 10.9767C51.4717 10.4717 51.0227 10.1013 50.5064 10.1013H50.4615C49.8779 10.1125 49.4065 10.5951 49.4177 11.19C49.4177 11.5267 49.4514 11.8522 49.4963 12.1889C49.4963 12.1889 49.4514 14.1306 51.9879 17.7895C53.5256 20.0005 55.153 21.6841 57.3304 22.2341C57.6671 22.3351 58.015 22.38 58.363 22.38C58.9803 22.38 59.4853 21.8749 59.4853 21.2576C59.4741 20.6291 58.9803 20.124 58.363 20.1016ZM58.363 20.1016C56.3427 19.473 54.6592 18.0476 53.6939 16.1733C52.7512 14.5458 52.0441 12.795 51.5839 10.9767C51.4717 10.4717 51.0227 10.1013 50.5064 10.1013H50.4615C49.8779 10.1125 49.4065 10.5951 49.4177 11.19C49.4177 11.5267 49.4514 11.8522 49.4963 12.1889C49.4963 12.1889 49.4514 14.1306 51.9879 17.7895C53.5256 20.0005 55.153 21.6841 57.3304 22.2341C57.6671 22.3351 58.015 22.38 58.363 22.38C58.9803 22.38 59.4853 21.8749 59.4853 21.2576C59.4741 20.6291 58.9803 20.124 58.363 20.1016ZM48.2617 29.1815H43.7722C43.1549 29.1815 42.6499 29.6866 42.6499 30.3039C42.6499 30.9212 43.1549 31.4262 43.7722 31.4262H48.2617C48.879 31.4262 49.3841 30.9212 49.3841 30.3039C49.3841 29.6866 48.879 29.1815 48.2617 29.1815ZM45.8711 40.4051C45.8711 39.7878 45.366 39.2828 44.7487 39.2828C44.513 39.294 44.2773 39.3726 44.0865 39.5185H44.0753C44.0753 39.5185 44.0079 39.5746 43.963 39.6083C41.3704 42.156 37.2176 42.1673 34.6137 39.6307C34.5913 39.6083 34.5688 39.5858 34.5464 39.5746L34.5127 39.5409H34.5015C34.3107 39.3726 34.0638 39.2828 33.8056 39.2828C33.1883 39.2828 32.6833 39.7878 32.6833 40.4051C32.6833 40.7194 32.8292 41.0224 33.0761 41.2357V41.2581C36.5891 44.6477 42.1785 44.6028 45.6354 41.1459L45.6017 41.1122C45.77 40.9102 45.8711 40.6633 45.8711 40.4051ZM34.7933 6.76786C34.5913 6.74541 34.378 6.74541 34.176 6.76786C30.2253 7.23925 26.5552 9.07993 23.8278 11.9869C18.7884 16.9814 19.1139 20.1913 19.1139 20.1913C19.1139 20.8086 19.6189 21.3137 20.2362 21.3137C20.8535 21.3137 21.3586 20.8086 21.3586 20.1913C22.1667 17.6436 23.6146 15.3427 25.5563 13.5133C27.9806 10.9318 31.2691 9.33808 34.7933 9.03504V9.00137C35.3882 8.99014 35.882 8.4963 35.8932 7.90145C35.9045 7.28415 35.4106 6.76786 34.7933 6.75664V6.76786ZM34.7933 29.1815H30.3039C29.6866 29.1815 29.1815 29.6866 29.1815 30.3039C29.1815 30.9212 29.6866 31.4262 30.3039 31.4262H34.7933C35.4106 31.4262 35.9157 30.9212 35.9157 30.3039C35.9157 29.6866 35.4106 29.1815 34.7933 29.1815ZM58.363 20.1016C56.3427 19.473 54.6592 18.0476 53.6939 16.1733C52.7512 14.5458 52.0441 12.795 51.5839 10.9767C51.4717 10.4717 51.0227 10.1013 50.5064 10.1013H50.4615C49.8779 10.1125 49.4065 10.5951 49.4177 11.19C49.4177 11.5267 49.4514 11.8522 49.4963 12.1889C49.4963 12.1889 49.4514 14.1306 51.9879 17.7895C53.5256 20.0005 55.153 21.6841 57.3304 22.2341C57.6671 22.3351 58.015 22.38 58.363 22.38C58.9803 22.38 59.4853 21.8749 59.4853 21.2576C59.4741 20.6291 58.9803 20.124 58.363 20.1016ZM34.7933 29.1815H30.3039C29.6866 29.1815 29.1815 29.6866 29.1815 30.3039C29.1815 30.9212 29.6866 31.4262 30.3039 31.4262H34.7933C35.4106 31.4262 35.9157 30.9212 35.9157 30.3039C35.9157 29.6866 35.4106 29.1815 34.7933 29.1815ZM45.8711 40.4051C45.8711 39.7878 45.366 39.2828 44.7487 39.2828C44.513 39.294 44.2773 39.3726 44.0865 39.5185H44.0753C44.0753 39.5185 44.0079 39.5746 43.963 39.6083C41.3704 42.156 37.2176 42.1673 34.6137 39.6307C34.5913 39.6083 34.5688 39.5858 34.5464 39.5746L34.5127 39.5409H34.5015C34.3107 39.3726 34.0638 39.2828 33.8056 39.2828C33.1883 39.2828 32.6833 39.7878 32.6833 40.4051C32.6833 40.7194 32.8292 41.0224 33.0761 41.2357V41.2581C36.5891 44.6477 42.1785 44.6028 45.6354 41.1459L45.6017 41.1122C45.77 40.9102 45.8711 40.6633 45.8711 40.4051ZM48.2617 29.1815H43.7722C43.1549 29.1815 42.6499 29.6866 42.6499 30.3039C42.6499 30.9212 43.1549 31.4262 43.7722 31.4262H48.2617C48.879 31.4262 49.3841 30.9212 49.3841 30.3039C49.3841 29.6866 48.879 29.1815 48.2617 29.1815ZM34.7933 6.76786C34.5913 6.74541 34.378 6.74541 34.176 6.76786C30.2253 7.23925 26.5552 9.07993 23.8278 11.9869C18.7884 16.9814 19.1139 20.1913 19.1139 20.1913C19.1139 20.8086 19.6189 21.3137 20.2362 21.3137C20.8535 21.3137 21.3586 20.8086 21.3586 20.1913C22.1667 17.6436 23.6146 15.3427 25.5563 13.5133C27.9806 10.9318 31.2691 9.33808 34.7933 9.03504V9.00137C35.3882 8.99014 35.882 8.4963 35.8932 7.90145C35.9045 7.28415 35.4106 6.76786 34.7933 6.75664V6.76786ZM58.363 20.1016C56.3427 19.473 54.6592 18.0476 53.6939 16.1733C52.7512 14.5458 52.0441 12.795 51.5839 10.9767C51.4717 10.4717 51.0227 10.1013 50.5064 10.1013H50.4615C49.8779 10.1125 49.4065 10.5951 49.4177 11.19C49.4177 11.5267 49.4514 11.8522 49.4963 12.1889C49.4963 12.1889 49.4514 14.1306 51.9879 17.7895C53.5256 20.0005 55.153 21.6841 57.3304 22.2341C57.6671 22.3351 58.015 22.38 58.363 22.38C58.9803 22.38 59.4853 21.8749 59.4853 21.2576C59.4741 20.6291 58.9803 20.124 58.363 20.1016ZM48.2617 29.1815H43.7722C43.1549 29.1815 42.6499 29.6866 42.6499 30.3039C42.6499 30.9212 43.1549 31.4262 43.7722 31.4262H48.2617C48.879 31.4262 49.3841 30.9212 49.3841 30.3039C49.3841 29.6866 48.879 29.1815 48.2617 29.1815ZM45.8711 40.4051C45.8711 39.7878 45.366 39.2828 44.7487 39.2828C44.513 39.294 44.2773 39.3726 44.0865 39.5185H44.0753C44.0753 39.5185 44.0079 39.5746 43.963 39.6083C41.3704 42.156 37.2176 42.1673 34.6137 39.6307C34.5913 39.6083 34.5688 39.5858 34.5464 39.5746L34.5127 39.5409H34.5015C34.3107 39.3726 34.0638 39.2828 33.8056 39.2828C33.1883 39.2828 32.6833 39.7878 32.6833 40.4051C32.6833 40.7194 32.8292 41.0224 33.0761 41.2357V41.2581C36.5891 44.6477 42.1785 44.6028 45.6354 41.1459L45.6017 41.1122C45.77 40.9102 45.8711 40.6633 45.8711 40.4051ZM34.7933 6.76786C34.5913 6.74541 34.378 6.74541 34.176 6.76786C30.2253 7.23925 26.5552 9.07993 23.8278 11.9869C18.7884 16.9814 19.1139 20.1913 19.1139 20.1913C19.1139 20.8086 19.6189 21.3137 20.2362 21.3137C20.8535 21.3137 21.3586 20.8086 21.3586 20.1913C22.1667 17.6436 23.6146 15.3427 25.5563 13.5133C27.9806 10.9318 31.2691 9.33808 34.7933 9.03504V9.00137C35.3882 8.99014 35.882 8.4963 35.8932 7.90145C35.9045 7.28415 35.4106 6.76786 34.7933 6.75664V6.76786ZM34.7933 29.1815H30.3039C29.6866 29.1815 29.1815 29.6866 29.1815 30.3039C29.1815 30.9212 29.6866 31.4262 30.3039 31.4262H34.7933C35.4106 31.4262 35.9157 30.9212 35.9157 30.3039C35.9157 29.6866 35.4106 29.1815 34.7933 29.1815ZM34.7933 29.1815H30.3039C29.6866 29.1815 29.1815 29.6866 29.1815 30.3039C29.1815 30.9212 29.6866 31.4262 30.3039 31.4262H34.7933C35.4106 31.4262 35.9157 30.9212 35.9157 30.3039C35.9157 29.6866 35.4106 29.1815 34.7933 29.1815ZM45.8711 40.4051C45.8711 39.7878 45.366 39.2828 44.7487 39.2828C44.513 39.294 44.2773 39.3726 44.0865 39.5185H44.0753C44.0753 39.5185 44.0079 39.5746 43.963 39.6083C41.3704 42.156 37.2176 42.1673 34.6137 39.6307C34.5913 39.6083 34.5688 39.5858 34.5464 39.5746L34.5127 39.5409H34.5015C34.3107 39.3726 34.0638 39.2828 33.8056 39.2828C33.1883 39.2828 32.6833 39.7878 32.6833 40.4051C32.6833 40.7194 32.8292 41.0224 33.0761 41.2357V41.2581C36.5891 44.6477 42.1785 44.6028 45.6354 41.1459L45.6017 41.1122C45.77 40.9102 45.8711 40.6633 45.8711 40.4051ZM48.2617 29.1815H43.7722C43.1549 29.1815 42.6499 29.6866 42.6499 30.3039C42.6499 30.9212 43.1549 31.4262 43.7722 31.4262H48.2617C48.879 31.4262 49.3841 30.9212 49.3841 30.3039C49.3841 29.6866 48.879 29.1815 48.2617 29.1815ZM48.2617 29.1815H43.7722C43.1549 29.1815 42.6499 29.6866 42.6499 30.3039C42.6499 30.9212 43.1549 31.4262 43.7722 31.4262H48.2617C48.879 31.4262 49.3841 30.9212 49.3841 30.3039C49.3841 29.6866 48.879 29.1815 48.2617 29.1815ZM45.8711 40.4051C45.8711 39.7878 45.366 39.2828 44.7487 39.2828C44.513 39.294 44.2773 39.3726 44.0865 39.5185H44.0753C44.0753 39.5185 44.0079 39.5746 43.963 39.6083C41.3704 42.156 37.2176 42.1673 34.6137 39.6307C34.5913 39.6083 34.5688 39.5858 34.5464 39.5746L34.5127 39.5409H34.5015C34.3107 39.3726 34.0638 39.2828 33.8056 39.2828C33.1883 39.2828 32.6833 39.7878 32.6833 40.4051C32.6833 40.7194 32.8292 41.0224 33.0761 41.2357V41.2581C36.5891 44.6477 42.1785 44.6028 45.6354 41.1459L45.6017 41.1122C45.77 40.9102 45.8711 40.6633 45.8711 40.4051ZM34.7933 29.1815H30.3039C29.6866 29.1815 29.1815 29.6866 29.1815 30.3039C29.1815 30.9212 29.6866 31.4262 30.3039 31.4262H34.7933C35.4106 31.4262 35.9157 30.9212 35.9157 30.3039C35.9157 29.6866 35.4106 29.1815 34.7933 29.1815Z" fill="#0095DA"/>
</g>
<defs>
<clipPath id="clip0_112_294">
<rect width="78.5656" height="78.5656" fill="white"/>
</clipPath>
</defs>
</svg>
