<svg width="41" height="40" viewBox="0 0 41 40" fill="none" xmlns="http://www.w3.org/2000/svg">
<path d="M40.6665 14.3859C40.9651 14.6771 41.0584 15.6108 40.7271 15.9471L31.5954 24.9283C31.487 25.4709 31.536 26.0182 31.5796 26.5633C31.8534 29.9848 33.336 34.0927 33.4689 37.4643C33.4991 38.2317 33.4433 39.1141 32.4804 39.2153C31.8055 39.2863 24.5502 35.1147 23.2433 34.4698C22.1642 33.9372 20.868 32.9413 19.674 33.469C16.2482 34.8271 12.4274 37.8823 9.06673 39.0701C7.77975 39.525 7.42228 38.6052 7.4674 37.4643C7.59992 34.1111 9.04543 29.9823 9.35825 26.5649C9.40806 26.0206 9.44299 25.4704 9.34086 24.9285L0.209304 15.9471C-0.121841 15.6108 -0.0286376 14.6771 0.269926 14.3859C1.19459 13.4839 11.7826 13.009 13.6439 12.0956C13.8737 11.9516 13.9734 11.7159 14.1169 11.5031C16.1463 8.49385 17.3444 3.46417 19.4359 0.625941C19.8651 0.0435392 20.3918 -0.184378 21.1094 0.166191C22.1672 0.682959 25.8698 10.6782 27.2924 12.0956L27.8693 12.3711C29.6599 12.8451 39.8927 13.6313 40.6665 14.3859ZM20.6781 3.8962C20.1809 3.78795 20.3374 3.96355 20.204 4.16985C18.7537 6.41127 16.7932 12.747 14.9121 14.0025C14.2047 14.4747 13.6453 14.5387 12.8387 14.6998C9.85027 15.2963 6.62873 15.3901 3.63103 16.0439L10.9897 23.281C11.7692 24.1587 11.7834 25.2388 11.7013 26.3498C11.4776 29.38 10.3451 32.7848 10.0257 35.8578L19.2487 31.1236C20.0039 30.8549 20.935 30.8554 21.688 31.1236L30.911 35.8578C30.5916 32.7846 29.4591 29.38 29.2354 26.3498C29.1533 25.2388 29.1676 24.1587 29.947 23.281L37.3057 16.0439C34.308 15.3901 31.0865 15.2961 28.098 14.6998C26.5573 14.3923 25.8093 14.1559 24.9023 12.7806C23.2407 10.2608 22.1705 6.59078 20.6781 3.8962Z" fill="#0095DA"/>
</svg>
