<svg width="80" height="80" viewBox="0 0 80 80" fill="none" xmlns="http://www.w3.org/2000/svg">
<g clip-path="url(#clip0_112_261)">
<path d="M29.82 14.1848C32.2821 14.1848 34.2661 12.1891 34.2661 9.73937C34.2661 7.2896 32.2701 5.28198 29.82 5.28198C27.3698 5.28198 25.3619 7.2896 25.3619 9.73937C25.3619 12.1891 27.3698 14.1848 29.82 14.1848ZM29.82 7.70785C30.9315 7.70785 31.8398 8.62801 31.8398 9.73937C31.8398 10.8507 30.9315 11.7589 29.82 11.7589C28.7084 11.7589 27.7881 10.8507 27.7881 9.73937C27.7762 8.61606 28.6965 7.70785 29.82 7.70785Z" fill="#0095DA"/>
<path d="M25.2424 27.7242H9.08343C8.41412 27.7242 7.86433 28.262 7.86433 28.9432V45.0997C7.86433 45.7689 8.40217 46.3186 9.08343 46.3186H25.2424C25.9117 46.3186 26.4615 45.7809 26.4615 45.0997V28.9432C26.4615 28.2739 25.9236 27.7242 25.2424 27.7242ZM24.0233 43.8808H10.2906V30.1501H24.0233V43.8808Z" fill="#0095DA"/>
<path d="M25.2424 52.2219H9.08343C8.41412 52.2219 7.86433 52.7597 7.86433 53.4408V69.5974C7.86433 70.2666 8.40217 70.8163 9.08343 70.8163H25.2424C25.9117 70.8163 26.4615 70.2785 26.4615 69.5974V53.4408C26.4615 52.7716 25.9236 52.2219 25.2424 52.2219ZM24.0233 68.3665H10.2906V54.6358H24.0233V68.3665Z" fill="#0095DA"/>
<path d="M33.047 33.5917H50.7119C51.3812 33.5917 51.931 33.0539 51.931 32.3728C51.931 31.6916 51.3931 31.1539 50.7119 31.1539H33.047C32.3777 31.1539 31.8279 31.6916 31.8279 32.3728C31.8279 33.0539 32.3657 33.5917 33.047 33.5917Z" fill="#0095DA"/>
<path d="M46.0506 39.3278H33.0589C32.3896 39.3278 31.8398 39.8655 31.8398 40.5467C31.8398 41.2278 32.3777 41.7656 33.0589 41.7656H46.0626C46.7319 41.7656 47.2817 41.2278 47.2817 40.5467C47.2817 39.8655 46.7199 39.3278 46.0506 39.3278Z" fill="#0095DA"/>
<path d="M44.5328 56.2133H33.047C32.3777 56.2133 31.8279 56.751 31.8279 57.4322C31.8279 58.1133 32.3657 58.6511 33.047 58.6511H44.5328C45.2021 58.6511 45.7519 58.1133 45.7519 57.4322C45.7519 56.751 45.1901 56.2133 44.5328 56.2133Z" fill="#0095DA"/>
<path d="M39.5488 64.3752H33.047C32.3777 64.3752 31.8279 64.913 31.8279 65.5942C31.8279 66.2753 32.3657 66.8131 33.047 66.8131H39.5488C40.2181 66.8131 40.7679 66.2753 40.7679 65.5942C40.7679 64.913 40.2301 64.3752 39.5488 64.3752Z" fill="#0095DA"/>
<path d="M14.665 65.0445C14.8921 65.2715 15.1909 65.391 15.5136 65.391C15.8363 65.391 16.147 65.2596 16.3621 65.0445L21.7166 59.6908C22.1947 59.2128 22.1947 58.448 21.7166 57.97C21.2385 57.492 20.4736 57.492 19.9955 57.97L15.4896 62.4752L14.2467 61.2324C13.7686 60.7544 13.0037 60.7544 12.5256 61.2324C12.0475 61.7104 12.0475 62.4752 12.5256 62.9532L14.6411 65.0445H14.665Z" fill="#0095DA"/>
<path d="M14.665 40.5466C14.8921 40.7737 15.1909 40.8932 15.5136 40.8932C15.8363 40.8932 16.147 40.7617 16.3621 40.5466L21.7166 35.193C22.1947 34.715 22.1947 33.9502 21.7166 33.4722C21.2385 32.9941 20.4736 32.9941 19.9955 33.4722L15.4896 37.9773L14.2467 36.7345C13.7686 36.2565 13.0037 36.2565 12.5256 36.7345C12.0475 37.2125 12.0475 37.9773 12.5256 38.4553L14.6411 40.5466H14.665Z" fill="#0095DA"/>
<path d="M63.5482 47.0954C62.0901 47.0954 60.6439 47.2985 59.2336 47.6809V20.2674C59.2336 16.037 55.7914 12.5834 51.5485 12.5834H47.2697V11.9979C47.2697 9.53617 45.2618 7.55245 42.8117 7.55245H38.1265C37.6246 3.29822 34.0031 -0.0119629 29.6048 -0.0119629C25.2065 -0.0119629 21.5851 3.29822 21.0831 7.55245H16.4099C13.9479 7.55245 11.9519 9.54812 11.9519 11.9979V12.5834H7.68507C3.4541 12.5834 0 16.0251 0 20.2674V72.3101C0 76.5404 3.44214 79.994 7.68507 79.994H51.5605C53.3174 79.994 54.9787 79.3726 56.3293 78.2851C58.5762 79.3965 61.0025 79.994 63.5482 79.994C72.6077 79.994 79.994 72.6088 79.994 63.5507C79.994 54.4925 72.6077 47.1073 63.5482 47.1073V47.0954ZM14.3781 12.0098C14.3781 10.8985 15.2984 9.99028 16.4099 9.99028H22.2425C22.613 9.99028 22.9835 9.85883 23.1986 9.56007C23.4257 9.26132 23.5213 8.92672 23.4257 8.56821C23.4257 5.18633 26.1985 2.42586 29.5809 2.42586C32.9633 2.42586 35.7362 5.17438 35.7601 8.48456C35.6644 8.84307 35.7601 9.22547 35.9752 9.52422C36.2023 9.82298 36.5608 9.99028 36.9313 9.99028H42.7758C43.8993 9.99028 44.8076 10.8985 44.8076 12.0098V17.2201C44.8076 18.3434 43.8873 19.2516 42.7758 19.2516H16.4219C15.2984 19.2516 14.3901 18.3315 14.3901 17.2201V12.0098H14.3781ZM51.5605 77.5801H7.68507C4.79271 77.5801 2.43819 75.2259 2.43819 72.334V20.2674C2.43819 17.3754 4.79271 15.0213 7.68507 15.0213H11.9638V17.2201C11.9638 19.6818 13.9718 21.6775 16.4219 21.6775H42.8117C45.2738 21.6775 47.2697 19.6699 47.2697 17.2201V15.0213H51.5485C54.4409 15.0213 56.7954 17.3754 56.7954 20.2674V48.5294C56.7954 48.5294 56.7237 48.5772 56.6639 48.5891C56.0305 48.8879 55.4209 49.2105 54.8233 49.569C54.7277 49.6288 54.6321 49.6885 54.5365 49.7483C53.9508 50.1187 53.413 50.525 52.8991 50.9672C52.8274 51.0269 52.7317 51.1106 52.6481 51.1703C52.1342 51.6244 51.6561 52.1025 51.2139 52.6044C51.1541 52.6761 51.0824 52.7597 51.0226 52.8314C50.5804 53.3453 50.174 53.895 49.7916 54.4566C49.7438 54.5283 49.684 54.612 49.6362 54.6837C49.2657 55.2692 48.943 55.8787 48.6442 56.4881C48.6083 56.5598 48.5844 56.6435 48.5366 56.7032C48.2498 57.3485 47.9988 58.0058 47.7837 58.6989C47.7717 58.7587 47.7478 58.8304 47.7359 58.8901C47.5327 59.5832 47.3773 60.3122 47.2578 61.0531C47.2578 61.0889 47.2458 61.1248 47.2458 61.1726C47.1383 61.9374 47.0785 62.7141 47.0785 63.5028C47.0785 64.2199 47.1263 64.913 47.2219 65.6061C47.2458 65.8331 47.3175 66.0602 47.3534 66.2872C47.4251 66.7533 47.5207 67.2074 47.6402 67.6615C47.7 67.9244 47.7956 68.1753 47.8912 68.4382C48.0227 68.8446 48.1542 69.2389 48.3095 69.6333C48.4171 69.9081 48.5366 70.1591 48.6562 70.422C48.8235 70.7805 49.0028 71.1509 49.194 71.4975C49.3374 71.7604 49.4928 71.9994 49.6482 72.2503C49.8513 72.5849 50.0904 72.9076 50.3175 73.2302C50.4848 73.4573 50.6641 73.6963 50.8553 73.9233C51.1182 74.234 51.3812 74.5328 51.6561 74.8316C51.8473 75.0347 52.0385 75.2498 52.2656 75.453C52.5764 75.7517 52.8991 76.0266 53.2337 76.2775C53.4369 76.4448 53.652 76.6241 53.8552 76.7794C53.915 76.8153 53.9628 76.875 54.0226 76.9109C53.2457 77.3291 52.409 77.5442 51.5366 77.5442L51.5605 77.5801ZM63.5482 77.5801C61.1459 77.5801 58.8511 76.9826 56.7476 75.8115C52.3015 73.3497 49.5286 68.6534 49.5286 63.5507C49.5286 62.1166 49.7438 60.7185 50.174 59.392C51.2258 56.0699 53.4967 53.1899 56.5325 51.4093C57.142 51.0628 57.7754 50.7521 58.4448 50.4892C60.0702 49.8558 61.7913 49.5332 63.5363 49.5332C71.2691 49.5332 77.5678 55.8309 77.5678 63.5626C77.5678 71.2943 71.2691 77.5801 63.5363 77.5801H63.5482Z" fill="#0095DA"/>
<path d="M72.7273 59.2247H67.8628V54.3849C67.8628 53.7157 67.325 53.166 66.6437 53.166H60.4527C59.7834 53.166 59.2336 53.7038 59.2336 54.3849V59.2247H54.3691C53.6998 59.2247 53.1501 59.7625 53.1501 60.4436V66.6457C53.1501 67.3149 53.6879 67.8646 54.3691 67.8646H59.2336V72.7044C59.2336 73.3736 59.7714 73.9233 60.4527 73.9233H66.6437C67.313 73.9233 67.8628 73.3856 67.8628 72.7044V67.8646H72.7273C73.3966 67.8646 73.9463 67.3269 73.9463 66.6457V60.4436C73.9344 59.7744 73.3846 59.2247 72.7273 59.2247ZM71.5082 65.4388H66.6437C65.9744 65.4388 65.4247 65.9765 65.4247 66.6577V71.4975H61.6598V66.6577C61.6598 65.9885 61.122 65.4388 60.4407 65.4388H55.5763V61.6625H60.4407C61.11 61.6625 61.6598 61.1248 61.6598 60.4436V55.6038H65.4247V60.4436C65.4247 61.1128 65.9625 61.6625 66.6437 61.6625H71.5082V65.4388Z" fill="#0095DA"/>
</g>
<defs>
<clipPath id="clip0_112_261">
<rect width="79.994" height="79.994" fill="white"/>
</clipPath>
</defs>
</svg>
