<svg width="79" height="79" viewBox="0 0 79 79" fill="none" xmlns="http://www.w3.org/2000/svg">
<g clip-path="url(#clip0_112_280)">
<path fill-rule="evenodd" clip-rule="evenodd" d="M49.3657 47.1281H51.9244L50.2635 50.136L50.2186 50.1024C47.7834 53.8286 42.8682 55.0071 39.0078 52.7848C36.999 51.5166 35.5963 49.4739 35.1362 47.1281H37.302C37.6836 48.5198 38.5477 49.7208 39.726 50.5401C42.5315 52.4593 46.3582 51.7635 48.2772 48.9576L48.2547 48.9351L48.3557 48.9688L49.3657 47.1281Z" fill="#0095DA"/>
<path d="M75.1989 30.2927C73.1565 29.8886 71.1702 31.213 70.7662 33.2557C70.7326 33.3904 70.7213 33.5251 70.7101 33.6598C70.2612 37.2963 69.8124 42.3244 69.8124 42.3244C65.5143 40.1022 63.8983 43.3009 60.8684 45.9721C56.705 49.6086 54.0566 52.4482 49.5453 56.9152C45.3595 61.0792 43.7548 65.3329 43.7772 68.4756C43.7884 71.6182 43.7772 76.3433 43.7772 76.3433V77.432C43.7772 78.0606 44.271 78.5544 44.8994 78.5544C45.5278 78.5544 46.0216 78.0606 46.0216 77.432C46.0104 77.3871 45.9992 77.3422 45.988 77.2973C45.988 73.616 46.0104 69.5755 46.0441 68.7225C46.2461 66.5339 46.8521 64.4126 47.8396 62.4372C48.9842 60.4058 52.3284 57.3978 53.7985 55.8377C56.301 53.1777 60.6439 49.126 61.7437 48.1832C63.1577 46.9823 65.7612 43.7162 67.6241 43.7162C69.4869 43.7162 69.4532 44.4794 69.5094 45.8262C69.4981 47.319 68.9034 48.7444 67.8709 49.8106C66.76 51.0901 62.5517 55.4224 61.7886 56.3091C61.2387 56.8254 60.8347 57.4652 60.6103 58.1722C60.8011 58.9242 61.4856 59.4405 62.2487 59.4068C62.8435 59.3619 64.4146 57.2407 65.5255 56.0734C66.4682 55.0745 69.0941 52.0329 69.9807 51.0901C70.9907 49.7882 71.6303 48.2393 71.8435 46.5894C72.2026 44.1876 72.6628 36.2188 72.7862 35.0515C72.8984 33.8955 73.4259 32.5374 74.5368 32.5374C75.6478 32.5374 76.2314 33.0088 76.2987 34.524C76.3548 36.0392 76.2987 41.6623 76.2987 44.1315C76.3885 46.6343 76.3099 49.1372 76.063 51.6176C75.3112 53.3349 74.391 54.9623 73.3136 56.4775C72.7301 57.4203 69.5655 61.6852 68.6902 62.976C67.8148 64.2667 65.8285 67.1961 64.7737 67.8358C63.7188 68.4868 59.3197 69.654 58.3883 70.2377C57.4457 70.8213 56.2225 71.4723 56.1551 74.4016C56.1439 75.1873 56.1327 76.2423 56.1215 77.3984C56.1215 77.4096 56.1215 77.4208 56.1102 77.4433C56.1102 78.0606 56.6152 78.5656 57.2324 78.5656C57.8497 78.5656 58.3546 78.0606 58.3546 77.4433V76.3433C58.3883 74.3006 58.0853 73.0324 60.6103 71.8427C63.124 70.6642 65.649 70.4846 67.3435 68.4756C69.0268 66.4665 74.4583 58.9467 76.3211 56.1183C77.7239 54.1542 78.4982 51.7972 78.5656 49.3841V34.7822C78.5656 30.3825 75.9845 30.36 75.1989 30.2927Z" fill="#0095DA"/>
<path d="M34.7883 68.4642C34.8107 65.3216 33.206 61.0679 29.0202 56.9151C24.5089 52.4369 21.8605 49.5973 17.6971 45.9608C14.6672 43.3008 13.0512 40.1133 8.75314 42.3356C8.75314 42.3356 8.30425 37.3074 7.85537 33.6709C7.67582 31.5945 5.84663 30.0569 3.78177 30.2365C3.63588 30.2589 3.50122 30.2702 3.36655 30.3038C2.58101 30.3712 -6.10352e-05 30.3936 -6.10352e-05 34.7933V50.7196C-6.10352e-05 50.7196 -6.10352e-05 50.7533 0.011161 50.7645V49.384C0.0672713 51.7971 0.852815 54.1429 2.25557 56.1182C4.10721 58.9466 9.53868 66.4552 11.2332 68.4642C12.9165 70.4733 15.4415 70.6529 17.9664 71.8313C20.4802 72.9986 20.1884 74.2781 20.2108 76.3208V77.4432C20.2108 78.0605 20.7046 78.5655 21.3331 78.5655C21.9615 78.5655 22.4553 78.0605 22.4553 77.4432C22.444 77.4207 22.444 77.4095 22.444 77.3983C22.4328 76.2422 22.4216 75.1535 22.4104 74.3791C22.343 71.4497 21.1198 70.7988 20.1884 70.2151C19.2458 69.6315 14.8467 68.4642 13.7918 67.8133C12.737 67.1735 10.7507 64.2441 9.87534 62.9534C9.00002 61.6627 5.8354 57.3977 5.25186 56.4662C4.18576 54.951 3.26555 53.3123 2.50246 51.6063C2.25557 49.1259 2.17702 46.623 2.26679 44.1201C2.26679 41.6622 2.21068 36.0391 2.26679 34.5351C2.33412 33.02 2.91767 32.5486 4.02865 32.5486C5.13964 32.5486 5.66707 33.8954 5.77929 35.0627C5.90274 36.2299 6.36284 44.1875 6.72195 46.5893C6.93516 48.228 7.58604 49.7769 8.58481 51.09C9.47135 52.0216 12.0973 55.0632 13.04 56.0621C14.1509 57.2294 15.7332 59.3619 16.3168 59.3955C17.0799 59.4292 17.7644 58.9129 17.944 58.1722C17.7308 57.4538 17.3268 56.8029 16.7769 56.2978C16.0138 55.4224 11.8055 51.09 10.6946 49.7993C9.6509 48.7331 9.06735 47.3077 9.05613 45.8261C9.11224 44.4793 9.06735 43.7161 10.9414 43.7161C12.8155 43.7161 15.4078 46.9822 16.8218 48.1831C17.9328 49.1259 22.2757 53.1664 24.767 55.8264C26.2371 57.3865 29.5813 60.3944 30.7259 62.4371C31.7134 64.3901 32.3194 66.5225 32.5214 68.7112C32.5551 69.5642 32.5663 73.6271 32.5775 77.3085C32.5663 77.3534 32.5551 77.3983 32.5439 77.4432C32.5439 78.0605 33.0489 78.5655 33.6661 78.5655C34.2833 78.5655 34.7883 78.0605 34.7883 77.4432V76.3208C34.7883 76.3208 34.7771 71.6069 34.7883 68.4642Z" fill="#0095DA"/>
<path d="M23.5662 39.4736V44.8834C23.5662 45.5119 24.0712 46.0057 24.6884 46.0057C25.3056 46.0057 25.8106 45.5119 25.8106 44.8834V41.2132C27.5501 42.3917 29.4354 43.3233 31.4217 43.9967C34.4179 44.9956 42.5315 44.9283 47.1325 44.8946L54.4269 44.8834C57.2211 44.8834 59.4768 42.6274 59.4768 39.8327C59.4768 37.038 57.2211 34.7821 54.4269 34.7821H44.6749C42.4866 34.7709 40.3207 34.5688 38.1661 34.176C37.7509 34.0862 37.3806 33.9628 37.0102 33.8505C37.0102 33.7944 37.0327 33.7271 37.0439 33.6597V28.4968L42.913 22.6044C43.8445 22.8177 44.7647 23.0758 45.6737 23.3901L40.3432 32.5374H43.2385L47.3906 25.0175C48.4567 29.507 52.9455 32.2904 57.4344 31.2354C57.7037 31.1681 57.9618 31.0895 58.2199 30.9997L57.0865 33.0536C57.7935 33.3455 58.4556 33.7383 59.0391 34.2209L63.2811 26.5215L63.2362 26.499C63.7412 25.3767 63.9768 24.2094 63.9768 23.0646C63.9768 19.8546 62.114 16.7794 58.9942 15.3876C55.0777 13.6367 50.4767 15.0958 48.3108 18.7884C48.3108 18.8108 48.2884 18.8221 48.2772 18.8333C48.165 19.0353 48.064 19.2373 47.963 19.4506L46.9193 21.2464C44.7198 20.573 42.4642 20.0342 40.1973 19.6526C43.1599 17.6324 44.9218 14.254 44.8993 10.6512C45.0452 5.01697 40.6686 0.291815 35.0688 0H34.7883C29.3456 0.134684 24.9353 4.48946 24.7333 9.94415H24.6997V12.2113C24.6997 12.2113 24.7782 12.2113 24.8119 12.2226C25.1822 14.8938 26.5401 17.3293 28.6161 19.0465C23.7121 19.1924 18.0001 20.3597 17.9552 26.9368C17.8654 31.7405 19.9303 36.331 23.5662 39.4736ZM55.5603 16.8243C57.2548 16.8243 58.8035 17.5201 59.9257 18.6313C61.0366 19.7536 61.7324 21.3025 61.7324 22.9973C61.7324 26.4092 58.9606 29.1703 55.5603 29.1703C52.16 29.1703 49.3882 26.4092 49.3882 22.9973C49.3882 19.5853 52.1488 16.8243 55.5603 16.8243ZM40.3095 22.0881L35.8656 26.5439L29.7159 21.1566C31.2197 21.1566 32.6112 21.2576 33.7222 21.3249C35.9217 21.4596 38.1212 21.7178 40.3095 22.0881ZM42.5764 9.69723C40.3207 8.26061 38.7721 5.93731 38.3232 3.28853C40.7023 4.6017 42.2958 7.00356 42.5764 9.69723ZM34.7995 2.36819C35.0913 2.39064 35.383 2.42431 35.6748 2.4692C34.8219 6.65562 31.2645 9.75335 27.0002 10.0339C27.2022 5.8363 30.5912 2.50287 34.7995 2.36819ZM27.0899 12.3011C31.1972 12.0542 34.878 9.66356 36.7746 5.99343C37.8407 8.70955 39.8943 10.9318 42.509 12.2226C41.9928 16.4875 38.1324 19.5292 33.8681 19.0241C30.3443 18.5976 27.5501 15.8366 27.0899 12.3011ZM23.9927 21.8076C24.8343 21.5719 25.6872 21.4035 26.5513 21.3025L34.7883 28.5305V33.0985C32.6897 32.268 30.8606 30.8763 29.5139 29.058C28.459 27.5541 27.6286 28.0703 27.2134 28.3622C26.6972 28.7438 26.9441 29.709 27.3705 30.3936C28.964 32.4251 31.0626 33.9852 33.4528 34.9392C35.9778 36.0167 38.6599 36.6789 41.3981 36.9034C41.6898 36.9258 42.1275 36.9483 42.6549 36.9707V37.0268H54.4381C55.9867 37.0268 57.2436 38.2839 57.2436 39.8327C57.2436 41.3816 55.9867 42.6386 54.4381 42.6386H42.6549V42.6162C40.1412 42.6162 34.7995 42.5713 32.5551 41.8979C29.5364 40.9775 26.7645 39.3613 24.4864 37.1727C21.8493 34.4566 20.3006 30.8763 20.1098 27.0939C20.1996 24.793 20.727 22.784 23.9927 21.8076Z" fill="#0095DA"/>
</g>
<defs>
<clipPath id="clip0_112_280">
<rect width="78.5656" height="78.5656" fill="white"/>
</clipPath>
</defs>
</svg>
