<svg width="83" height="83" viewBox="0 0 83 83" fill="none" xmlns="http://www.w3.org/2000/svg">
<circle cx="41.5" cy="41.5" r="41.5" fill="#84D84C" fill-opacity="0.2"/>
<path d="M76 42C76 60.7777 60.7777 76 42 76C23.2223 76 8 60.7777 8 42C8 23.2223 23.2223 8 42 8C60.7777 8 76 23.2223 76 42Z" fill="#84D84C" fill-opacity="0.5"/>
<circle cx="42" cy="42" r="29" fill="#84D84C"/>
<path fill-rule="evenodd" clip-rule="evenodd" d="M58 41.5881C58 50.1953 50.9666 57.175 42.2912 57.175C39.5358 57.175 36.948 56.4719 34.6978 55.2356L26 58L28.8348 49.6375C27.404 47.2879 26.5813 44.5336 26.5813 41.5892C26.5813 32.9786 33.6146 26 42.2912 26C50.9678 26 58 32.9786 58 41.5881ZM42.2912 28.4827C35.0063 28.4827 29.083 34.3613 29.083 41.5881C29.083 44.4542 30.0163 47.1101 31.5981 49.272L29.9493 54.1379L35.0242 52.526C37.109 53.8942 39.6073 54.6924 42.2912 54.6924C49.5727 54.6924 55.4983 48.8137 55.4983 41.5881C55.4983 34.3625 49.5727 28.4827 42.2912 28.4827ZM50.2233 45.1785C50.126 45.0187 49.8689 44.9237 49.4855 44.7325C49.0999 44.5414 47.2063 43.6169 46.853 43.4895C46.5009 43.3621 46.2416 43.2984 45.9867 43.6807C45.7296 44.0629 44.9919 44.9237 44.7661 45.1785C44.5425 45.4345 44.3178 45.4647 43.9333 45.2736C43.5476 45.0824 42.3057 44.6778 40.8358 43.3777C39.6922 42.3639 38.9187 41.1141 38.6929 40.7318C38.4693 40.3495 38.6706 40.1439 38.8617 39.9527C39.035 39.7806 39.2474 39.5067 39.4396 39.2842C39.633 39.0607 39.6967 38.8997 39.8253 38.6448C39.9538 38.39 39.8901 38.1675 39.7929 37.9764C39.6978 37.7852 38.9265 35.9051 38.6057 35.1393C38.2871 34.3759 37.9652 34.4038 37.7394 34.4038C37.5136 34.4038 37.1 34.4709 37.1 34.4709C37.1 34.4709 36.3276 34.5659 35.9755 34.9482C35.6234 35.3305 34.6285 36.2549 34.6285 38.134C34.6285 40.0131 36.0068 41.8318 36.2002 42.0855C36.3935 42.3415 38.8628 46.3254 42.7786 47.8546C46.6932 49.3838 46.6932 48.8741 47.3997 48.8092C48.105 48.7466 49.6778 47.8859 49.9986 46.9928C50.3194 46.1007 50.3194 45.335 50.2244 45.1763L50.2233 45.1785Z" fill="white"/>
</svg>
