<svg width="46" height="46" viewBox="0 0 46 46" fill="none" xmlns="http://www.w3.org/2000/svg">
<path d="M38.42 36.8219L38.4571 36.5257C38.7896 33.8803 38.5481 31.3927 37.7384 29.1307C37.042 27.1817 35.3595 24.4034 33.7503 23.1294C33.7429 23.1239 33.7345 23.1164 33.7252 23.109C33.3157 24.4842 32.7892 25.7563 32.1569 26.8984C32.8282 27.7202 32.9787 28.7676 32.5552 29.7343C32.1077 30.7585 31.1457 31.4196 30.1048 31.4196C29.5885 31.4196 29.0834 31.2599 28.6052 30.9451C27.3915 30.1456 27.2523 28.8837 27.5262 27.9681C27.88 26.7879 28.9023 25.995 30.0695 25.995C30.2589 25.995 30.4511 26.0154 30.6443 26.0553C30.6861 25.968 30.7269 25.8807 30.7687 25.7935C31.3602 24.5473 31.9702 23.2613 32.1866 21.8907C30.5087 20.8275 29.0082 20.1525 27.4844 19.7746C27.2578 19.9055 27.0415 20.0708 26.8149 20.2463C26.5846 20.4236 26.3469 20.6065 26.0851 20.7598C25.02 21.3837 23.9262 21.6995 22.836 21.6995C21.6345 21.6995 20.4339 21.3169 19.2657 20.562C19.1757 20.5035 19.0197 20.379 18.8395 20.236C18.6603 20.093 18.3455 19.8423 18.2062 19.7578C16.7224 20.1701 15.3574 20.744 14.1475 21.4655C14.2478 22.9456 14.7009 24.5659 15.4651 26.1723C15.9025 26.0692 16.3426 26.0172 16.7772 26.0172C18.0372 26.0172 19.2044 26.4509 20.1516 27.2699C21.3039 28.2662 21.7543 29.7092 22.1898 31.1048C22.3188 31.5189 22.4414 31.9099 22.5807 32.2906L22.6726 32.5422L19.8479 33.5237L19.3224 31.8486L20.4701 31.4539C20.3744 31.2116 20.2918 30.9692 20.2119 30.7325C19.9993 30.1029 19.7978 29.5086 19.3716 28.9933C18.7337 28.2226 17.7875 27.7796 16.7735 27.7796C15.4679 27.7796 14.3184 28.4928 13.7724 29.6405C13.1428 30.9655 13.5402 32.0854 13.9999 33.3826C14.0324 33.4754 14.0658 33.5683 14.0992 33.663L15.2209 33.3138L15.8923 34.9565L13.0175 35.9463L12.9441 35.6742C12.8076 35.1682 12.6154 34.6584 12.4288 34.1653C12.0174 33.0771 11.5931 31.9507 11.6896 30.7102C11.7723 29.6442 12.3452 28.3851 13.115 27.5772C13.1948 27.4937 13.3239 27.3934 13.4743 27.2782C13.5904 27.1891 13.7928 27.0322 13.8736 26.9458C13.8318 26.8047 13.6832 26.4927 13.5987 26.3153C13.5152 26.1407 13.4437 25.9903 13.4065 25.8891C13.011 24.8018 12.7296 23.6791 12.4873 22.6549C10.7843 24.0719 9.39424 25.8817 8.45175 27.9124C7.44334 30.0871 6.96885 32.4781 7.07749 34.8265C7.09884 35.288 7.15549 35.9519 7.22327 36.3279C7.22699 36.3493 7.23256 36.3632 7.23441 36.366C7.22884 36.3558 7.35884 36.8377 7.3087 36.8219H5.52587L5.49987 36.587C5.00216 32.0594 5.99665 27.7685 8.30225 24.5046C10.2439 21.7542 13.2765 19.5907 16.8701 18.3836C15.7335 16.8477 14.3537 14.5421 13.7733 11.8177C13.1828 9.04508 13.569 6.54261 14.9219 4.38186C16.6453 1.6389 19.6047 0 22.8435 0C26.0823 0 29.0416 1.6389 30.7594 4.38279C32.1123 6.54447 32.4995 9.046 31.908 11.8187C31.3286 14.5366 29.9544 16.8385 28.8187 18.3743C31.6648 19.2443 34.2378 20.9362 36.2797 23.2836C38.3959 25.7164 39.7553 28.6367 40.2131 31.7288C40.4396 33.2628 40.4368 34.8534 40.2056 36.5926L40.175 36.821H38.4191L38.42 36.8219ZM30.1196 27.7954C30.0416 27.7954 29.9581 27.8029 29.8708 27.8177C29.4353 27.8911 29.2301 28.2746 29.1874 28.581C29.1428 28.8986 29.2403 29.3406 29.6628 29.543C29.8076 29.6126 29.9571 29.6479 30.1057 29.6479C30.466 29.6479 30.8021 29.4371 30.9628 29.1112C31.116 28.7992 31.0714 28.4482 30.8402 28.1464C30.6563 27.9069 30.427 27.7954 30.1196 27.7954ZM15.2172 9.22243C15.2126 9.24843 15.2154 9.30229 15.2172 9.33664L15.2191 9.38493C15.2757 11.2151 15.9424 13.4641 17.0019 15.401C18.1905 17.5739 19.7235 19.0893 21.3188 19.6678C21.8285 19.8526 22.343 19.9463 22.849 19.9463C23.8816 19.9463 25.4676 19.5396 27.1603 17.5999C28.2467 16.3547 29.1957 14.6768 29.764 12.9942C30.4409 10.9876 30.6025 9.2475 30.2561 7.68753C29.2486 8.17688 28.2579 8.41551 27.2383 8.41551C26.4685 8.41551 25.6756 8.27252 24.8816 7.99116C24.3904 7.81659 23.9568 7.57238 23.5371 7.33653C23.0357 7.05332 22.5612 6.78682 22.0059 6.64011C21.5565 6.52126 21.1163 6.4609 20.6976 6.4609C19.0447 6.4609 17.7596 7.39596 16.3993 8.38673C16.0195 8.66344 15.6276 8.94851 15.2172 9.2215V9.22243ZM22.8397 1.75776C21.7858 1.75776 20.757 1.97318 19.7839 2.39846C17.9435 3.20167 16.4522 4.80064 15.7493 6.67818C17.2043 5.61684 18.8005 4.69571 20.7291 4.69571C21.2538 4.69571 21.796 4.76443 22.343 4.89907C23.0273 5.06807 23.6262 5.39677 24.2057 5.71527C24.6709 5.97062 25.1101 6.21205 25.5883 6.37547C26.164 6.57233 26.7313 6.67261 27.2736 6.67261C28.0833 6.67261 28.8642 6.45904 29.6544 6.01984C28.412 3.42266 25.7628 1.75776 22.8407 1.75776H22.8397Z" fill="#0095DA"/>
<path d="M24.8641 45.0692C24.4333 45.0692 24.0033 44.7879 23.5873 44.5158C23.3273 44.3459 23.0813 44.1843 22.8631 44.1119C22.682 44.1862 22.4656 44.3273 22.2381 44.4759C21.8129 44.7535 21.3319 45.0683 20.8824 45.0683C20.6587 45.0683 20.4609 44.9903 20.2928 44.8371C19.8573 44.4387 20.0458 43.7358 20.212 43.1146C20.2937 42.81 20.3708 42.5213 20.3699 42.3012C20.2455 42.1378 20.0291 41.9585 19.8016 41.7701C19.2092 41.2798 18.4719 40.6688 18.9659 39.9259C19.237 39.5183 19.8833 39.4821 20.5082 39.4477C20.8305 39.4301 21.1359 39.4124 21.343 39.3447C21.434 39.1989 21.5352 38.9472 21.6411 38.6807C21.8862 38.067 22.1406 37.4328 22.5251 37.3139C22.6467 37.2758 22.7646 37.2573 22.8742 37.2573C23.579 37.2573 23.8557 37.9936 24.1008 38.6445C24.1983 38.9036 24.2912 39.1497 24.4017 39.3298C24.6069 39.4022 24.9142 39.4227 25.2383 39.444C25.8456 39.4839 26.4742 39.5257 26.7797 39.9064C26.9283 40.0921 26.9794 40.3382 26.932 40.6391C26.8865 40.9297 26.7472 41.0449 26.6135 41.1563C26.5717 41.1906 26.529 41.2259 26.4872 41.2686C26.3303 41.4283 26.1622 41.5778 25.9988 41.7218C25.7899 41.9066 25.5745 42.0969 25.3878 42.3086C25.3897 42.5185 25.463 42.7998 25.541 43.096C25.7184 43.7692 25.9189 44.5316 25.3822 44.9049C25.2262 45.0135 25.0517 45.0692 24.8632 45.0692H24.8641ZM22.8519 42.9632C23.2735 42.9632 23.6384 43.2047 23.9913 43.4377C24.176 43.5594 24.3525 43.6764 24.5335 43.759C24.5057 43.5854 24.4555 43.3922 24.4035 43.1917C24.2828 42.7255 24.1575 42.2436 24.2763 41.8583C24.3348 41.667 24.6858 41.3606 25.2142 40.9149C25.3349 40.8127 25.4751 40.6948 25.5717 40.6066C25.3915 40.5759 25.1752 40.5666 24.9505 40.5564C24.45 40.5351 23.9318 40.5119 23.6393 40.2426C23.4731 40.0894 23.2791 39.6502 23.0441 39.093C22.9754 38.9296 22.916 38.7894 22.8705 38.6956C22.8686 38.6928 22.8677 38.6891 22.8658 38.6863C22.8138 38.8052 22.7553 38.9519 22.6959 39.1051C22.5111 39.5749 22.3208 40.0615 22.1072 40.2528C21.811 40.5184 21.1452 40.5453 20.6104 40.5676C20.447 40.5741 20.2928 40.5806 20.1767 40.5936C20.1712 40.5936 20.1656 40.5945 20.16 40.5954C20.2455 40.6706 20.3717 40.7756 20.4813 40.8656C21.0236 41.3123 21.4136 41.6456 21.4786 41.8573C21.5993 42.2492 21.4739 42.7302 21.3523 43.1954C21.3003 43.3932 21.2511 43.5835 21.2232 43.7553C21.4071 43.655 21.6996 43.4767 21.8974 43.356C22.1973 43.1731 22.3709 43.0682 22.4415 43.0403C22.5761 42.9883 22.7136 42.9623 22.8501 42.9623L22.8519 42.9632Z" fill="#0095DA"/>
<path d="M34.2545 45.087C33.8673 45.087 33.4234 44.7982 32.9945 44.5187C32.7298 44.346 32.4782 44.1826 32.273 44.1083C32.0585 44.1863 31.8198 44.3441 31.5691 44.5113C31.1522 44.788 30.7223 45.074 30.2868 45.074C30.1577 45.074 30.0333 45.048 29.9181 44.996C29.1976 44.6738 29.4381 43.7563 29.6312 43.02C29.7018 42.7526 29.7677 42.4991 29.7798 42.3106L28.4306 41.0515L28.426 41.0459C28.2198 40.8063 28.1595 40.4748 28.2662 40.1591C28.3749 39.8388 28.6284 39.6076 28.9432 39.5407C29.0862 39.511 29.3712 39.4915 29.7018 39.4692C30.0472 39.446 30.6146 39.4079 30.7511 39.3541C30.8671 39.1683 30.96 38.913 31.0575 38.6428C31.2943 37.9919 31.5626 37.2537 32.2795 37.2537C32.3937 37.2537 32.5162 37.2741 32.6453 37.3131C33.0102 37.4254 33.2526 38.0309 33.4866 38.6168C33.6017 38.9056 33.7113 39.1795 33.8125 39.3262C34.0168 39.4033 34.3297 39.4246 34.6594 39.4469C35.2546 39.4868 35.8702 39.5286 36.1766 39.8954C36.3196 40.0672 36.3763 40.2928 36.3447 40.5677C36.2936 41.0143 35.6687 41.5167 35.1663 41.9197C35.0131 42.0432 34.8794 42.1499 34.7838 42.2382C34.7726 42.2883 34.7921 42.4192 34.7996 42.4703L34.807 42.5214C34.8256 42.6671 34.8766 42.8584 34.9305 43.0599C35.1088 43.7294 35.3298 44.5633 34.7541 44.931C34.6529 44.996 34.4393 45.0703 34.3223 45.0814C34.2991 45.0833 34.2759 45.0842 34.2526 45.0842L34.2545 45.087ZM32.3231 42.9466C32.3491 42.9466 32.376 42.9476 32.402 42.9504C32.6862 42.9745 33.0149 43.189 33.3631 43.4165C33.5609 43.5456 33.7642 43.6783 33.9434 43.761C33.9258 43.6895 33.9035 43.605 33.8831 43.5251C33.6528 42.6467 33.4782 41.8398 33.8664 41.6058L34.9537 40.6011C34.7773 40.5742 34.5665 40.5649 34.3464 40.5556C33.8627 40.5352 33.3631 40.5129 33.0864 40.2863C32.8264 40.0737 32.559 39.3671 32.3073 38.6623C32.3027 38.6484 32.2971 38.6344 32.2925 38.6205C32.2089 38.7681 32.1253 38.9854 32.038 39.2129C31.8625 39.6716 31.6805 40.1452 31.4011 40.329C31.1197 40.5138 30.5551 40.5408 30.0574 40.5649C29.8829 40.5733 29.7176 40.5816 29.5959 40.5955C29.5857 40.5965 29.5774 40.5983 29.5681 40.5993C29.6452 40.6689 29.7631 40.7645 29.8643 40.8472C30.3991 41.2836 30.8476 41.6699 30.9126 41.9819C30.9888 42.3524 30.8393 42.8854 30.7083 43.3552C30.6684 43.4973 30.6303 43.6338 30.5997 43.7582C30.7845 43.6774 30.9767 43.5549 31.1773 43.4276C31.5478 43.1909 31.9313 42.9466 32.324 42.9466H32.3231Z" fill="#0095DA"/>
<path d="M39.6765 45.0825C39.6319 45.0825 39.5883 45.0787 39.5474 45.0713C39.2939 45.0277 39.1054 44.9116 38.9866 44.7277C38.6987 44.282 38.8872 43.5559 39.0534 42.9152C39.1138 42.6831 39.1704 42.463 39.1909 42.2986C39.0702 42.1584 38.8622 41.9848 38.6421 41.8019C38.1323 41.3784 37.6058 40.9402 37.5947 40.5028C37.5705 39.5399 38.5548 39.487 39.3459 39.4443C39.6598 39.4275 39.9579 39.4118 40.1658 39.3458C40.268 39.1583 40.3516 38.9243 40.4388 38.6782C40.6747 38.0143 40.9421 37.2621 41.7073 37.2621C41.8001 37.2621 41.8985 37.2733 42.0007 37.2965C42.3823 37.3829 42.6562 38.0189 42.9747 38.8416C43.0546 39.0468 43.1242 39.2279 43.1827 39.3458C43.3926 39.408 43.7009 39.4266 44.0249 39.4452C44.6099 39.4795 45.2153 39.5148 45.5032 39.8203C45.6852 40.0135 45.7697 40.2242 45.7558 40.4471C45.7223 40.9689 45.1606 41.4323 44.6647 41.8409C44.4651 42.0052 44.2747 42.1621 44.1568 42.2949C44.1772 42.4556 44.2339 42.6719 44.2924 42.9003C44.4502 43.5067 44.6461 44.2616 44.3694 44.711C44.2599 44.8893 44.0871 45.0054 43.855 45.0555C43.8002 45.0676 43.7417 45.0732 43.6823 45.0732C43.2514 45.0732 42.7797 44.7686 42.3229 44.4742C42.0852 44.321 41.8605 44.1762 41.672 44.0973C41.4816 44.1762 41.2504 44.3257 41.0071 44.4835C40.554 44.777 40.086 45.0797 39.6746 45.0797L39.6765 45.0825ZM38.9773 40.5994C39.0534 40.669 39.1686 40.7637 39.2689 40.8464C39.7944 41.28 40.2364 41.6654 40.3116 41.9922C40.3887 42.3265 40.2531 42.8242 40.1222 43.3052C40.0776 43.4677 40.0349 43.6246 40.0043 43.762C40.1872 43.6645 40.4825 43.4844 40.6812 43.3628C41.009 43.1622 41.2151 43.0378 41.308 43.0071C41.4157 42.9718 41.5262 42.9533 41.6385 42.9533C42.0564 42.9533 42.4315 43.1975 42.7946 43.4333C42.984 43.5568 43.166 43.6748 43.3462 43.7555C43.3155 43.6125 43.2709 43.451 43.2254 43.2829C43.0973 42.8112 42.9654 42.3228 43.0379 41.9922C43.1038 41.6914 43.5133 41.3311 44.0416 40.89C44.1596 40.7925 44.297 40.6774 44.3787 40.5994C44.3676 40.5975 44.3555 40.5957 44.3425 40.5947C44.2153 40.5799 44.0546 40.5725 43.8838 40.5641C43.3814 40.5409 42.8132 40.514 42.5049 40.2874C42.3062 40.1416 42.0935 39.6569 41.8373 39.0394C41.7843 38.9113 41.723 38.7655 41.6748 38.6578C41.5875 38.8231 41.5076 39.0357 41.4296 39.2428C41.2727 39.6597 41.1102 40.0915 40.8465 40.2874C40.5419 40.514 39.9699 40.5409 39.4648 40.5641C39.2949 40.5725 39.1342 40.5799 39.0089 40.5947C38.9977 40.5957 38.9875 40.5975 38.9792 40.5985L38.9773 40.5994Z" fill="#0095DA"/>
<path d="M11.4508 45.0748C11.0097 45.0748 10.7228 44.7628 10.5975 44.1463L10.5919 44.1184L11.0097 42.2901C10.8649 42.135 10.6457 41.9586 10.4155 41.7729C10.0533 41.4813 9.67819 41.1795 9.52126 40.8991C9.37455 40.6372 9.35877 40.3373 9.47948 40.0764C9.60576 39.8015 9.86854 39.6019 10.1815 39.5406C10.3208 39.5137 10.564 39.496 10.8454 39.4765C11.2057 39.4515 11.7999 39.4097 11.9346 39.3373C12.0683 39.146 12.1704 38.8767 12.2781 38.5916C12.5121 37.9714 12.7777 37.2684 13.4871 37.2684C13.5893 37.2684 13.6988 37.2842 13.8121 37.3139C14.2244 37.4235 14.4742 38.067 14.7147 38.6891C14.815 38.9491 14.9106 39.1952 15.0007 39.3438C15.217 39.4078 15.5123 39.4245 15.8225 39.4413C16.4269 39.4747 17.0519 39.51 17.3611 39.8953C17.5208 40.094 17.5737 40.3652 17.5189 40.7013C17.4669 41.0198 17.0426 41.3671 16.5932 41.7339C16.348 41.9344 16.0954 42.1406 15.9775 42.2947C15.9877 42.5101 16.0602 42.7804 16.1372 43.0654C16.2923 43.6421 16.4678 44.2948 16.1549 44.7173C15.9822 44.9495 15.7593 45.0683 15.4919 45.0683C15.0731 45.0683 14.6246 44.7832 14.191 44.5075C13.9208 44.3357 13.6645 44.1732 13.4574 44.11C13.2921 44.1927 13.1018 44.3134 12.9003 44.4406C12.4314 44.7378 11.9002 45.0739 11.4517 45.0739L11.4508 45.0748ZM13.5382 42.9558C13.6496 42.9558 13.7592 42.9735 13.8641 43.0078C13.9644 43.0413 14.1622 43.1638 14.476 43.3616C14.6748 43.487 14.9719 43.6727 15.1585 43.7702C15.1307 43.6606 15.0972 43.5399 15.0629 43.4155C14.9255 42.9196 14.7685 42.3579 14.8465 41.9818C14.9106 41.6698 15.3591 41.2826 15.8949 40.8471C15.9961 40.7645 16.1131 40.6688 16.1911 40.5992C16.1827 40.5982 16.1734 40.5964 16.1642 40.5955C16.0184 40.5778 15.854 40.5722 15.6795 40.5667C15.0703 40.5453 14.3795 40.5212 14.0545 39.991C13.9737 39.8591 13.8279 39.4858 13.6877 39.1255C13.6199 38.951 13.541 38.7486 13.4853 38.6195C13.4305 38.7393 13.3646 38.9073 13.2958 39.0838C13.0619 39.6845 12.8808 40.1228 12.6709 40.2881C12.3868 40.5128 11.7944 40.5416 11.2716 40.5667C11.1045 40.575 10.9457 40.5825 10.8287 40.5964C10.8147 40.5982 10.8027 40.6001 10.7915 40.601C10.8686 40.6753 10.9949 40.7821 11.1026 40.8731C11.5362 41.2399 12.0767 41.6967 12.1361 42.0663C12.1695 42.2734 12.0655 42.7181 11.9151 43.3236C11.8789 43.4684 11.838 43.6346 11.8111 43.7572C11.9838 43.6773 12.1602 43.5641 12.345 43.4471C12.7229 43.2056 13.1139 42.9558 13.5382 42.9558Z" fill="#0095DA"/>
<path d="M2.07611 45.0826C2.03525 45.0826 1.99625 45.0798 1.95818 45.0733C1.70654 45.0306 1.51804 44.9163 1.39826 44.7334C1.10669 44.2858 1.30262 43.5189 1.46047 42.9032C1.5199 42.672 1.57562 42.4519 1.59511 42.2904C1.47069 42.1325 1.25341 41.957 1.02405 41.7713C0.427918 41.2894 -0.387355 40.6292 0.206922 39.8733C0.481775 39.5242 1.14012 39.4824 1.77618 39.4416C2.08446 39.4221 2.37696 39.4035 2.57474 39.3496C2.62767 39.2336 2.69081 39.0692 2.76231 38.8826C3.06131 38.1017 3.31666 37.4934 3.6528 37.3505C3.80787 37.2845 3.95644 37.2511 4.09479 37.2511C4.79399 37.2511 5.09485 38.0729 5.33627 38.7321C5.4217 38.9643 5.50248 39.1853 5.58977 39.3469C5.82748 39.4174 6.13019 39.4323 6.44961 39.4471C7.22124 39.4843 8.18137 39.5298 8.14794 40.5985V40.6069L8.14609 40.6153C8.08294 40.9997 7.60102 41.399 7.13489 41.7852C6.90739 41.9737 6.69104 42.153 6.56568 42.2997C6.58518 42.4844 6.64925 42.7333 6.71704 42.9942C6.87211 43.5913 7.04668 44.2682 6.80989 44.6498C6.63347 44.9331 6.39297 45.077 6.09398 45.077C5.6492 45.077 5.15149 44.7529 4.71135 44.4678C4.48014 44.3174 4.261 44.1754 4.08458 44.102C3.90629 44.1791 3.68065 44.3221 3.44387 44.4725C2.97124 44.7733 2.48189 45.0835 2.07518 45.0835L2.07611 45.0826ZM4.12172 42.9552C4.23315 42.9552 4.34457 42.9729 4.45229 43.0091C4.53586 43.0369 4.72714 43.1521 5.0577 43.3526C5.26292 43.4771 5.56934 43.6628 5.75969 43.7631C5.72998 43.621 5.68634 43.4641 5.64084 43.3016C5.47091 42.6934 5.2787 42.0035 5.66591 41.5624L5.67055 41.5577L5.6752 41.5531C5.7207 41.5104 5.84048 41.4092 5.99276 41.281C6.20447 41.1028 6.59818 40.7703 6.77739 40.5995C6.76997 40.5985 6.76161 40.5976 6.75232 40.5967C6.62975 40.5818 6.4719 40.5744 6.30476 40.567C5.77548 40.5419 5.17563 40.514 4.87199 40.2578C4.62593 40.0507 4.44486 39.5725 4.26936 39.1101C4.20715 38.9466 4.14772 38.7888 4.08922 38.6569C3.96386 38.903 3.7633 39.3896 3.66487 39.6273C3.57851 39.8362 3.53673 39.9383 3.5163 39.9746C3.19688 40.54 2.44753 40.5549 1.7864 40.567C1.64619 40.5698 1.51062 40.5725 1.38712 40.58C1.49762 40.7211 1.6954 40.8836 1.90525 41.0554C2.2711 41.3563 2.64996 41.6673 2.72145 41.9932C2.79388 42.3238 2.66203 42.8122 2.53389 43.2839C2.48839 43.452 2.44474 43.6136 2.41317 43.7566C2.59424 43.6758 2.77531 43.5579 2.96474 43.4344C3.3278 43.1985 3.70294 42.9543 4.12079 42.9543L4.12172 42.9552Z" fill="#0095DA"/>
</svg>
